<svg width="38" height="34" viewBox="0 0 40 42" fill="none" xmlns="http://www.w3.org/2000/svg">
<path d="M28.1843 0.5H11.8351C4.73361 0.5 0.5 4.84 0.5 12.12V28.86C0.5 36.16 4.73361 40.5 11.8351 40.5H28.1648C35.2663 40.5 39.4999 36.16 39.4999 28.88V12.12C39.5194 4.84 35.2858 0.5 28.1843 0.5ZM23.7556 28.76H14.1568C13.3569 28.76 12.6936 28.08 12.6936 27.26C12.6936 26.44 13.3569 25.76 14.1568 25.76H23.7556C26.2528 25.76 28.3014 23.68 28.3014 21.1C28.3014 18.52 26.2723 16.44 23.7556 16.44H13.8642L14.3714 16.96C14.9372 17.56 14.9372 18.5 14.3519 19.1C14.0593 19.4 13.6886 19.54 13.3179 19.54C12.9472 19.54 12.5765 19.4 12.2839 19.1L9.22085 15.94C8.65506 15.36 8.65506 14.4 9.22085 13.82L12.2839 10.68C12.8497 10.1 13.7861 10.1 14.3519 10.68C14.9177 11.26 14.9177 12.22 14.3519 12.8L13.7081 13.46H23.7556C27.8721 13.46 31.2278 16.9 31.2278 21.12C31.2278 25.34 27.8721 28.76 23.7556 28.76Z" fill="black"/>
</svg>
