<svg width="49" height="40" viewBox="0 0 49 40" fill="none" xmlns="http://www.w3.org/2000/svg">
<path d="M17.15 32.5C26.95 32.5 26.95 30.2615 26.95 27.5C26.95 24.7385 22.5623 22.5 17.15 22.5C11.7376 22.5 7.34998 24.7385 7.34998 27.5C7.34998 30.2615 7.34998 32.5 17.15 32.5Z" fill="black"/>
<path opacity="0.5" d="M29.4 0H19.6C10.3605 0 5.74072 -2.98023e-07 2.87035 2.92892C2.92063e-07 5.85787 0 10.5719 0 20C0 29.428 2.92063e-07 34.1422 2.87035 37.071C5.74072 40 10.3605 40 19.6 40H29.4C38.6394 40 43.2594 40 46.1296 37.071C49 34.1422 49 29.428 49 20C49 10.5719 49 5.85787 46.1296 2.92892C43.2594 -2.98023e-07 38.6394 0 29.4 0Z" fill="black"/>
<path d="M27.5625 12.5C27.5625 11.4645 28.3852 10.625 29.4 10.625H41.65C42.6648 10.625 43.4875 11.4645 43.4875 12.5C43.4875 13.5355 42.6648 14.375 41.65 14.375H29.4C28.3852 14.375 27.5625 13.5355 27.5625 12.5Z" fill="black"/>
<path d="M17.15 17.5C19.8563 17.5 22.05 15.2615 22.05 12.5C22.05 9.73857 19.8563 7.5 17.15 7.5C14.4438 7.5 12.25 9.73857 12.25 12.5C12.25 15.2615 14.4438 17.5 17.15 17.5Z" fill="black"/>
<path d="M30.0125 20C30.0125 18.9645 30.8352 18.125 31.85 18.125H41.65C42.6648 18.125 43.4875 18.9645 43.4875 20C43.4875 21.0355 42.6648 21.875 41.65 21.875H31.85C30.8352 21.875 30.0125 21.0355 30.0125 20Z" fill="black"/>
<path d="M32.4625 27.5C32.4625 26.4645 33.2852 25.625 34.3 25.625H41.65C42.6648 25.625 43.4875 26.4645 43.4875 27.5C43.4875 28.5355 42.6648 29.375 41.65 29.375H34.3C33.2852 29.375 32.4625 28.5355 32.4625 27.5Z" fill="black"/>
</svg>
