<svg width="114" height="95" viewBox="0 0 114 95" fill="none" xmlns="http://www.w3.org/2000/svg">
<path d="M58.0707 25.1151L40.4428 23.8128C40.4428 23.8128 40.3904 25.8008 40.8144 26.9106C41.2385 28.0204 40.9893 33.5572 41.5999 34.0739C42.1518 34.5411 42.687 56.1026 42.785 60.2454C42.7953 60.6865 42.9332 61.1115 43.1801 61.4854C43.5389 62.0285 44.0402 62.8389 44.1622 63.2985C44.2988 63.8127 47.9244 65.3464 54.4955 65.3931C60.892 66.0694 64.5703 64.9428 64.8007 64.4491C65.0063 64.0081 65.6515 63.2614 66.1066 62.7637C66.42 62.421 66.6344 62.0156 66.726 61.5802C67.5864 57.4906 72.089 36.21 72.7213 35.809C73.421 35.3655 74.1944 29.8576 74.8185 28.8063C75.4427 27.7551 75.7572 25.7814 75.7572 25.7814L58.0707 25.1151Z" fill="url(#paint0_linear_29_1780)"/>
<path d="M51.3368 59.7762C51.2017 61.2349 49.8016 62.3453 48.2095 62.2566C46.6173 62.1678 45.4362 60.9134 45.5714 59.4551C45.7065 57.9964 47.1066 56.8859 48.6987 56.9747C50.2909 57.0635 51.472 58.3178 51.3368 59.7762Z" fill="#212542"/>
<path d="M58.346 60.8911C58.2109 62.3498 56.8108 63.4602 55.219 63.3714C53.6268 63.2826 52.4457 62.0283 52.5808 60.5699C52.7159 59.1113 54.1161 58.0008 55.7079 58.0896C57.3 58.1784 58.4811 59.4324 58.346 60.8911Z" fill="#212542"/>
<path d="M65.8664 60.0433C65.7313 61.5019 64.3312 62.6124 62.739 62.5236C61.1469 62.4349 59.9658 61.1805 60.1009 59.7221C60.236 58.2635 61.6361 57.153 63.2279 57.2418C64.8204 57.3305 66.0015 58.5849 65.8664 60.0433Z" fill="#212542"/>
<path d="M61.835 54.509C61.7306 55.636 60.6488 56.4943 59.4184 56.4255C58.1883 56.357 57.2757 55.3878 57.38 54.2605C57.4843 53.1335 58.5661 52.2752 59.7966 52.344C61.027 52.4128 61.9393 53.3821 61.835 54.509Z" fill="#212542"/>
<path d="M55.1898 54.4404C55.0854 55.5674 54.0037 56.4257 52.7732 56.3569C51.5431 56.2883 50.6302 55.3189 50.7348 54.1919C50.8391 53.0649 51.9213 52.2069 53.1514 52.2754C54.3815 52.3439 55.2941 53.3131 55.1898 54.4404Z" fill="#212542"/>
<path d="M47.0366 55.0117C46.969 55.7411 46.2691 56.2963 45.473 56.2519C44.677 56.2075 44.0864 55.5805 44.154 54.8511C44.2215 54.1218 44.9214 53.5666 45.7175 53.611C46.5135 53.6551 47.1041 54.2824 47.0366 55.0117Z" fill="#212542"/>
<path d="M66.6935 55.3833C66.6259 56.1127 65.926 56.6679 65.1299 56.6235C64.3339 56.5791 63.7433 55.9521 63.8109 55.2227C63.8785 54.4934 64.5783 53.9382 65.3744 53.9826C66.1705 54.027 66.761 54.654 66.6935 55.3833Z" fill="#212542"/>
<path d="M46.5486 59.4961C46.548 59.8517 46.6334 60.2087 46.8224 60.5138C47.0123 60.8179 47.3236 61.0506 47.6801 61.1546C48.0256 61.2577 48.4654 61.2382 48.682 60.9978C48.7858 60.8841 48.7609 60.7452 48.6398 60.6326C48.5258 60.5195 48.3422 60.4089 48.2328 60.2343C48.0221 59.8884 48.0341 59.5017 48.0104 59.1557C47.9902 58.8135 47.9449 58.446 47.6421 58.2411C47.5008 58.1398 47.3182 58.0649 47.1389 58.096C46.9566 58.1266 46.8337 58.2905 46.7551 58.4481C46.6053 58.7786 46.5647 59.1415 46.5486 59.4961Z" fill="white"/>
<path d="M53.4068 60.9781C53.4066 61.3337 53.4916 61.6908 53.6803 61.9959C53.8705 62.2999 54.1815 62.5326 54.538 62.6367C54.8835 62.7398 55.3233 62.7203 55.5399 62.4798C55.6437 62.3662 55.6188 62.2273 55.4977 62.1147C55.3834 62.0016 55.2001 61.8909 55.0907 61.7164C54.8797 61.3705 54.892 60.9837 54.8683 60.6381C54.8482 60.2958 54.8028 59.9284 54.5 59.7235C54.3587 59.6222 54.1761 59.5473 53.9968 59.5784C53.8145 59.609 53.6916 59.7729 53.6131 59.9308C53.4635 60.2607 53.4229 60.6235 53.4068 60.9781Z" fill="white"/>
<path d="M60.8372 60.0841C60.837 60.4398 60.922 60.7968 61.1107 61.1019C61.301 61.406 61.6119 61.6387 61.9684 61.7427C62.3139 61.8458 62.7537 61.8263 62.9703 61.5859C63.0741 61.4722 63.0492 61.3333 62.9282 61.2207C62.8138 61.1076 62.6305 60.997 62.5211 60.8224C62.3105 60.4765 62.3224 60.0898 62.2987 59.7441C62.2786 59.4018 62.2332 59.0344 61.9304 58.8295C61.7892 58.7282 61.6066 58.6533 61.4272 58.6844C61.2449 58.715 61.122 58.8789 61.0434 59.0365C60.8939 59.3667 60.8533 59.7296 60.8372 60.0841Z" fill="white"/>
<path d="M58.0941 54.5121C58.0938 54.7913 58.1607 55.0712 58.309 55.3106C58.4583 55.5491 58.7023 55.7318 58.9821 55.8134C59.2531 55.8943 59.5983 55.879 59.7682 55.6903C59.8494 55.6011 59.83 55.4921 59.7351 55.4037C59.6456 55.3149 59.5015 55.228 59.4156 55.0912C59.2502 54.8197 59.2598 54.5161 59.2411 54.2451C59.2253 53.9766 59.1897 53.6883 58.952 53.5275C58.841 53.4478 58.6978 53.3893 58.5573 53.4136C58.4142 53.4377 58.3177 53.5664 58.2563 53.6899C58.1386 53.9492 58.1068 54.234 58.0941 54.5121Z" fill="white"/>
<path d="M51.3314 54.4577C51.3311 54.7369 51.3979 55.0168 51.546 55.2563C51.6952 55.4948 51.9393 55.6774 52.219 55.759C52.49 55.8396 52.8352 55.8246 53.0052 55.6359C53.0864 55.5467 53.067 55.4377 52.972 55.3493C52.8825 55.2605 52.7384 55.1736 52.6525 55.0368C52.4871 54.7653 52.4968 54.4617 52.478 54.1904C52.4622 53.922 52.4266 53.6336 52.189 53.4728C52.078 53.3931 51.9347 53.3346 51.7942 53.359C51.6511 53.3831 51.5546 53.5117 51.4932 53.6352C51.3758 53.8945 51.344 54.1793 51.3314 54.4577Z" fill="white"/>
<path d="M44.5406 54.8991C44.5403 55.0996 44.5884 55.3007 44.6949 55.4726C44.8019 55.6439 44.9774 55.7752 45.178 55.8338C45.3728 55.8919 45.6206 55.881 45.7427 55.7454C45.8012 55.6813 45.787 55.6031 45.7189 55.5397C45.6546 55.4757 45.5511 55.4136 45.4895 55.3153C45.3706 55.1204 45.3775 54.9024 45.3643 54.7074C45.3529 54.5146 45.3273 54.3076 45.1566 54.1919C45.077 54.1348 44.974 54.0926 44.873 54.1101C44.7703 54.1273 44.7011 54.2197 44.6569 54.3085C44.5727 54.4947 44.5496 54.6991 44.5406 54.8991Z" fill="white"/>
<path d="M64.1974 55.1795C64.197 55.3799 64.2451 55.581 64.3516 55.7529C64.4587 55.9242 64.6342 56.0555 64.8351 56.114C65.0296 56.1722 65.2777 56.1613 65.3998 56.0257C65.4583 55.9616 65.4441 55.8834 65.376 55.8199C65.3116 55.756 65.2082 55.6939 65.1466 55.5956C65.0277 55.4007 65.0346 55.1827 65.0211 54.9878C65.0097 54.7949 64.9841 54.5879 64.8134 54.4722C64.7338 54.4151 64.6308 54.3729 64.5298 54.3904C64.4271 54.4076 64.3575 54.5 64.3136 54.5888C64.2295 54.7753 64.2068 54.9797 64.1974 55.1795Z" fill="white"/>
<path d="M44.032 62.5672C45.6851 63.0477 47.3789 63.3943 49.0861 63.6614C50.7942 63.9216 52.5151 64.1303 54.25 64.1965C55.9809 64.2943 57.7217 64.3069 59.46 64.2094C61.2013 64.1481 62.9328 63.9317 64.6705 63.7179C64.2426 63.8055 63.8132 63.8904 63.3829 63.971C62.9525 64.051 62.5234 64.1444 62.088 64.196C61.2191 64.3085 60.3495 64.432 59.4736 64.4863C57.7242 64.642 55.9664 64.627 54.2177 64.5563C52.4701 64.4593 50.7316 64.2539 49.0234 63.9329C48.1693 63.7721 47.324 63.5773 46.4864 63.3631C45.6563 63.1259 44.826 62.8861 44.032 62.5672Z" fill="white"/>
<path d="M41.6 34.0739C42.3148 34.1258 43.0261 34.1963 43.7396 34.2534L45.8742 34.4561L50.1389 34.877L54.401 35.3058C55.1108 35.381 55.8224 35.4432 56.5342 35.5049L57.6019 35.6025C57.9584 35.6275 58.3151 35.6569 58.6718 35.6896C57.9534 35.7072 57.2352 35.6954 56.5172 35.6815C55.8003 35.6557 55.0834 35.6244 54.3678 35.5826C52.9358 35.505 51.5101 35.3749 50.0865 35.2357C48.6639 35.0882 47.2436 34.9274 45.8295 34.7304L43.7101 34.428C43.006 34.3119 42.3002 34.2063 41.6 34.0739Z" fill="white"/>
<path d="M70.6861 36.0845C69.8602 36.3094 69.0092 36.3933 68.16 36.4059C67.7352 36.4059 67.3099 36.3895 66.889 36.3376C66.4683 36.288 66.0502 36.2105 65.6497 36.0783C66.5046 36.0515 67.3307 36.0558 68.1663 36.0451C69.0006 36.0449 69.8346 36.0262 70.6861 36.0845Z" fill="white"/>
<path d="M43.6303 47.2315C43.6659 47.4955 43.7137 47.7648 43.8497 47.9999C43.9761 48.2361 44.2437 48.4133 44.5384 48.3982C44.8292 48.3885 45.1057 48.2451 45.2957 48.0437C45.4891 47.8405 45.6081 47.5892 45.7043 47.3363C46.0706 46.3115 46.2924 45.2484 46.3868 44.1837C46.4361 43.6508 46.4409 43.1168 46.4272 42.5851C46.3995 42.0538 46.3545 41.5241 46.267 41.0004C46.1087 39.9516 45.8112 38.9229 45.3932 37.9446C45.1943 37.4623 44.9181 36.9938 44.4662 36.7469C44.3576 36.6949 44.2515 36.6707 44.1657 36.6963C44.0785 36.7198 43.9949 36.7993 43.9275 36.8992C43.7976 37.1077 43.7202 37.3642 43.6636 37.62C43.4473 38.6592 43.4532 39.7373 43.4356 40.8107C43.3848 41.8839 43.3656 42.9551 43.3968 44.027C43.4347 45.098 43.5126 46.1669 43.6303 47.2315Z" fill="white"/>
<path d="M42.8431 31.9389C42.8747 32.1931 42.931 32.4499 43.0649 32.6731C43.1903 32.8986 43.464 33.0562 43.7387 33.0092C44.011 32.9656 44.2349 32.7728 44.3545 32.5543C44.4783 32.3301 44.5169 32.0771 44.545 31.8234C44.598 31.3103 44.6506 30.7964 44.6377 30.2925C44.6341 30.0405 44.6115 29.7911 44.5642 29.5482C44.5233 29.3014 44.4447 29.0802 44.328 28.8548C44.218 28.6319 44.0856 28.4157 43.9261 28.2258C43.7692 28.042 43.5756 27.8586 43.3682 27.8249C43.2664 27.8034 43.1712 27.8397 43.0727 27.8921C43.0283 27.9278 42.983 27.9673 42.939 28.0062C42.9096 28.0541 42.8684 28.0929 42.844 28.1476C42.734 28.3607 42.6919 28.6185 42.6657 28.8695C42.5701 29.889 42.7121 30.9221 42.8431 31.9389Z" fill="white"/>
<path d="M69.8476 33.818C69.8149 34.0576 69.7956 34.3127 69.9023 34.5349C69.9547 34.6446 70.0538 34.7334 70.1729 34.7777C70.2926 34.8223 70.4284 34.8209 70.5533 34.7902C70.8106 34.729 70.9992 34.5399 71.1254 34.3333C71.253 34.1248 71.3412 33.8911 71.4434 33.6642C71.6412 33.2085 71.8216 32.7479 71.9748 32.2836C72.126 31.8212 72.269 31.3496 72.2989 30.8887C72.3142 30.6627 72.2954 30.4287 72.1838 30.2761C72.0845 30.1215 71.8578 30.0764 71.6209 30.1001C71.1501 30.1386 70.7875 30.5524 70.5704 30.9804C70.1189 31.8603 69.9768 32.854 69.8476 33.818Z" fill="white"/>
<path d="M69.899 38.9708C70.2171 38.9885 70.2596 38.5355 69.9408 38.5179C69.623 38.5002 69.5805 38.9532 69.899 38.9708Z" fill="#212542"/>
<path d="M69.8577 41.8004C70.1758 41.8181 70.2183 41.3651 69.8995 41.3475C69.5817 41.3295 69.5392 41.7825 69.8577 41.8004Z" fill="#212542"/>
<path d="M68.114 39.1749C68.4321 39.1925 68.4746 38.7395 68.1559 38.722C67.8378 38.704 67.7953 39.157 68.114 39.1749Z" fill="#212542"/>
<path d="M67.0591 35.0709C67.0958 35.073 67.1324 35.075 67.1691 35.077C67.4872 35.0947 67.5297 34.6417 67.211 34.6241C67.1743 34.6221 67.1376 34.62 67.1009 34.618C66.7828 34.6001 66.7403 35.0531 67.0591 35.0709Z" fill="white"/>
<path d="M67.5443 40.559C67.8624 40.5766 67.9049 40.1236 67.5862 40.1061C67.268 40.0881 67.2255 40.5411 67.5443 40.559Z" fill="white"/>
<path d="M45.3342 51.8354C45.3373 51.8018 45.3404 51.7682 45.3435 51.7346C45.3704 51.4432 44.8759 51.4151 44.8491 51.7071C44.846 51.7408 44.8429 51.7743 44.8398 51.808C44.8126 52.0994 45.307 52.1275 45.3342 51.8354Z" fill="white"/>
<path d="M44.0489 58.2615C44.367 58.2791 44.4095 57.8261 44.0907 57.8085C43.7726 57.7909 43.7301 58.2436 44.0489 58.2615Z" fill="white"/>
<path d="M75.6917 25.7776C75.5412 27.4019 67.5287 28.2791 57.7949 27.7365C48.0611 27.1939 40.2923 25.4371 40.4429 23.8128C40.5934 22.1885 48.6059 21.3113 58.3397 21.8539C68.0735 22.3965 75.8423 24.1533 75.6917 25.7776Z" fill="#C9CFEF"/>
<path d="M45.8896 24.0811C46.2077 24.0988 46.2502 23.6458 45.9315 23.6282C45.6133 23.6103 45.5708 24.0633 45.8896 24.0811Z" fill="#212542"/>
<path d="M47.8104 24.7949C48.1285 24.8125 48.171 24.3595 47.8522 24.3419C47.5341 24.324 47.4916 24.777 47.8104 24.7949Z" fill="white"/>
<path d="M49.2216 23.8623C49.5397 23.88 49.5822 23.427 49.2634 23.4094C48.9453 23.3915 48.9028 23.8445 49.2216 23.8623Z" fill="white"/>
<path d="M61.8306 24.5524L59.0774 2.66227L52.4453 3.50249L55.0454 24.1742L61.8306 24.5524Z" fill="#EDB6C6"/>
<path d="M53.9188 7.41219C53.9157 7.4458 53.9126 7.4794 53.9094 7.51271C53.8825 7.80415 54.377 7.83221 54.4038 7.5402C54.4069 7.50659 54.41 7.47299 54.4131 7.43939C54.44 7.14824 53.9456 7.12018 53.9188 7.41219Z" fill="#212542"/>
<path d="M54.2692 9.88465C54.3059 9.88668 54.3425 9.88871 54.3792 9.89074C54.6973 9.90839 54.7398 9.4554 54.4211 9.43782C54.3844 9.43579 54.3477 9.43376 54.3111 9.43173C53.9929 9.41379 53.9504 9.86679 54.2692 9.88465Z" fill="#212542"/>
<path d="M60.8103 22.688C61.1284 22.7057 61.1709 22.2527 60.8522 22.2351C60.534 22.2172 60.4915 22.6702 60.8103 22.688Z" fill="#212542"/>
<path d="M59.2143 13.6996C59.5324 13.7173 59.5749 13.2643 59.2562 13.2467C58.9381 13.2288 58.8956 13.6818 59.2143 13.6996Z" fill="white"/>
<path d="M53.236 23.9827C54.8705 23.9314 56.495 23.9893 58.117 24.0738C59.7379 24.1694 61.3563 24.292 62.9647 24.5249C61.33 24.577 59.7054 24.5189 58.0837 24.4337C56.463 24.3378 54.8446 24.2149 53.236 23.9827Z" fill="white"/>
<path d="M79.7056 44.2488L72.8969 44.0095L72.8534 16.0466L79.6624 16.286L79.7056 44.2488Z" fill="url(#paint1_linear_29_1780)"/>
<path d="M77.8109 16.2142L74.8592 16.1105L74.9035 44.0731L77.8553 44.1767L77.8109 16.2142Z" fill="white"/>
<path d="M72.8534 16.0464C72.8534 16.0464 76.6622 18.2372 79.6624 16.2859C79.6624 16.2859 76.2718 14.4523 72.8534 16.0464Z" fill="#212542"/>
<path d="M93.5693 39.8385C92.8807 39.6479 91.9394 39.3916 90.7945 39.092C86.6395 37.9604 82.464 37.0788 78.6362 36.3979C74.8092 35.691 70.5959 35.0524 66.3133 34.6545C65.4784 34.5689 64.7446 34.4984 64.1404 34.4416C63.5458 33.1688 64.3574 31.5128 65.7903 31.1866C66.8261 30.9499 68.0536 31.3072 68.9338 30.7658C69.9936 30.1121 69.9908 28.4829 71.1204 27.944C72.0679 27.4906 73.2415 28.0619 74.3236 28.0145C76.4636 27.9155 77.9473 25.4104 80.0641 25.8269C81.4942 26.1058 82.3313 27.6134 83.712 28.0775C84.8264 28.4507 86.2528 28.1398 87.048 28.9651C87.8758 29.8291 87.3386 31.3179 88.1627 32.1846C88.8801 32.9431 90.3537 32.9009 90.84 33.8019C91.017 34.1267 91.0107 34.5009 91.0977 34.8522C91.2656 35.5473 91.7804 36.131 92.2962 36.6688C92.812 37.2065 93.3585 37.7499 93.6154 38.425C93.7912 38.8851 93.7891 39.4242 93.5693 39.8385Z" fill="url(#paint2_linear_29_1780)"/>
<path d="M71.4164 35.3839C71.2806 34.9914 71.3654 34.5574 71.556 34.1927C71.7548 33.827 72.0548 33.5209 72.392 33.2631C73.0816 32.7531 73.9045 32.4852 74.5686 32.0416C75.2616 31.633 75.634 30.9229 76.1942 30.3031C76.4713 29.9938 76.8308 29.7246 77.2436 29.5775C77.6522 29.4333 78.1534 29.4192 78.5299 29.6492C78.1208 29.4892 77.6755 29.5455 77.3168 29.7242C76.9465 29.8923 76.6464 30.1506 76.4076 30.4636C76.1663 30.7747 75.9494 31.1101 75.7022 31.4408C75.456 31.77 75.1389 32.0778 74.778 32.3098C74.0553 32.7769 73.2357 33.0344 72.5594 33.464C72.2243 33.6812 71.9214 33.9495 71.7065 34.2739C71.4803 34.5912 71.3606 34.9806 71.4164 35.3839Z" fill="white"/>
<path d="M81.5626 29.4305C82.1058 29.4505 82.6203 29.7361 83.0152 30.0961C83.4092 30.4652 83.7073 30.9133 83.9393 31.3775C84.4006 32.298 84.6796 33.2882 85.4058 33.99C86.1164 34.7062 87.1202 35.1475 87.9557 35.8386C88.3688 36.1901 88.7243 36.6051 88.9539 37.0788C89.1745 37.5491 89.2462 38.1056 89.0165 38.5558C89.1676 38.0795 89.0563 37.569 88.7996 37.1432C88.5535 36.7102 88.1934 36.3342 87.7848 36.0259C86.9588 35.4116 85.9418 34.9812 85.1537 34.2068C84.7622 33.8183 84.4834 33.3482 84.2703 32.8786C84.059 32.4058 83.8883 31.9302 83.6939 31.4692C83.5001 31.0115 83.2421 30.5742 82.8927 30.2019C82.5543 29.8252 82.0963 29.5249 81.5626 29.4305Z" fill="white"/>
<path d="M82.1937 34.0488C82.1256 34.4282 82.31 34.7719 82.5511 35.0437C82.7958 35.3162 83.1288 35.5106 83.4771 35.7071C83.8196 35.9077 84.1989 36.1105 84.4908 36.422C84.7786 36.7172 84.994 37.1377 84.8973 37.519C84.8398 37.1349 84.5882 36.8374 84.3003 36.5973C84.0093 36.3581 83.658 36.1837 83.3018 35.9822C82.9538 35.7781 82.5753 35.5432 82.3329 35.1875C82.0925 34.8535 81.9761 34.3841 82.1937 34.0488Z" fill="white"/>
<path d="M89.9765 35.9726C90.4125 36.5747 91.0356 36.9613 91.5572 37.5315C91.8154 37.824 92.02 38.1626 92.107 38.5347C92.1997 38.8982 92.1421 39.3241 91.8661 39.5769C92.0096 39.2463 91.9648 38.9057 91.844 38.5949C91.7189 38.2842 91.5267 37.9913 91.2924 37.7345C91.0565 37.4681 90.7825 37.2166 90.5371 36.9311C90.2911 36.65 90.0635 36.3274 89.9765 35.9726Z" fill="white"/>
<path d="M94.7057 40.8607L93.4579 45.4719L92.8439 45.9365C92.8439 45.9365 91.871 49.0507 91.3572 49.4514C91.3572 49.4514 85.7787 77.1512 83.8153 79.2634C83.8153 79.2634 83.7263 80.3168 83.326 80.5731C83.326 80.5731 77.6113 80.7319 71.3587 79.4076C65.0402 78.4531 59.7207 76.2944 59.7207 76.2944C59.4284 75.9123 59.6906 74.8902 59.6906 74.8902C58.5378 72.2134 62.3852 44.1997 62.3852 44.1997C62.0335 43.6422 62.1407 40.3712 62.1407 40.3712L61.716 39.7184L62.0531 34.9423C62.0802 34.5721 62.4226 34.2985 62.8278 34.3291C63.1586 34.356 63.5985 34.3931 64.1397 34.4417C64.7438 34.4985 65.4776 34.5691 66.3126 34.6547C70.5951 35.0526 74.8084 35.6911 78.6354 36.398C82.4633 37.0786 86.6391 37.9607 90.7937 39.0922C91.9383 39.3917 92.88 39.6481 93.5686 39.8387C93.8035 39.9043 94.0081 39.9612 94.1815 40.0122C94.5732 40.1257 94.8021 40.503 94.7057 40.8607Z" fill="url(#paint3_linear_29_1780)"/>
<path d="M59.6912 74.8907C60.6594 75.2395 61.6346 75.5658 62.6186 75.8643L64.0948 76.3088L65.5808 76.7196C67.5654 77.2533 69.569 77.7152 71.5887 78.0807C72.5949 78.2863 73.6101 78.4347 74.6234 78.5968C75.1311 78.6684 75.6407 78.7244 76.1495 78.7893L76.9128 78.884L77.6778 78.9567L79.2091 79.0994L80.7432 79.1793L81.5111 79.2244L82.2786 79.2354L83.8163 79.2639C81.7756 79.3622 79.7169 79.3851 77.6637 79.206L76.8929 79.1555L76.1246 79.069C75.6127 79.0089 75.0997 78.9572 74.5887 78.89C73.5687 78.7364 72.546 78.5982 71.5327 78.3996C69.507 78.0055 67.4911 77.5457 65.5126 76.9583C63.5342 76.3741 61.5773 75.7095 59.6912 74.8907Z" fill="white"/>
<path d="M85.1684 45.0258C86.4627 45.0509 87.7432 45.1735 89.0217 45.3197C90.2994 45.4757 91.5743 45.6564 92.8443 45.9363C91.5556 45.9125 90.2717 45.7897 88.9907 45.6423C87.711 45.4852 86.4325 45.304 85.1684 45.0258Z" fill="white"/>
<path d="M62.1413 40.3713C63.3907 40.6002 64.6186 40.8868 65.8452 41.1871C67.0695 41.4947 68.2915 41.8114 69.4977 42.2117C68.2368 42.0617 66.9972 41.8004 65.7676 41.501C64.5409 41.1903 63.3202 40.8448 62.1413 40.3713Z" fill="white"/>
<path d="M63.5135 58.4773C63.5213 58.7925 63.54 59.1475 63.7825 59.3968C63.9022 59.5153 64.0793 59.5834 64.2489 59.5762C64.4205 59.5637 64.5744 59.4831 64.7017 59.3812C64.9553 59.1719 65.1309 58.8904 65.2498 58.5947C65.3654 58.2945 65.4866 57.9961 65.5893 57.6914C66.013 56.477 66.3067 55.2217 66.4961 53.9534C66.6859 52.6842 66.7511 51.3977 66.7155 50.1122C66.6984 49.4694 66.6527 48.8267 66.5824 48.1855C66.5097 47.5471 66.4051 46.9096 66.1191 46.3427C65.9755 46.0628 65.7985 45.7896 65.5687 45.5733C65.3482 45.3606 65.041 45.1851 64.8244 45.277C64.6028 45.3644 64.4719 45.6709 64.4174 45.9635C64.3556 46.2741 64.3069 46.5914 64.2636 46.9077C64.0885 48.175 64.008 49.4658 63.8791 50.7479C63.7635 52.0306 63.6675 53.3164 63.605 54.6048C63.5504 55.8941 63.5197 57.1851 63.5135 58.4773Z" fill="white"/>
<path d="M85.0774 62.3928C85.0571 62.5331 85.1429 62.6813 85.2835 62.7423C85.4192 62.8086 85.5961 62.7905 85.6968 62.6904C85.8583 62.4645 85.9785 62.2043 86.1135 61.9593C86.3731 61.4607 86.611 60.9517 86.8328 60.4366C87.2673 59.4022 87.6217 58.339 87.9404 57.2667C88.2579 56.1938 88.5331 55.109 88.8044 54.0226C88.9404 53.4779 89.0966 52.9412 89.1926 52.3979C89.2836 51.8599 89.3738 51.2874 89.2748 50.7844C89.2018 50.5144 89.1299 50.4594 88.871 50.573C88.7792 50.6091 88.7124 50.7003 88.6397 50.8127C88.5697 50.9218 88.5124 51.0462 88.4554 51.1695C88.231 51.6721 88.0894 52.2089 87.87 52.7437C87.4617 53.784 86.9953 54.8055 86.6464 55.8692C86.2846 56.9281 85.9667 58.0026 85.702 59.0907C85.4458 60.1811 85.2386 61.2829 85.0774 62.3928Z" fill="white"/>
<path d="M64.5496 61.9915C64.5922 61.7295 64.5124 61.4494 64.3323 61.2412C64.1523 61.033 63.8867 60.9049 63.6231 60.8778C63.0818 60.8186 62.6232 61.1917 62.5589 61.6305C62.4749 62.0656 62.7831 62.5795 63.3124 62.7136C63.5693 62.7808 63.8616 62.7537 64.0991 62.6206C64.3369 62.4887 64.5036 62.253 64.5496 61.9915Z" fill="white"/>
<path d="M64.1404 34.4419C66.604 34.8258 69.0619 35.2446 71.5185 35.6689L78.8821 36.9809L86.2331 38.3667L89.904 39.0857C91.1255 39.3373 92.3492 39.5774 93.5693 39.8385C92.3369 39.65 91.108 39.4404 89.8773 39.2423L86.191 38.6121L78.8275 37.2995L71.4767 35.9131C69.0286 35.4381 66.5813 34.9576 64.1404 34.4419Z" fill="white"/>
<path d="M60.7685 57.534C60.6836 58.9161 60.5717 60.2942 60.4606 61.6722L60.1154 65.8037C59.984 67.1787 59.8823 68.5568 59.772 69.9337C59.7162 70.6221 59.6683 71.3113 59.6306 72.0012C59.5818 72.6909 59.5625 73.3814 59.5491 74.075C59.422 72.6862 59.4539 71.2949 59.5031 69.9105C59.5577 68.5255 59.6627 67.1452 59.767 65.7655C59.9004 64.3889 60.0271 63.0116 60.1937 61.6395C60.3603 60.2675 60.5401 58.8971 60.7685 57.534Z" fill="white"/>
<path d="M66.7428 73.8105C66.529 75.0743 65.2448 75.8972 63.8744 75.6488C62.5039 75.4004 61.5666 74.1747 61.7804 72.9109C61.9941 71.647 63.2783 70.8242 64.6488 71.0726C66.0193 71.3209 66.9569 72.5467 66.7428 73.8105Z" fill="#212542"/>
<path d="M73.5809 75.0498C73.3671 76.3136 72.0829 77.1364 70.7124 76.8881C69.3419 76.6397 68.4046 75.414 68.6184 74.1501C68.8322 72.8863 70.1163 72.0635 71.4868 72.3118C72.8569 72.5604 73.7946 73.7862 73.5809 75.0498Z" fill="#212542"/>
<path d="M81.9766 76.5715C81.7628 77.8353 80.4786 78.6582 79.1081 78.4098C77.7376 78.1614 76.8003 76.9357 77.0141 75.6719C77.2279 74.408 78.5121 73.5852 79.8826 73.8336C81.253 74.0822 82.1903 75.308 81.9766 76.5715Z" fill="#212542"/>
<path d="M78.2142 72.27C78.0549 73.2105 77.0994 73.8229 76.0796 73.6383C75.0598 73.4533 74.3621 72.5413 74.521 71.6008C74.6802 70.6604 75.6358 70.0479 76.6556 70.2328C77.6758 70.4173 78.3734 71.3296 78.2142 72.27Z" fill="#212542"/>
<path d="M70.3997 69.9486C70.2405 70.889 69.2849 71.5015 68.2651 71.3168C67.2453 71.1319 66.5476 70.2198 66.7065 69.2793C66.8658 68.3389 67.8213 67.7264 68.8411 67.9111C69.8613 68.0961 70.5589 69.0081 70.3997 69.9486Z" fill="#212542"/>
<path d="M65.4604 67.9832C65.3982 68.9368 64.5123 69.6326 63.4821 69.5373C62.4519 69.442 61.6671 68.5914 61.7293 67.6378C61.7915 66.6842 62.6774 65.9883 63.7076 66.0836C64.7381 66.179 65.5227 67.0292 65.4604 67.9832Z" fill="#212542"/>
<path d="M84.8813 71.8322C84.8191 72.7859 83.9332 73.4817 82.9029 73.3864C81.8727 73.2911 81.0879 72.4405 81.1501 71.4869C81.2123 70.5333 82.0982 69.8374 83.1284 69.9327C84.159 70.0281 84.9438 70.8787 84.8813 71.8322Z" fill="#212542"/>
<path d="M80.7818 68.158C80.731 68.9357 80.0088 69.5029 79.169 69.4252C78.3289 69.3474 77.6893 68.6539 77.7401 67.8763C77.7909 67.0986 78.5131 66.5314 79.3529 66.6092C80.1929 66.6873 80.8326 67.3804 80.7818 68.158Z" fill="#212542"/>
<path d="M74.6972 66.4755C75.458 66.837 75.7835 67.6917 75.4239 68.3845C75.0643 69.0773 74.1562 69.3462 73.395 68.9847C72.6342 68.6233 72.3087 67.7689 72.6684 67.0758C73.028 66.383 73.9363 66.1144 74.6972 66.4755Z" fill="#212542"/>
<path d="M69.5572 73.6964C69.5128 73.8096 69.4855 73.9339 69.5151 74.0539C69.5447 74.174 69.6425 74.2879 69.7721 74.3135C69.9159 74.3422 70.0547 74.2592 70.1485 74.1586C70.2424 74.0583 70.3106 73.9366 70.4174 73.8485C70.5743 73.7192 70.7919 73.6771 70.9924 73.6149C71.1925 73.5526 71.4007 73.4482 71.4652 73.2613C71.6428 72.7466 70.7742 72.8349 70.5069 72.9041C70.0804 73.0149 69.7099 73.3073 69.5572 73.6964Z" fill="white"/>
<path d="M77.8435 75.1083C77.7991 75.2215 77.7717 75.3458 77.8014 75.4659C77.831 75.5859 77.9288 75.6999 78.0583 75.7254C78.2021 75.7541 78.3409 75.6712 78.4351 75.5706C78.529 75.4703 78.5972 75.3486 78.7041 75.2602C78.8606 75.1308 79.0786 75.0888 79.2787 75.0265C79.4791 74.9643 79.687 74.8598 79.7516 74.6729C79.9291 74.1582 79.0606 74.2466 78.7932 74.3157C78.3664 74.4264 77.9958 74.7191 77.8435 75.1083Z" fill="white"/>
<path d="M74.9907 71.4047C74.9463 71.5179 74.9189 71.6423 74.9486 71.7623C74.9782 71.8823 75.076 71.9963 75.2055 72.0218C75.3493 72.0505 75.4881 71.9676 75.582 71.867C75.6758 71.7666 75.744 71.6449 75.8513 71.5566C76.0078 71.4273 76.2258 71.3853 76.4259 71.3229C76.6263 71.2607 76.8342 71.1562 76.8989 70.969C77.0763 70.4547 76.2078 70.5427 75.9405 70.6118C75.5135 70.7231 75.1431 71.0155 74.9907 71.4047Z" fill="white"/>
<path d="M81.6299 71.179C81.5854 71.2922 81.5581 71.4165 81.5877 71.5365C81.6174 71.6566 81.7152 71.7705 81.8447 71.7961C81.9885 71.8248 82.1273 71.7418 82.2212 71.6412C82.315 71.5409 82.3832 71.4192 82.4905 71.3309C82.647 71.2015 82.8649 71.1595 83.065 71.0972C83.2655 71.035 83.4733 70.9305 83.5379 70.7436C83.7155 70.2289 82.8469 70.3172 82.5796 70.3864C82.1527 70.4974 81.7825 70.7899 81.6299 71.179Z" fill="white"/>
<path d="M62.5597 72.4698C62.5153 72.583 62.488 72.7074 62.5176 72.8274C62.5473 72.9474 62.6451 73.0614 62.7746 73.0869C62.9184 73.1156 63.0572 73.0327 63.1511 72.9321C63.2449 72.8318 63.3131 72.7101 63.42 72.6216C63.5769 72.4924 63.7945 72.4503 63.9949 72.3881C64.195 72.3258 64.4032 72.2214 64.4678 72.0344C64.6454 71.5198 63.7768 71.6081 63.5094 71.6773C63.0826 71.7883 62.7124 72.081 62.5597 72.4698Z" fill="white"/>
<path d="M62.244 67.3434C62.1996 67.4566 62.1723 67.581 62.2019 67.701C62.2315 67.821 62.3293 67.935 62.4588 67.9605C62.6026 67.9892 62.7414 67.9063 62.8353 67.8057C62.9292 67.7054 62.9974 67.5837 63.1042 67.4955C63.2607 67.3662 63.4787 67.3242 63.6788 67.2619C63.8793 67.1997 64.0871 67.0952 64.1518 66.908C64.3292 66.3936 63.4608 66.4816 63.1934 66.5508C62.7669 66.6619 62.3964 66.9542 62.244 67.3434Z" fill="white"/>
<path d="M67.1465 69.1158C67.1021 69.229 67.0747 69.3533 67.1044 69.4733C67.134 69.5934 67.2318 69.7073 67.3613 69.7329C67.5051 69.7616 67.6439 69.6786 67.7382 69.5781C67.832 69.4778 67.9002 69.3561 68.0071 69.2677C68.1636 69.1383 68.3816 69.0963 68.5817 69.034C68.7821 68.9718 68.99 68.8673 69.0546 68.6804C69.2321 68.1657 68.3636 68.254 68.0962 68.3232C67.6694 68.4342 67.2989 68.7266 67.1465 69.1158Z" fill="white"/>
<path d="M73.012 67.326C72.9798 67.4086 72.9598 67.499 72.9812 67.5864C73.0029 67.6739 73.0741 67.7567 73.1685 67.7754C73.2733 67.7961 73.3745 67.7359 73.443 67.6626C73.5114 67.5894 73.5609 67.501 73.6389 67.4366C73.753 67.3424 73.9117 67.3119 74.0574 67.2664C74.2034 67.2209 74.3549 67.1449 74.4018 67.0089C74.5312 66.6342 73.8983 66.6985 73.7036 66.7489C73.3927 66.8295 73.1229 67.0427 73.012 67.326Z" fill="white"/>
<path d="M78.1187 67.5543C78.0865 67.6369 78.0666 67.7273 78.088 67.8147C78.1097 67.9022 78.1808 67.9849 78.2752 68.004C78.38 68.0247 78.4812 67.9644 78.5497 67.8912C78.6181 67.8179 78.6676 67.7296 78.7456 67.6652C78.8597 67.571 79.0184 67.5405 79.1641 67.4949C79.31 67.4495 79.4616 67.3735 79.5085 67.2375C79.6379 66.8627 79.0051 66.9268 78.8103 66.9774C78.4994 67.0578 78.2297 67.2709 78.1187 67.5543Z" fill="white"/>
<path d="M61.2812 70.812C61.6178 70.7964 61.5716 70.309 61.2347 70.3246C60.8978 70.3402 60.944 70.8276 61.2812 70.812Z" fill="#212542"/>
<path d="M85.3267 69.6171C85.6633 69.6014 85.6171 69.114 85.2802 69.1296C84.9436 69.1453 84.9898 69.6327 85.3267 69.6171Z" fill="#212542"/>
<path d="M85.9953 68.3619C86.3319 68.3462 86.286 67.8589 85.9488 67.8744C85.6122 67.8901 85.6583 68.3778 85.9953 68.3619Z" fill="#212542"/>
<path d="M62.5068 39.0921C62.8434 39.0765 62.7972 38.5891 62.4603 38.6047C62.1237 38.6203 62.1699 39.1077 62.5068 39.0921Z" fill="#212542"/>
<path d="M62.9388 37.1951C63.2754 37.1794 63.2292 36.692 62.8923 36.7076C62.5553 36.7232 62.6015 37.2109 62.9388 37.1951Z" fill="#212542"/>
<path d="M93.434 42.638C93.7706 42.6224 93.7244 42.135 93.3875 42.1506C93.0509 42.1662 93.097 42.6539 93.434 42.638Z" fill="#212542"/>
<path d="M93.2632 40.8508C93.2657 40.878 93.2685 40.9049 93.271 40.932C93.301 41.2457 93.824 41.2217 93.7941 40.9077C93.7917 40.8806 93.7888 40.8537 93.7864 40.8265C93.7564 40.5129 93.233 40.5365 93.2632 40.8508Z" fill="#212542"/>
<path d="M68.1184 32.712C68.455 32.6963 68.4088 32.2089 68.0719 32.2245C67.735 32.2401 67.7811 32.7275 68.1184 32.712Z" fill="#212542"/>
<path d="M69.8027 31.0833C70.1393 31.0676 70.0931 30.5802 69.7562 30.5958C69.4196 30.6115 69.4654 31.0991 69.8027 31.0833Z" fill="#212542"/>
<path d="M86.358 30.072C86.6946 30.0563 86.6488 29.569 86.3115 29.5845C85.9749 29.6002 86.0208 30.0875 86.358 30.072Z" fill="#212542"/>
<path d="M87.1619 32.9726C87.4984 32.9569 87.4523 32.4695 87.1153 32.4851C86.7787 32.5008 86.8246 32.9881 87.1619 32.9726Z" fill="#212542"/>
<path d="M79.703 34.7052C79.7321 34.704 79.761 34.7024 79.7901 34.7012C80.1267 34.6855 80.0805 34.1981 79.7436 34.2137C79.7145 34.2149 79.6856 34.2165 79.6565 34.2177C79.3196 34.2334 79.3657 34.721 79.703 34.7052Z" fill="#212542"/>
<path d="M78.9931 23.6396C79.3297 23.6239 79.2835 23.1365 78.9466 23.1521C78.61 23.1678 78.6558 23.6554 78.9931 23.6396Z" fill="#212542"/>
<path d="M78.9417 21.2755C79.2783 21.2598 79.2321 20.7724 78.8952 20.788C78.5586 20.8037 78.6048 21.2911 78.9417 21.2755Z" fill="#212542"/>
<path d="M60.6396 71.7393C60.9762 71.7236 60.93 71.2362 60.5931 71.2518C60.2565 71.2675 60.3022 71.7551 60.6396 71.7393Z" fill="white"/>
<path d="M62.2545 60.2398C62.5911 60.2242 62.5449 59.7368 62.208 59.7524C61.8714 59.768 61.9176 60.2554 62.2545 60.2398Z" fill="white"/>
<path d="M86.5347 63.9303C86.8713 63.9146 86.8251 63.4272 86.4882 63.4428C86.1516 63.4585 86.1978 63.9459 86.5347 63.9303Z" fill="white"/>
<path d="M90.0432 49.3235C90.3798 49.3078 90.3336 48.8204 89.9966 48.836C89.6601 48.8517 89.7062 49.3394 90.0432 49.3235Z" fill="white"/>
<path d="M63.8171 38.1338C63.8146 38.1066 63.8118 38.0797 63.8093 38.0526C63.7793 37.739 63.2563 37.7629 63.2862 38.0769C63.2886 38.104 63.2915 38.1309 63.2939 38.1581C63.3239 38.4717 63.8473 38.4478 63.8171 38.1338Z" fill="white"/>
<path d="M91.3667 41.1833C91.7033 41.1677 91.6572 40.6803 91.3202 40.6959C90.9833 40.7115 91.0295 41.1989 91.3667 41.1833Z" fill="white"/>
<path d="M70.8278 29.8934C71.1644 29.8777 71.1183 29.3903 70.7813 29.4059C70.4447 29.4216 70.4909 29.909 70.8278 29.8934Z" fill="white"/>
<path d="M77.7831 34.7941C78.1197 34.7785 78.0735 34.2911 77.7366 34.3067C77.4 34.3224 77.4462 34.8098 77.7831 34.7941Z" fill="white"/>
<path d="M84.0174 28.6201C83.9911 28.6486 83.9644 28.6769 83.9381 28.7054C83.7209 28.9385 84.1238 29.266 84.341 29.0329C84.3674 29.0044 84.3941 28.9761 84.4204 28.9476C84.6373 28.7144 84.2347 28.3867 84.0174 28.6201Z" fill="white"/>
<path d="M70.138 79.5369L91.5728 69.0984C91.5728 69.0984 93.0915 81.2616 83.3976 84.0226C73.7036 86.7838 70.138 79.5369 70.138 79.5369Z" fill="url(#paint4_linear_29_1780)"/>
<path d="M89.8665 78.8486C88.6629 81.0904 86.668 83.0917 83.3976 84.0226C73.702 86.7839 70.1396 79.5367 70.1396 79.5367L71.1675 79.0377C72.2795 80.7121 76.1061 85.1912 84.0671 82.9271C86.7922 82.1494 88.6313 80.6312 89.8665 78.8486Z" fill="url(#paint5_linear_29_1780)"/>
<path d="M70.4368 77.2022L94.1653 75.108C94.1653 75.108 91.2781 87.0181 81.2408 86.1336C71.2034 85.2492 70.4368 77.2022 70.4368 77.2022Z" fill="url(#paint6_linear_29_1780)"/>
<path d="M89.1182 83.6105C87.1996 85.2755 84.6265 86.4327 81.2405 86.1336C71.2016 85.2488 70.4382 77.2024 70.4382 77.2024L71.5755 77.1035C72.022 79.066 74.0122 84.6197 82.2541 85.3494C85.0765 85.5965 87.3328 84.8348 89.1182 83.6105Z" fill="url(#paint7_linear_29_1780)"/>
<path d="M76.21 76.6583C77.0212 76.5438 77.8345 76.4547 78.6482 76.3696C79.4616 76.2819 80.2765 76.2124 81.0913 76.1429C81.9065 76.0791 82.722 76.0158 83.5389 75.9704L84.7641 75.9032C85.1733 75.8893 85.5817 75.8675 85.9914 75.8608C85.586 75.9205 85.1793 75.965 84.7733 76.0175L83.5532 76.1497C82.7397 76.2373 81.9249 76.3068 81.1099 76.3758C80.2944 76.4394 79.4792 76.5028 78.6623 76.5479C77.846 76.5959 77.029 76.6399 76.21 76.6583Z" fill="white"/>
<path d="M74.2921 77.8153C74.3173 77.8214 74.3425 77.8276 74.3678 77.8337C74.5867 77.8872 74.6699 77.5455 74.4506 77.492C74.4253 77.4858 74.4001 77.4796 74.3749 77.4735C74.156 77.4197 74.0727 77.7615 74.2921 77.8153Z" fill="#212542"/>
<path d="M75.7415 77.7686C75.9604 77.8221 76.0436 77.4804 75.8243 77.4269C75.6054 77.3731 75.5224 77.7149 75.7415 77.7686Z" fill="#212542"/>
<path d="M75.205 79.3231C75.4238 79.3766 75.5071 79.0348 75.2877 78.9813C75.0689 78.9278 74.9856 79.2695 75.205 79.3231Z" fill="#212542"/>
<path d="M84.3112 75.0489C84.5301 75.1025 84.6133 74.7607 84.394 74.7072C84.1751 74.6537 84.0919 74.9952 84.3112 75.0489Z" fill="#212542"/>
<path d="M83.5172 77.6645C83.7361 77.718 83.8193 77.3763 83.6 77.3228C83.3811 77.269 83.2978 77.6108 83.5172 77.6645Z" fill="white"/>
<path d="M84.0934 78.6682C84.0996 78.6429 84.1057 78.6175 84.1119 78.5922C84.1651 78.3723 83.825 78.2886 83.7717 78.509C83.7655 78.5343 83.7594 78.5597 83.7533 78.5848C83.6998 78.805 84.0399 78.8886 84.0934 78.6682Z" fill="white"/>
<path d="M29.6572 17.1174L24.6304 18.4588L37.2257 59.123L42.2525 57.7816L29.6572 17.1174Z" fill="#212542"/>
<path d="M24.6457 18.4679C24.6457 18.4679 27.5444 19.2647 29.6725 17.1267C29.6725 17.1267 26.7507 16.7242 24.6457 18.4679Z" fill="url(#paint8_linear_29_1780)"/>
<path d="M28.5351 23.7559C28.8621 23.683 28.7571 23.2549 28.4294 23.3276C28.102 23.4005 28.2074 23.8286 28.5351 23.7559Z" fill="white"/>
<path d="M28.3836 20.8528C28.3913 20.8847 28.3993 20.9162 28.4073 20.9481C28.4755 21.2235 28.984 21.1107 28.9158 20.835C28.9077 20.8032 28.9001 20.7716 28.8921 20.7398C28.8238 20.4641 28.3156 20.5768 28.3836 20.8528Z" fill="white"/>
<path d="M29.9306 30.2464C29.923 30.2145 29.915 30.1829 29.907 30.1511C29.8387 29.8757 29.3305 29.9881 29.3985 30.2642C29.4062 30.2961 29.4142 30.3276 29.4222 30.3594C29.4901 30.6352 29.9986 30.5224 29.9306 30.2464Z" fill="white"/>
<path d="M47.8399 33.4749C47.9396 32.6086 48.0384 31.7241 47.8083 30.8913C47.5785 30.0581 46.9569 29.2708 46.0065 29.0063C45.4136 28.8411 44.7504 28.8907 44.1541 28.7341C43.1022 28.4584 42.4215 27.5941 41.4006 27.2515C39.7357 26.6928 37.8151 27.6856 36.5124 28.8314C35.2097 29.9773 34.0752 31.3764 32.3636 31.9907C30.9433 32.5004 29.294 32.3945 27.9631 33.0685C26.2145 33.9539 25.647 36.1942 26.8423 37.4932C34.3697 36.8549 40.7718 36.02 47.8399 33.4749Z" fill="url(#paint9_linear_29_1780)"/>
<path d="M39.7244 27.2687C39.7953 27.9242 40.1571 28.5033 40.6627 28.9454C41.1724 29.386 41.8088 29.7195 42.5065 29.903C43.208 30.0944 43.9608 30.1548 44.7198 30.1618C45.0998 30.1659 45.4831 30.1503 45.8668 30.1252C46.2518 30.1099 46.6364 30.0729 47.0241 30.05C46.2671 30.2219 45.4962 30.345 44.7134 30.389C43.9325 30.4361 43.1366 30.3824 42.3873 30.1854C41.6383 29.9805 40.9575 29.6118 40.4613 29.1014C40.2148 28.8464 40.0113 28.5599 39.8764 28.2486C39.7513 27.9346 39.6853 27.5999 39.7244 27.2687Z" fill="white"/>
<path d="M37.3098 28.2283C37.0506 29.3393 37.1982 30.4642 37.7629 31.4088C38.3267 32.3538 39.293 33.0962 40.4762 33.5348C39.1874 33.3223 38.0552 32.5622 37.4527 31.5538C36.8518 30.5443 36.7816 29.2892 37.3098 28.2283Z" fill="white"/>
<path d="M32.3742 32.1152C32.5933 32.7906 32.9892 33.3706 33.5369 33.8337C34.0817 34.2989 34.7629 34.6348 35.5554 34.8208C35.1355 34.8485 34.7111 34.7781 34.3242 34.6406C33.9349 34.5049 33.5844 34.2983 33.286 34.0479C32.6978 33.5464 32.3171 32.8358 32.3742 32.1152Z" fill="white"/>
<path d="M28.1014 33.2639C28.2904 33.8356 28.5582 34.347 28.9408 34.7983C29.3183 35.2527 29.7958 35.6313 30.3641 35.9644C29.6706 35.8485 29.0665 35.4648 28.6558 34.9781C28.2493 34.4886 28.0155 33.872 28.1014 33.2639Z" fill="white"/>
<path d="M44.3763 32.3776C44.7033 32.3047 44.5983 31.8766 44.2706 31.9493C43.9433 32.0223 44.0487 32.4506 44.3763 32.3776Z" fill="#212542"/>
<path d="M40.9771 32.13C41.3041 32.0571 41.1987 31.629 40.8714 31.7017C40.544 31.7747 40.6494 32.203 40.9771 32.13Z" fill="white"/>
<path d="M54.0729 41.2112C52.6669 39.7537 50.7674 38.9061 50.7674 38.9061C50.4928 36.4528 49.895 34.3894 49.4927 33.2031C49.2771 32.5679 48.5408 32.1894 47.7579 32.3C43.7343 32.8682 40.1293 33.5817 37.1308 34.2737C34.1206 34.9187 30.557 35.8003 26.6868 36.9889C25.934 37.2201 25.4518 37.8696 25.5563 38.5295C25.7514 39.7618 26.1829 41.8622 27.0865 44.1755C27.0865 44.1755 25.7823 45.7361 25.2058 47.6347C24.9346 48.5281 24.9271 49.454 25.1453 50.3363L31.3888 75.5961C31.8339 77.3962 33.3588 78.8657 35.4501 79.3058C36.2442 79.4729 37.1621 79.5229 38.1975 79.3587L41.2821 78.6721L54.217 75.7936L57.3015 75.1071C58.3058 74.8174 59.1044 74.3855 59.7375 73.9006C61.4044 72.624 62.082 70.6647 61.6369 68.8646L55.3934 43.6048C55.175 42.7234 54.7347 41.8971 54.0729 41.2112Z" fill="url(#paint10_linear_29_1780)"/>
<path d="M45.2593 39.3766C46.1394 39.1041 47.0407 38.9298 47.9468 38.7913C48.8539 38.6615 49.7678 38.5677 50.6873 38.5819C49.79 38.7995 48.8903 38.9448 47.9881 39.0819C47.0846 39.2106 46.1806 39.3313 45.2593 39.3766Z" fill="white"/>
<path d="M26.942 43.8658C27.9878 43.4186 29.0747 43.0735 30.1698 42.7572C31.268 42.4506 32.3775 42.175 33.5137 41.9965C32.4456 42.3982 31.3565 42.723 30.2631 43.037C29.1669 43.3436 28.0678 43.6366 26.942 43.8658Z" fill="white"/>
<path d="M44.2144 35.6088C45.1212 35.3139 46.0504 35.1147 46.9859 34.9494C47.9223 34.7931 48.8674 34.6708 49.8214 34.6585C48.8969 34.9015 47.9687 35.0747 47.0364 35.2387C46.1029 35.394 45.168 35.5403 44.2144 35.6088Z" fill="white"/>
<path d="M25.8642 39.9898C26.5831 39.7421 27.3128 39.5249 28.0439 39.3127C28.7738 39.0969 29.5111 38.9033 30.2483 38.71C30.9876 38.5233 31.7269 38.3371 32.4724 38.1727L33.5907 37.9274C33.9663 37.8561 34.339 37.7749 34.7168 37.7121C34.3569 37.8391 33.9919 37.9478 33.6296 38.0662L32.5346 38.3905C31.8046 38.6057 31.0688 38.7994 30.3324 38.992C29.5941 39.1783 28.8558 39.3643 28.1105 39.5281C27.3668 39.6954 26.6209 39.8579 25.8642 39.9898Z" fill="white"/>
<path d="M26.8637 49.2669C26.9551 51.872 27.5408 54.4618 28.8159 56.7781C28.8897 56.9123 28.9721 57.0519 29.1181 57.1316C29.2641 57.2113 29.4932 57.2045 29.5979 57.0774C29.6568 57.0059 29.664 56.9153 29.6693 56.8304C29.8455 53.9347 30.0214 51.0389 30.1976 48.1433C30.254 47.2126 30.1068 45.2877 28.4167 45.7136C26.8408 46.1106 26.8264 48.2102 26.8637 49.2669Z" fill="white"/>
<path d="M54.2713 44.3652C54.3105 44.6838 54.2608 45.0863 53.912 45.2276C53.5899 45.3581 53.2411 45.1724 52.9716 44.9947C51.6677 44.1343 50.3141 43.2194 49.6837 41.91C49.4766 41.4797 49.2161 40.3978 50.0023 40.2009C50.6118 40.0483 51.6481 40.7369 52.075 41.024C53.2743 41.83 54.1078 43.0377 54.2713 44.3652Z" fill="white"/>
<path d="M41.2534 74.4374C41.5814 75.7638 40.5701 77.1234 38.9946 77.4741C37.4195 77.8248 35.8765 77.0336 35.5485 75.7069C35.2205 74.3806 36.2317 73.0209 37.8072 72.6702C39.3827 72.3198 40.9253 73.1108 41.2534 74.4374Z" fill="#212542"/>
<path d="M47.3449 75.6069C48.9418 75.3673 50.0771 74.0779 49.8806 72.7271C49.6842 71.3762 48.2303 70.4753 46.6334 70.715C45.0365 70.9546 43.9012 72.244 44.0976 73.5949C44.2941 74.9457 45.7479 75.8466 47.3449 75.6069Z" fill="#212542"/>
<path d="M59.2209 70.4391C59.5489 71.7654 58.5376 73.1251 56.9622 73.4758C55.3867 73.8265 53.844 73.0353 53.5163 71.7086C53.1884 70.3822 54.1996 69.0225 55.7751 68.6719C57.3503 68.3215 58.8932 69.1127 59.2209 70.4391Z" fill="#212542"/>
<path d="M43.8445 68.038C44.1725 69.3644 43.1612 70.7241 41.5857 71.0745C40.0106 71.4251 38.4676 70.6339 38.1395 69.3073C37.8115 67.9809 38.8228 66.6213 40.3983 66.2706C41.9735 65.9205 43.5165 66.7117 43.8445 68.038Z" fill="#212542"/>
<path d="M53.3775 67.5824C54.2383 66.3859 53.8342 64.8717 52.4749 64.2002C51.1155 63.5288 49.3157 63.9544 48.4548 65.1509C47.594 66.3474 47.9981 67.8616 49.3574 68.533C50.7168 69.2045 52.5166 68.7789 53.3775 67.5824Z" fill="#212542"/>
<path d="M58.5409 62.8604C58.7651 63.7668 58.0741 64.696 56.9973 64.9356C55.9209 65.1753 54.8665 64.6346 54.6423 63.728C54.4182 62.8216 55.1092 61.8924 56.1859 61.6527C57.2623 61.4131 58.3167 61.9537 58.5409 62.8604Z" fill="#212542"/>
<path d="M35.4879 67.9904C35.712 68.8968 35.021 69.8259 33.9443 70.0656C32.8676 70.3053 31.8135 69.7646 31.5893 68.8579C31.3651 67.9515 32.0562 67.0224 33.1329 66.7827C34.2096 66.543 35.2641 67.0839 35.4879 67.9904Z" fill="#212542"/>
<path d="M46.7844 62.5651C47.0085 63.4715 46.3175 64.4007 45.2408 64.6403C44.1641 64.88 43.11 64.3393 42.8858 63.4327C42.6616 62.5263 43.3526 61.5971 44.4294 61.3574C45.5061 61.1181 46.5602 61.6587 46.7844 62.5651Z" fill="#212542"/>
<path d="M36.7392 75.9736C37.23 76.5264 38.1911 76.7101 38.9315 76.4264C39.1071 76.3544 39.2741 76.2312 39.3003 76.094C39.3291 75.9562 39.2055 75.8389 39.0486 75.7611C38.8943 75.6803 38.682 75.6324 38.5055 75.4926C38.3286 75.3472 38.2676 75.1401 38.2408 74.963C38.2145 74.7823 38.2107 74.6092 38.162 74.4583C38.1168 74.3109 38.0172 74.1791 37.8745 74.0854C37.6016 73.9007 37.1356 73.8514 36.8271 74.0459C36.5209 74.2627 36.4197 74.6448 36.4148 74.9869C36.4186 75.3346 36.5072 75.6897 36.7392 75.9736Z" fill="white"/>
<path d="M45.3097 74.2921C45.8004 74.845 46.7615 75.0286 47.5019 74.745C47.6775 74.673 47.8445 74.5497 47.8707 74.4126C47.8996 74.2747 47.7759 74.1575 47.619 74.0797C47.4647 73.9989 47.2524 73.9509 47.0759 73.8111C46.8993 73.6657 46.838 73.4587 46.8112 73.2815C46.7849 73.1008 46.7811 72.9277 46.7324 72.7768C46.6872 72.6294 46.5876 72.4977 46.445 72.4039C46.172 72.2192 45.706 72.17 45.3976 72.3644C45.0914 72.5812 44.9901 72.9633 44.9852 73.3054C44.989 73.6534 45.0776 74.0082 45.3097 74.2921Z" fill="white"/>
<path d="M54.7015 72.3151C55.1923 72.868 56.1534 73.0517 56.8938 72.768C57.0694 72.696 57.2364 72.5727 57.2626 72.4356C57.2915 72.2977 57.1678 72.1805 57.0109 72.1027C56.8566 72.0219 56.6446 71.9739 56.4678 71.8342C56.2909 71.6888 56.2299 71.4817 56.2031 71.3046C56.1768 71.1239 56.173 70.9507 56.1243 70.7999C56.079 70.6522 55.9795 70.5207 55.8369 70.4269C55.5639 70.2422 55.0979 70.193 54.7894 70.3872C54.4832 70.604 54.382 70.9861 54.3771 71.3282C54.3806 71.6765 54.4692 72.0313 54.7015 72.3151Z" fill="white"/>
<path d="M49.1638 67.6369C49.6545 68.1898 50.6156 68.3734 51.3561 68.0898C51.5316 68.0178 51.6986 67.8945 51.7249 67.7573C51.7537 67.6195 51.6301 67.5023 51.4731 67.4245C51.3188 67.3434 51.1065 67.2957 50.93 67.1559C50.7531 67.0105 50.6921 66.8035 50.6653 66.6263C50.639 66.4456 50.6352 66.2725 50.5865 66.1216C50.5412 65.9739 50.4417 65.8424 50.2991 65.7487C50.0261 65.564 49.5601 65.5148 49.2516 65.7089C48.9454 65.9257 48.8442 66.3078 48.8393 66.65C48.8431 66.9982 48.9317 67.353 49.1638 67.6369Z" fill="white"/>
<path d="M39.1806 69.9337C39.6714 70.4866 40.6325 70.6703 41.3729 70.3866C41.5484 70.3146 41.7155 70.1913 41.7417 70.0542C41.7705 69.9163 41.6469 69.7991 41.49 69.7213C41.3357 69.6405 41.1237 69.5925 40.9469 69.4528C40.7703 69.3073 40.709 69.1003 40.6822 68.9231C40.6559 68.7425 40.6521 68.5693 40.6033 68.4184C40.5581 68.2708 40.4585 68.1393 40.3159 68.0455C40.043 67.8608 39.5769 67.8116 39.2685 68.006C38.9623 68.2228 38.8611 68.605 38.8562 68.9471C38.86 69.2951 38.9486 69.6499 39.1806 69.9337Z" fill="white"/>
<path d="M43.5301 63.833C43.8625 64.2098 44.5218 64.3221 45.0084 64.1239C45.1238 64.075 45.2278 63.9902 45.238 63.9109C45.2513 63.8322 45.1781 63.7651 45.0748 63.7152C44.9754 63.6638 44.8277 63.6331 44.6984 63.5322C44.5686 63.4259 44.5254 63.2762 44.5064 63.1545C44.4805 62.8999 44.4705 62.7024 44.2773 62.5781C44.108 62.4571 43.8021 62.418 43.6026 62.5395C43.4005 62.6755 43.3228 62.9324 43.3157 63.1637C43.3147 63.399 43.3735 63.64 43.5301 63.833Z" fill="white"/>
<path d="M55.4636 64.0009C55.796 64.3777 56.4553 64.4901 56.9419 64.2919C57.0572 64.243 57.1613 64.1582 57.1715 64.0789C57.1848 64.0002 57.1116 63.9331 57.0083 63.8831C56.9089 63.8317 56.7612 63.8011 56.6319 63.7002C56.5021 63.5939 56.4589 63.4442 56.4399 63.3224C56.4141 63.0682 56.404 62.8704 56.2108 62.7461C56.0415 62.6251 55.7356 62.586 55.5361 62.7075C55.334 62.8435 55.2563 63.1004 55.2492 63.3317C55.2485 63.567 55.307 63.808 55.4636 64.0009Z" fill="white"/>
<path d="M32.2166 69.2494C32.549 69.6261 33.2083 69.7385 33.6949 69.5403C33.8102 69.4914 33.9143 69.4066 33.9245 69.3273C33.9378 69.2486 33.8646 69.1815 33.7613 69.1315C33.6619 69.0801 33.5142 69.0495 33.3849 68.9486C33.2551 68.8423 33.2119 68.6926 33.1928 68.5708C33.167 68.3163 33.157 68.1188 32.9638 67.9945C32.7945 67.8735 32.4886 67.8344 32.2891 67.9559C32.087 68.0919 32.0093 68.3488 32.0022 68.5801C32.0012 68.8157 32.06 69.0567 32.2166 69.2494Z" fill="white"/>
<path d="M54.2554 47.7476C54.5824 47.6747 54.477 47.2466 54.1496 47.3193C53.8226 47.3922 53.9277 47.8206 54.2554 47.7476Z" fill="#212542"/>
<path d="M54.773 49.8411C55.1 49.7682 54.995 49.3401 54.6673 49.4128C54.3399 49.4857 54.4453 49.9138 54.773 49.8411Z" fill="#212542"/>
<path d="M58.7617 67.4252C59.0887 67.3523 58.9833 66.9242 58.656 66.9969C58.3286 67.0699 58.434 67.4982 58.7617 67.4252Z" fill="#212542"/>
<path d="M30.8272 63.7782C30.8192 63.7464 30.8115 63.7148 30.8035 63.683C30.7353 63.4075 30.2267 63.52 30.295 63.796C30.3027 63.8279 30.3107 63.8594 30.3187 63.8912C30.3866 64.1667 30.8952 64.0542 30.8272 63.7782Z" fill="#212542"/>
<path d="M28.1165 42.3206C28.4436 42.2479 28.3382 41.8196 28.0108 41.8923C27.6835 41.9652 27.7888 42.3933 28.1165 42.3206Z" fill="#212542"/>
<path d="M28.8513 40.9522C29.1783 40.8793 29.0729 40.4512 28.7455 40.5239C28.4182 40.5968 28.5236 41.0252 28.8513 40.9522Z" fill="#212542"/>
<path d="M31.4456 62.0594C31.7726 61.9865 31.6672 61.5582 31.3398 61.6311C31.0125 61.7041 31.1178 62.1321 31.4456 62.0594Z" fill="white"/>
<path d="M53.2934 49.041C53.2857 49.0091 53.2778 48.9776 53.2697 48.9457C53.2015 48.6703 52.6934 48.783 52.7613 49.0588C52.7693 49.0906 52.777 49.1222 52.785 49.154C52.8532 49.4295 53.3617 49.3167 53.2934 49.041Z" fill="white"/>
<path d="M26.8177 38.9954C27.1447 38.9225 27.0393 38.4941 26.712 38.5671C26.385 38.64 26.49 39.0684 26.8177 38.9954Z" fill="white"/>
<path d="M24.506 69.0894C24.506 69.0894 20.0153 71.1622 21.9341 77.4509C22.6537 79.8091 24.4218 80.8269 26.3977 80.9711C31.479 81.3421 35.0381 76.0386 32.9978 71.3481C31.824 68.6489 29.4206 66.4255 24.506 69.0894Z" fill="url(#paint11_linear_29_1780)"/>
<path d="M22.293 75.3456C22.4647 75.3124 22.4136 75.0443 22.2418 75.0774C22.0701 75.1106 22.121 75.3789 22.293 75.3456Z" fill="#212542"/>
<path d="M22.464 76.2395C22.4839 76.2358 22.5035 76.2319 22.5234 76.228C22.6951 76.1947 22.6442 75.9267 22.4721 75.9598C22.4523 75.9635 22.4326 75.9674 22.4128 75.9713C22.2411 76.0045 22.292 76.2728 22.464 76.2395Z" fill="#212542"/>
<path d="M30.3208 69.4082C30.4925 69.3749 30.4416 69.1069 30.2696 69.14C30.0979 69.1732 30.1489 69.4414 30.3208 69.4082Z" fill="#212542"/>
<path d="M26.5354 79.8406C26.7071 79.8073 26.6561 79.5393 26.4842 79.5723C26.3125 79.6056 26.3634 79.8738 26.5354 79.8406Z" fill="#212542"/>
<path d="M28.7513 71.8123C28.923 71.7791 28.8721 71.511 28.7 71.5441C28.5282 71.5773 28.5792 71.8454 28.7513 71.8123Z" fill="white"/>
<path d="M25.1439 70.5982L24.5435 69.7841C24.4339 69.6354 24.4684 69.4142 24.631 69.3271C24.6663 69.3081 24.7067 69.2956 24.752 69.2934C24.9949 69.2816 25.5135 70.3934 25.5135 70.3934L25.1439 70.5982Z" fill="#212542"/>
<path d="M25.4879 69.0316C25.1493 68.4336 25.2402 67.6753 25.5001 67.0388C25.7599 66.4024 26.1709 65.8406 26.4793 65.2265C26.7877 64.6123 26.9933 63.8985 26.8016 63.2381C27.6618 63.5655 28.2192 64.4868 28.2744 65.4094C28.3206 66.1837 27.987 66.9461 27.4893 67.5389C26.9915 68.1318 26.1591 68.6486 25.4879 69.0316Z" fill="url(#paint12_linear_29_1780)"/>
<path d="M24.1643 70.9259C24.3804 70.8622 24.5886 70.7817 24.7926 70.6944C24.9955 70.6047 25.1925 70.5032 25.3794 70.3863C25.5691 70.273 25.7423 70.1356 25.9063 69.9882L26.0269 69.8739L26.1386 69.7506C26.2201 69.6729 26.2755 69.5753 26.3511 69.4898C26.2519 69.6916 26.1323 69.891 25.971 70.0541C25.8144 70.2205 25.6365 70.3684 25.4414 70.4872C25.0528 70.7252 24.6142 70.8855 24.1643 70.9259Z" fill="#212542"/>
<path d="M25.2027 70.0291C25.1771 69.9574 25.1588 69.8824 25.1513 69.8055C25.1459 69.7288 25.1478 69.6511 25.1588 69.5745C25.181 69.4213 25.2301 69.2731 25.2926 69.1324C25.4219 68.8514 25.5934 68.5975 25.758 68.3404C26.0945 67.8309 26.4646 67.3463 26.7681 66.8226C27.0835 66.3074 27.3198 65.7425 27.4039 65.1443C27.4461 64.8467 27.4512 64.542 27.4015 64.2444C27.3533 63.9467 27.2458 63.6583 27.0834 63.4C27.268 63.6434 27.3899 63.933 27.4583 64.2335C27.5208 64.5361 27.5262 64.8487 27.4939 65.1558C27.427 65.7725 27.1811 66.3568 26.8695 66.883C26.5528 67.4095 26.1832 67.8958 25.8326 68.3917C25.6597 68.6409 25.4808 68.8887 25.3445 69.157C25.2078 69.4215 25.1157 69.7308 25.2027 70.0291Z" fill="#212542"/>
<path d="M33.2499 69.7609C33.2499 69.7609 31.0065 70.7271 30.0167 72.2856C30.0167 72.2856 28.1111 72.2055 27.393 74.2593C26.6749 76.3131 26.7627 82.1458 32.1781 82.6399C37.2877 83.106 38.8397 77.846 38.8397 77.846L33.2499 69.7609Z" fill="url(#paint13_linear_29_1780)"/>
<path d="M39.0658 77.2696C38.6852 78.4397 37.9248 79.4809 36.9266 80.1945C35.7398 81.043 34.2162 81.4132 32.7801 81.1652C31.3454 80.9168 30.0199 80.0435 29.2532 78.799C28.4445 77.4843 28.2809 75.8604 28.4046 74.3188C28.4502 73.7443 28.5548 73.1283 28.9616 72.7227C29.3207 72.3638 29.8598 72.2388 30.3648 72.2751C30.6708 72.2974 31.1189 72.4884 31.4397 72.4778C31.6218 72.4734 31.7635 72.4032 31.8172 72.2001C31.8335 72.1357 31.841 72.0579 31.8388 71.9645C31.8214 71.3198 32.0304 70.6983 32.5016 70.2448C33.1168 69.651 34.0309 69.4333 34.8748 69.5565C35.719 69.6806 36.494 70.1154 37.1419 70.6729C38.9781 72.2542 39.8177 74.9609 39.0658 77.2696Z" fill="url(#paint14_linear_29_1780)"/>
<path d="M31.8172 72.2001C31.7635 72.4032 31.622 72.4734 31.4397 72.4778C31.1734 72.264 30.6585 71.8332 30.6081 71.6654C30.54 71.4384 31.1185 71.1084 31.2995 71.301C31.4319 71.4417 31.6891 71.9418 31.8172 72.2001Z" fill="#212542"/>
<path d="M31.903 74.6762C32.0519 75.6139 32.4926 76.5026 33.1476 77.1871C33.5162 77.5721 33.9692 77.9015 34.4915 78.0015C35.0137 78.1015 35.6101 77.929 35.9073 77.486C36.1098 77.1842 36.1531 76.8021 36.1408 76.4383C36.1042 75.3528 35.6056 74.2908 34.795 73.5721C34.4535 73.2694 34.0527 73.0232 33.6093 72.9189C33.1777 72.8174 32.5109 72.8401 32.1749 73.1798C31.8142 73.5448 31.8291 74.211 31.903 74.6762Z" fill="#212542"/>
<path d="M32.5078 74.7326C32.6795 74.6994 32.6287 74.4313 32.4566 74.4644C32.2849 74.4974 32.336 74.7657 32.5078 74.7326Z" fill="white"/>
<path d="M32.9486 73.295C32.8653 73.4889 32.9338 73.7016 33.0574 73.8495C33.175 74.0079 33.3493 74.1004 33.5374 74.1661C33.7254 74.2309 33.9244 74.2816 34.123 74.3615C34.3215 74.4443 34.5044 74.5654 34.6607 74.7138C34.8149 74.8642 34.9457 75.0399 35.0381 75.2352C35.1278 75.4267 35.1972 75.6525 35.1564 75.8772C35.1382 75.9882 35.0918 76.1029 35.0036 76.185C34.9156 76.2661 34.7949 76.3041 34.6817 76.293C34.4561 76.2598 34.2888 76.1197 34.1424 75.9782C34.3115 76.0888 34.4958 76.2062 34.6858 76.2039C34.7775 76.2039 34.8644 76.1667 34.9231 76.1031C34.9813 76.0391 35.0107 75.9508 35.0182 75.8589C35.0326 75.6711 34.9765 75.4856 34.8843 75.3118C34.7964 75.1375 34.6768 74.9794 34.5357 74.8455C34.3965 74.7089 34.2326 74.5994 34.0552 74.5193C33.8772 74.4362 33.678 74.3834 33.4857 74.2953C33.2954 74.2119 33.099 74.088 32.9852 73.9003C32.8719 73.7223 32.825 73.4711 32.9486 73.295Z" fill="white"/>
<path d="M33.3074 75.1343C33.4546 75.135 33.5745 75.1844 33.6879 75.245C33.7987 75.3107 33.903 75.3881 33.9797 75.5143C33.8324 75.5139 33.7125 75.4646 33.5992 75.4036C33.4886 75.3375 33.3845 75.2601 33.3074 75.1343Z" fill="white"/>
<path d="M33.2756 75.8818C33.4311 76.2934 33.6845 76.6355 34.0104 76.8942C34.3353 77.1541 34.7243 77.3245 35.1584 77.3838C34.9424 77.429 34.7123 77.4114 34.4963 77.3484C34.279 77.2866 34.076 77.1768 33.8978 77.0367C33.7217 76.8939 33.5692 76.72 33.4601 76.5216C33.3501 76.3245 33.281 76.1033 33.2756 75.8818Z" fill="white"/>
<path d="M34.7369 74.0615C34.8799 74.144 34.9774 74.2581 35.064 74.3795C35.146 74.5043 35.2169 74.6366 35.2418 74.8006C35.0985 74.7182 35.001 74.6041 34.9147 74.4825C34.833 74.3576 34.7622 74.2252 34.7369 74.0615Z" fill="white"/>
<path d="M28.4677 80.8192C28.2412 80.4562 28.0431 80.075 27.8652 79.6846C27.7724 79.4909 27.695 79.2905 27.6143 79.0914C27.5454 78.8881 27.4634 78.6887 27.4065 78.4811C27.1526 77.6605 27.001 76.7983 27.0375 75.9314C27.0576 75.716 27.0748 75.4995 27.1051 75.2851L27.1732 74.9668C27.1989 74.8616 27.211 74.7525 27.2527 74.6516C27.3288 74.4482 27.3837 74.2371 27.4815 74.0413C27.5767 73.845 27.6871 73.6554 27.8195 73.4822C28.3383 72.7821 29.1376 72.2921 29.9988 72.1763L29.9656 72.197C30.2893 71.7708 30.6568 71.3864 31.0598 71.0408C31.2611 70.8683 31.4734 70.7091 31.6935 70.5623C31.9115 70.4123 32.1453 70.2872 32.3806 70.1687C32.15 70.2968 31.9225 70.4304 31.7113 70.5884C31.4983 70.743 31.2939 70.9092 31.1011 71.0882C30.7131 71.4417 30.3531 71.8319 30.0476 72.255L30.0351 72.2721L30.0142 72.2756C29.5996 72.3463 29.2011 72.4955 28.8421 72.7123C28.4859 72.9332 28.1702 73.2203 27.9229 73.5592C27.7966 73.7268 27.692 73.9099 27.602 74.0989C27.5544 74.1923 27.5205 74.2923 27.4866 74.3924L27.3803 74.6905C27.3388 74.7881 27.3264 74.8943 27.3007 74.9966L27.2318 75.3061C27.2008 75.515 27.1828 75.7265 27.1612 75.9369C27.1234 76.7851 27.2597 77.6359 27.4892 78.4557C27.6041 78.8664 27.7498 79.2683 27.9112 79.6637C28.0732 80.0597 28.2557 80.4473 28.4677 80.8192Z" fill="white"/>
<path d="M29.6815 80.4534C29.6778 80.4335 29.6739 80.4137 29.67 80.3938C29.637 80.2213 29.3701 80.2724 29.4031 80.4453C29.407 80.4652 29.4107 80.485 29.4146 80.5049C29.4476 80.6774 29.7146 80.6263 29.6815 80.4534Z" fill="#212542"/>
<path d="M31.2733 79.8526C31.445 79.8193 31.3939 79.5513 31.2221 79.5843C31.0502 79.6176 31.1013 79.8856 31.2733 79.8526Z" fill="#212542"/>
<path d="M32.4549 80.2422C32.6265 80.2089 32.5755 79.9409 32.4036 79.9739C32.2318 80.0072 32.2828 80.2754 32.4549 80.2422Z" fill="#212542"/>
<path d="M33.8542 70.5179C34.0259 70.4846 33.975 70.2166 33.803 70.2497C33.6311 70.2829 33.6822 70.5512 33.8542 70.5179Z" fill="#212542"/>
<path d="M30.4962 79.2457C30.4924 79.2257 30.4886 79.206 30.4847 79.186C30.4518 79.0135 30.1848 79.0648 30.2177 79.2375C30.2216 79.2574 30.2253 79.2772 30.2292 79.2971C30.2621 79.4697 30.5291 79.4185 30.4962 79.2457Z" fill="white"/>
<path d="M103.304 50.39C102.118 51.327 100.389 51.0077 99.6398 49.6878C98.2715 47.2753 96.8135 43.4605 99.5301 41.2016C102.282 38.9129 103.669 40.9513 104.298 42.6277C104.668 43.614 103.689 44.6795 102.728 44.2689C102.035 43.9719 101.974 43.1039 104.509 40.8166C108.073 37.5991 110.717 44.5341 103.304 50.39Z" stroke="black" stroke-miterlimit="10" stroke-linecap="round" stroke-linejoin="round"/>
<path d="M15.5601 87.65C14.3738 88.587 12.6448 88.2677 11.896 86.9478C10.5277 84.5354 9.06968 80.7205 11.7863 78.4616C14.5384 76.1729 15.9255 78.2113 16.5538 79.8877C16.9238 80.874 15.9449 81.9396 14.9847 81.5289C14.2908 81.2319 14.2306 80.3639 16.7652 78.0766C20.3296 74.8591 22.9733 81.7941 15.5601 87.65Z" stroke="black" stroke-miterlimit="10" stroke-linecap="round" stroke-linejoin="round"/>
<path d="M12.326 43.1863C11.1396 44.1233 9.41065 43.8039 8.66191 42.4841C7.29356 40.0716 5.83555 36.2567 8.55217 33.9978C11.3043 31.7092 12.6913 33.7475 13.3196 35.4239C13.6897 36.4103 12.7107 37.4758 11.7506 37.0652C11.0567 36.7682 10.9964 35.9002 13.5311 33.6129C17.0955 30.3954 19.7391 37.3304 12.326 43.1863Z" stroke="black" stroke-miterlimit="10" stroke-linecap="round" stroke-linejoin="round"/>
<path d="M93.3383 94C101.023 85.8514 104.668 73.9873 102.902 62.8708C102.714 61.6862 102.425 60.4299 101.558 59.6113C100.691 58.7928 99.0639 58.7129 98.4571 59.7439C97.7418 60.959 99.1128 62.5569 100.512 62.5556C101.91 62.5535 103.097 61.555 104.078 60.5463C110.098 54.3535 113.402 45.5527 112.961 36.8811C112.52 28.2095 108.342 19.7977 101.725 14.2617" stroke="black" stroke-width="1.0347" stroke-miterlimit="10" stroke-linecap="round" stroke-linejoin="round"/>
<path d="M101.514 16.8954L101.109 13.8538L104.476 14.6765" stroke="black" stroke-width="1.0347" stroke-miterlimit="10" stroke-linecap="round" stroke-linejoin="round"/>
<path d="M1 36.8608C2.07795 25.2409 8.58445 14.2543 18.2064 7.80643C27.8283 1.35923 40.3709 -0.418657 51.3759 3.10532" stroke="black" stroke-width="1.0347" stroke-miterlimit="10" stroke-linecap="round" stroke-linejoin="round"/>
<path d="M49.6737 1L51.6743 3.17635L49.1096 4.41167" stroke="black" stroke-width="1.0347" stroke-miterlimit="10" stroke-linecap="round" stroke-linejoin="round"/>
<defs>
<linearGradient id="paint0_linear_29_1780" x1="38.5605" y1="44.1298" x2="73.7552" y2="47.3904" gradientUnits="userSpaceOnUse">
<stop offset="0.059" stop-color="#FEC64D"/>
<stop offset="0.6846" stop-color="#FED763"/>
</linearGradient>
<linearGradient id="paint1_linear_29_1780" x1="70.64" y1="29.1253" x2="81.9415" y2="31.0381" gradientUnits="userSpaceOnUse">
<stop offset="0.1769" stop-color="#9CA9E6"/>
<stop offset="0.5051" stop-color="#AEB9EF"/>
</linearGradient>
<linearGradient id="paint2_linear_29_1780" x1="80.176" y1="28.4205" x2="78.7321" y2="36.3849" gradientUnits="userSpaceOnUse">
<stop offset="0.5205" stop-color="#FFC9D8"/>
<stop offset="0.7444" stop-color="#FEC7D6"/>
<stop offset="0.825" stop-color="#FCC0D1"/>
<stop offset="0.8825" stop-color="#F8B5C7"/>
<stop offset="0.9289" stop-color="#F2A4BA"/>
<stop offset="0.9683" stop-color="#EB8EA8"/>
<stop offset="1" stop-color="#E37695"/>
</linearGradient>
<linearGradient id="paint3_linear_29_1780" x1="72.353" y1="73.5107" x2="78.5096" y2="39.5527" gradientUnits="userSpaceOnUse">
<stop offset="0.0846" stop-color="#D65277"/>
<stop offset="0.7" stop-color="#E37695"/>
</linearGradient>
<linearGradient id="paint4_linear_29_1780" x1="71.5622" y1="73.6628" x2="90.461" y2="78.245" gradientUnits="userSpaceOnUse">
<stop offset="0.059" stop-color="#FEC64D"/>
<stop offset="0.6846" stop-color="#FED763"/>
</linearGradient>
<linearGradient id="paint5_linear_29_1780" x1="70.4001" y1="78.4625" x2="88.8741" y2="82.9416" gradientUnits="userSpaceOnUse">
<stop offset="0.1718" stop-color="#FEB063"/>
<stop offset="0.8385" stop-color="#FEC96D"/>
</linearGradient>
<linearGradient id="paint6_linear_29_1780" x1="70.5977" y1="76.5382" x2="92.5292" y2="81.8556" gradientUnits="userSpaceOnUse">
<stop offset="0.059" stop-color="#FEC64D"/>
<stop offset="0.6846" stop-color="#FED763"/>
</linearGradient>
<linearGradient id="paint7_linear_29_1780" x1="69.7382" y1="80.09" x2="88.8484" y2="84.7235" gradientUnits="userSpaceOnUse">
<stop offset="0.1718" stop-color="#FEB063"/>
<stop offset="0.8385" stop-color="#FEC96D"/>
</linearGradient>
<linearGradient id="paint8_linear_29_1780" x1="24.6396" y1="18.4438" x2="29.6895" y2="17.1956" gradientUnits="userSpaceOnUse">
<stop offset="0.1769" stop-color="#9CA9E6"/>
<stop offset="0.5051" stop-color="#AEB9EF"/>
</linearGradient>
<linearGradient id="paint9_linear_29_1780" x1="25.8157" y1="34.556" x2="47.397" y2="29.2216" gradientUnits="userSpaceOnUse">
<stop offset="0.6846" stop-color="#FEE087"/>
<stop offset="0.941" stop-color="#FED763"/>
</linearGradient>
<linearGradient id="paint10_linear_29_1780" x1="45.9843" y1="70.0929" x2="38.6821" y2="37.2781" gradientUnits="userSpaceOnUse">
<stop offset="0.1718" stop-color="#FEB063"/>
<stop offset="0.8385" stop-color="#FEC96D"/>
</linearGradient>
<linearGradient id="paint11_linear_29_1780" x1="21.5894" y1="76.3028" x2="33.4677" y2="72.7367" gradientUnits="userSpaceOnUse">
<stop offset="0.1718" stop-color="#FEB063"/>
<stop offset="0.8385" stop-color="#FEC96D"/>
</linearGradient>
<linearGradient id="paint12_linear_29_1780" x1="24.7075" y1="66.5705" x2="28.3669" y2="65.4719" gradientUnits="userSpaceOnUse">
<stop offset="0.0949" stop-color="#E7F6B1"/>
<stop offset="0.741" stop-color="#BDF6B1"/>
</linearGradient>
<linearGradient id="paint13_linear_29_1780" x1="27.2049" y1="78.1175" x2="37.9524" y2="74.8909" gradientUnits="userSpaceOnUse">
<stop offset="0.1718" stop-color="#FEB063"/>
<stop offset="0.8385" stop-color="#FEC96D"/>
</linearGradient>
<linearGradient id="paint14_linear_29_1780" x1="28.5567" y1="77.0996" x2="39.1415" y2="73.9218" gradientUnits="userSpaceOnUse">
<stop offset="0.6846" stop-color="#FEE087"/>
<stop offset="0.941" stop-color="#FED763"/>
</linearGradient>
</defs>
</svg>
