<svg width="30" height="18" viewBox="0 0 50 34" fill="none" xmlns="http://www.w3.org/2000/svg">
<path d="M25.0007 33.2831C19.3235 33.2831 13.2304 30.5459 7.38017 25.3674C3.0321 21.5186 0.356117 17.7161 0.244398 17.556C-0.080408 17.0912 -0.080408 16.475 0.244398 16.0103C0.356117 15.8502 3.0321 12.0478 7.38036 8.19888C13.2306 3.02045 19.3236 0.283081 25.0008 0.283081C28.7736 0.283081 32.6797 1.45776 36.6104 3.77434C44.3374 8.32831 49.5395 15.6985 49.7572 16.0102C50.1868 16.6251 50.0333 17.4696 49.4145 17.8963C48.7956 18.323 47.9455 18.1709 47.5159 17.5559C47.4663 17.4849 42.4215 10.3507 35.2186 6.10566C31.7146 4.04067 28.277 2.99367 25.0007 2.99367C14.4546 2.99367 5.39149 13.7684 3.06345 16.7823C5.39422 19.7943 14.4726 30.5724 25.0008 30.5724C31.2693 30.5724 36.9964 26.6937 40.697 23.4401C41.2612 22.9442 42.1235 22.9965 42.6225 23.5568C43.1218 24.1173 43.0691 24.9739 42.505 25.4699C36.6917 30.5813 30.6387 33.2831 25.0007 33.2831Z" fill="#79CB60"/>
<path d="M32.2351 9.59536C28.2397 5.62577 21.7616 5.62577 17.7662 9.59536C13.7708 13.5649 13.7708 20.0011 17.7662 23.9707C21.7616 27.9403 28.2397 27.9403 32.2351 23.9707L25.0007 16.7831L32.2351 9.59536Z" fill="#B7EEA6"/>
<path d="M25.0007 28.2978C22.0314 28.2978 19.0623 27.1748 16.8017 24.929C12.2808 20.4373 12.2808 13.1286 16.8017 8.63686C21.3229 4.14509 28.6787 4.14518 33.1999 8.63686C33.7326 9.16614 33.7326 10.0243 33.1999 10.5537L26.9301 16.783L33.1999 23.0123C33.7326 23.5416 33.7326 24.3998 33.1999 24.9291C30.9392 27.1748 27.9701 28.2978 25.0007 28.2978ZM25.0007 7.97758C22.7298 7.97758 20.4596 8.83606 18.7309 10.5538C15.2738 13.9886 15.2738 19.5776 18.7309 23.0124C21.8602 26.1214 26.7658 26.4164 30.2319 23.8972L24.0361 17.7414C23.5034 17.2121 23.5034 16.354 24.0361 15.8246L30.2319 9.66882C28.6806 8.54139 26.8403 7.97758 25.0007 7.97758Z" fill="#79CB60"/>
</svg>
