<svg width="78" height="74" viewBox="0 0 78 82" fill="none" xmlns="http://www.w3.org/2000/svg">
<path d="M53.5435 19.7412C52.8261 13.4052 51.389 -1.64037 42.2497 0.146306C36.9362 1.18413 33.3131 6.05596 30.13 10.1086C26.1878 15.1263 23.9562 18.1477 17.2562 17.0409C13.9015 16.4875 10.5779 16.3378 7.2135 16.7887C-2.31024 18.065 -0.943149 26.9157 3.00603 33.2409C4.89946 36.2694 11.0732 41.6634 8.93813 45.4964C6.85874 49.227 3.98915 52.221 2.19681 56.1952C0.68503 59.5504 0.254678 63.1729 2.12214 66.4219C3.70673 69.1784 7.3703 69.4985 10.1291 69.4121C18.1067 69.1638 26.4178 59.5849 33.0358 67.2874C35.8492 70.5651 49.5248 89.558 55.3605 78.6637C57.6212 74.4459 57.4667 69.4839 56.7465 64.843C55.6067 57.4786 53.2852 52.7975 62.8961 48.2024C66.2777 46.5843 69.2002 44.9978 71.7192 42.1639C81.8314 30.7852 55.1355 26.1409 53.5435 19.7412ZM53.8459 45.6178C51.5731 47.8742 49.6987 50.5203 49.4404 53.8845C49.0054 59.5457 50.8173 64.9487 51.0199 70.6095C51.3895 80.8102 41.1799 67.6462 39.3106 65.2901C34.2239 58.8743 30.5019 55.579 22.4199 58.5778C20.3428 59.3465 5.98414 67.0485 7.252 60.4112C8.25181 55.19 12.9277 51.0935 15.4156 46.631C19.6546 39.0259 8.31673 31.7578 6.01057 25.6395C4.32443 21.1676 20.7824 23.8689 22.0865 24.0053C24.5985 24.2698 27.9193 22.8103 29.5864 20.9353C33.1535 16.9257 35.9772 12.3405 39.7548 8.50411C46.1455 2.0156 47.0564 17.2576 47.4477 20.5122C47.4524 20.5528 47.4668 20.5873 47.4719 20.6265C47.477 20.8579 47.5029 21.0987 47.559 21.3494C49.7112 31.0916 57.3823 30.4976 64.9588 34.7362C72.2163 38.7964 55.7078 43.7688 53.8459 45.6178Z" fill="black"/>
<path d="M46.1214 29.4169C45.225 28.3668 44.6889 26.9933 44.2688 25.6925C43.8245 24.3166 44.0369 22.8854 43.2931 21.62C42.9916 21.1049 42.2668 21.1172 41.9598 21.62C40.4021 24.174 42.2163 28.3276 43.7814 30.5014C44.7353 31.8282 45.9814 32.8731 47.3221 33.7698C48.8004 34.7585 50.4235 34.7722 52.1235 34.9823C52.6234 35.0437 52.8336 34.2188 52.3823 34.011C50.2056 33.0086 47.6888 31.2536 46.1214 29.4169Z" fill="black"/>
<path d="M25.3715 27.3397C23.6422 26.6253 21.8861 26.4284 20.0358 26.4284C18.4396 26.4284 16.6301 26.0865 15.2922 27.1305C15.0358 27.3307 14.9198 27.7061 15.186 27.9653C16.3333 29.0768 17.7871 28.9365 19.2966 28.9455C21.3736 28.9578 23.3663 28.836 25.3715 28.2321C25.8352 28.0923 25.7703 27.5049 25.3715 27.3397Z" fill="black"/>
<path d="M36.5832 52.4226C33.6992 50.1907 29.533 50.9877 26.5187 52.4042C26.0573 52.6219 26.2507 53.2697 26.6467 53.4113C29.5525 54.4491 32.5088 53.0941 35.0979 55.267C37.583 57.3525 38.6992 60.7828 41.4306 62.5142C41.6964 62.6814 42.0154 62.4604 42.0275 62.1653C42.1726 58.5287 39.3489 54.5648 36.5832 52.4226Z" fill="black"/>
<path d="M20.3039 54.2126C19.6495 54.697 19.5239 56.0814 20.5649 56.2339C21.8718 56.4247 23.4995 55.817 23.9971 54.4657C24.0935 54.1975 23.9317 53.8816 23.7072 53.7437C22.7385 53.1502 21.1641 53.5785 20.3039 54.2126Z" fill="black"/>
</svg>
