<svg width="100" height="110" viewBox="0 0 100 110" fill="none" xmlns="http://www.w3.org/2000/svg">
<path d="M2.34731 31.4378L7.58182 29.9587L12.1223 34.4992L2.34731 31.4378Z" fill="#CCE5FF"/>
<path d="M82.4199 76.382L86.9604 80.9225L85.9086 85.9008L82.4199 76.382Z" fill="#CCE5FF"/>
<path d="M85.7583 6.60175L12.4027 54.9885L32.2906 67.7525L5.17661 110L78.248 62.0566L58.3601 49.2926L85.7583 6.60175Z" fill="#CCE5FF"/>
<path d="M3.48735 105.723L31.2789 62.4192L11.2379 49.557L86.3684 0L58.2865 43.7552L78.3292 56.6179L3.48735 105.723ZM12.4828 49.5488L32.2171 62.214L32.0339 62.4998L5.78064 103.405L77.0816 56.6234L57.3484 43.9587L57.5316 43.6729L84.0636 2.33169L12.4828 49.5488Z" fill="black"/>
<path d="M29.7214 66.1033L32.0339 62.4999L32.2171 62.2146L16.6217 52.2053L16.0023 52.6141L31.279 62.4192L29.1497 65.7368L29.7214 66.1033Z" fill="#CCE5FF"/>
<path d="M73.4727 58.9918L12.0471 99.2945L11.1468 100.697L74.0987 59.3934L73.4727 58.9918Z" fill="#CCE5FF"/>
<path d="M79.4682 10.751L78.0686 11.6738L57.5322 43.6735L57.3489 43.9593L60.4893 45.975L60.8558 45.4033L58.2866 43.7547L79.4682 10.751Z" fill="#CCE5FF"/>
<path d="M39.4443 39.9066C39.0674 39.9066 38.7623 40.2121 38.7623 40.5885C38.7623 40.9654 39.0674 41.2705 39.4443 41.2705C39.8212 41.2705 40.1262 40.9649 40.1262 40.5885C40.1262 40.2116 39.8212 39.9066 39.4443 39.9066Z" fill="white"/>
<path d="M33.3056 89.0131C32.9293 89.0131 32.6237 89.3186 32.6237 89.695C32.6237 90.0719 32.9293 90.377 33.3056 90.377C33.6825 90.377 33.9876 90.0714 33.9876 89.695C33.9881 89.3186 33.6825 89.0131 33.3056 89.0131Z" fill="white"/>
<path d="M33.3056 82.875C32.9293 82.875 32.6237 83.1806 32.6237 83.5569C32.6237 83.9333 32.9293 84.2389 33.3056 84.2389C33.6825 84.2389 33.9876 83.9339 33.9876 83.5569C33.9876 83.18 33.6825 82.875 33.3056 82.875Z" fill="white"/>
<path d="M33.3056 76.7363C32.9293 76.7363 32.6237 77.0419 32.6237 77.4182C32.6237 77.7951 32.9293 78.1002 33.3056 78.1002C33.6825 78.1002 33.9876 77.7946 33.9876 77.4182C33.9881 77.0419 33.6825 76.7363 33.3056 76.7363Z" fill="white"/>
<path d="M39.4443 46.0446C39.0674 46.0446 38.7623 46.3502 38.7623 46.7266C38.7623 47.1035 39.0674 47.4085 39.4443 47.4085C39.8212 47.4085 40.1262 47.1029 40.1262 46.7266C40.1262 46.3502 39.8212 46.0446 39.4443 46.0446Z" fill="white"/>
<path d="M39.4443 70.5982C39.0674 70.5982 38.7623 70.9038 38.7623 71.2802C38.7623 71.6571 39.0674 71.9621 39.4443 71.9621C39.8212 71.9621 40.1262 71.6565 40.1262 71.2802C40.1262 70.9038 39.8212 70.5982 39.4443 70.5982Z" fill="white"/>
<path d="M39.4443 64.4595C39.0674 64.4595 38.7623 64.7651 38.7623 65.1414C38.7623 65.5178 39.0674 65.8234 39.4443 65.8234C39.8212 65.8234 40.1262 65.5178 40.1262 65.1414C40.1262 64.7651 39.8212 64.4595 39.4443 64.4595Z" fill="white"/>
<path d="M39.4443 82.875C39.0674 82.875 38.7623 83.1806 38.7623 83.5569C38.7623 83.9333 39.0674 84.2389 39.4443 84.2389C39.8212 84.2389 40.1262 83.9339 40.1262 83.5569C40.1262 83.18 39.8212 82.875 39.4443 82.875Z" fill="white"/>
<path d="M39.4443 52.1833C39.0674 52.1833 38.7623 52.4889 38.7623 52.8653C38.7623 53.2422 39.0674 53.5472 39.4443 53.5472C39.8212 53.5472 40.1262 53.2417 40.1262 52.8653C40.1262 52.4884 39.8212 52.1833 39.4443 52.1833Z" fill="white"/>
<path d="M39.4443 58.3214C39.0674 58.3214 38.7623 58.627 38.7623 59.0034C38.7623 59.3803 39.0674 59.6853 39.4443 59.6853C39.8212 59.6853 40.1262 59.3797 40.1262 59.0034C40.1262 58.627 39.8212 58.3214 39.4443 58.3214Z" fill="white"/>
<path d="M33.3056 46.0446C32.9293 46.0446 32.6237 46.3502 32.6237 46.7266C32.6237 47.1035 32.9293 47.4085 33.3056 47.4085C33.6825 47.4085 33.9876 47.1029 33.9876 46.7266C33.9881 46.3502 33.6825 46.0446 33.3056 46.0446Z" fill="white"/>
<path d="M33.9607 40.7678L33.2134 41.261C33.2442 41.2654 33.2743 41.2704 33.3056 41.2704C33.62 41.2704 33.8817 41.057 33.9607 40.7678Z" fill="white"/>
<path d="M27.1675 82.875C26.7906 82.875 26.4855 83.1806 26.4855 83.5569C26.4855 83.9333 26.7911 84.2389 27.1675 84.2389C27.5439 84.2389 27.8495 83.9339 27.8495 83.5569C27.8495 83.18 27.5444 82.875 27.1675 82.875Z" fill="white"/>
<path d="M27.1675 89.0131C26.7906 89.0131 26.4855 89.3186 26.4855 89.695C26.4855 90.0719 26.7911 90.377 27.1675 90.377C27.5439 90.377 27.8495 90.0714 27.8495 89.695C27.8495 89.3186 27.5444 89.0131 27.1675 89.0131Z" fill="white"/>
<path d="M33.3056 70.5982C32.9293 70.5982 32.6237 70.9038 32.6237 71.2802C32.6237 71.6571 32.9293 71.9621 33.3056 71.9621C33.6825 71.9621 33.9876 71.6565 33.9876 71.2802C33.9881 70.9038 33.6825 70.5982 33.3056 70.5982Z" fill="white"/>
<path d="M33.3056 64.4595C32.9293 64.4595 32.6237 64.7651 32.6237 65.1414C32.6237 65.5178 32.9293 65.8234 33.3056 65.8234C33.6825 65.8234 33.9876 65.5178 33.9876 65.1414C33.9876 64.7651 33.6825 64.4595 33.3056 64.4595Z" fill="white"/>
<path d="M33.3056 58.3214C32.9293 58.3214 32.6237 58.627 32.6237 59.0034C32.6237 59.3803 32.9293 59.6853 33.3056 59.6853C33.6825 59.6853 33.9876 59.3797 33.9876 59.0034C33.9881 58.627 33.6825 58.3214 33.3056 58.3214Z" fill="white"/>
<path d="M33.3056 52.1833C32.9293 52.1833 32.6237 52.4889 32.6237 52.8653C32.6237 53.2422 32.9293 53.5472 33.3056 53.5472C33.6825 53.5472 33.9876 53.2417 33.9876 52.8653C33.9881 52.4884 33.6825 52.1833 33.3056 52.1833Z" fill="white"/>
<path d="M27.1675 76.7363C26.7906 76.7363 26.4855 77.0419 26.4855 77.4182C26.4855 77.7951 26.7911 78.1002 27.1675 78.1002C27.5439 78.1002 27.8495 77.7946 27.8495 77.4182C27.8495 77.0419 27.5444 76.7363 27.1675 76.7363Z" fill="white"/>
<path d="M51.7211 46.0446C51.3447 46.0446 51.0391 46.3502 51.0391 46.7266C51.0391 47.1035 51.3447 47.4085 51.7211 47.4085C52.098 47.4085 52.403 47.1029 52.403 46.7266C52.403 46.3502 52.0974 46.0446 51.7211 46.0446Z" fill="white"/>
<path d="M51.7211 52.1833C51.3447 52.1833 51.0391 52.4889 51.0391 52.8653C51.0391 53.2422 51.3447 53.5472 51.7211 53.5472C52.098 53.5472 52.403 53.2417 52.403 52.8653C52.403 52.4884 52.0974 52.1833 51.7211 52.1833Z" fill="white"/>
<path d="M51.7211 33.7678C51.3447 33.7678 51.0391 34.0734 51.0391 34.4498C51.0391 34.8261 51.3447 35.1317 51.7211 35.1317C52.098 35.1317 52.403 34.8261 52.403 34.4498C52.403 34.0734 52.0974 33.7678 51.7211 33.7678Z" fill="white"/>
<path d="M51.7211 39.9066C51.3447 39.9066 51.0391 40.2121 51.0391 40.5885C51.0391 40.9654 51.3447 41.2705 51.7211 41.2705C52.098 41.2705 52.403 40.9649 52.403 40.5885C52.403 40.2116 52.0974 39.9066 51.7211 39.9066Z" fill="white"/>
<path d="M51.7211 58.3214C51.3447 58.3214 51.0391 58.627 51.0391 59.0034C51.0391 59.3803 51.3447 59.6853 51.7211 59.6853C52.098 59.6853 52.403 59.3797 52.403 59.0034C52.403 58.627 52.0974 58.3214 51.7211 58.3214Z" fill="white"/>
<path d="M8.0712 108.101L9.01485 107.481C8.9342 107.447 8.84532 107.429 8.75205 107.429C8.37898 107.429 8.07668 107.729 8.0712 108.101Z" fill="white"/>
<path d="M51.7211 70.5982C51.3447 70.5982 51.0391 70.9038 51.0391 71.2802C51.0391 71.6571 51.3447 71.9621 51.7211 71.9621C52.098 71.9621 52.403 71.6565 52.403 71.2802C52.403 70.9038 52.0974 70.5982 51.7211 70.5982Z" fill="white"/>
<path d="M51.7211 64.4595C51.3447 64.4595 51.0391 64.7651 51.0391 65.1414C51.0391 65.5178 51.3447 65.8234 51.7211 65.8234C52.098 65.8234 52.403 65.5178 52.403 65.1414C52.403 64.7651 52.0974 64.4595 51.7211 64.4595Z" fill="white"/>
<path d="M51.7211 76.7363C51.3447 76.7363 51.0391 77.0419 51.0391 77.4182C51.0391 77.7951 51.3447 78.1002 51.7211 78.1002C52.098 78.1002 52.403 77.7946 52.403 77.4182C52.403 77.0419 52.0974 76.7363 51.7211 76.7363Z" fill="white"/>
<path d="M45.5824 64.4595C45.2055 64.4595 44.9005 64.7651 44.9005 65.1414C44.9005 65.5178 45.206 65.8234 45.5824 65.8234C45.9593 65.8234 46.2644 65.5178 46.2644 65.1414C46.2644 64.7651 45.9593 64.4595 45.5824 64.4595Z" fill="white"/>
<path d="M45.5824 39.9066C45.2055 39.9066 44.9005 40.2121 44.9005 40.5885C44.9005 40.9654 45.206 41.2705 45.5824 41.2705C45.9593 41.2705 46.2644 40.9649 46.2644 40.5885C46.2649 40.2116 45.9593 39.9066 45.5824 39.9066Z" fill="white"/>
<path d="M45.5824 46.0446C45.2055 46.0446 44.9005 46.3502 44.9005 46.7266C44.9005 47.1035 45.206 47.4085 45.5824 47.4085C45.9593 47.4085 46.2644 47.1029 46.2644 46.7266C46.2649 46.3502 45.9593 46.0446 45.5824 46.0446Z" fill="white"/>
<path d="M45.5824 33.7678C45.2055 33.7678 44.9005 34.0734 44.9005 34.4498C44.9005 34.8261 45.206 35.1317 45.5824 35.1317C45.9593 35.1317 46.2644 34.8261 46.2644 34.4498C46.2644 34.0734 45.9593 33.7678 45.5824 33.7678Z" fill="white"/>
<path d="M45.5824 52.1833C45.2055 52.1833 44.9005 52.4889 44.9005 52.8653C44.9005 53.2422 45.206 53.5472 45.5824 53.5472C45.9593 53.5472 46.2644 53.2417 46.2644 52.8653C46.2649 52.4884 45.9593 52.1833 45.5824 52.1833Z" fill="white"/>
<path d="M45.5824 76.7363C45.2055 76.7363 44.9005 77.0419 44.9005 77.4182C44.9005 77.7951 45.206 78.1002 45.5824 78.1002C45.9593 78.1002 46.2644 77.7946 46.2644 77.4182C46.2649 77.0419 45.9593 76.7363 45.5824 76.7363Z" fill="white"/>
<path d="M45.5824 70.5982C45.2055 70.5982 44.9005 70.9038 44.9005 71.2802C44.9005 71.6571 45.206 71.9621 45.5824 71.9621C45.9593 71.9621 46.2644 71.6565 46.2644 71.2802C46.2649 70.9038 45.9593 70.5982 45.5824 70.5982Z" fill="white"/>
<path d="M39.4443 76.7363C39.0674 76.7363 38.7623 77.0419 38.7623 77.4182C38.7623 77.7951 39.0674 78.1002 39.4443 78.1002C39.8212 78.1002 40.1262 77.7946 40.1262 77.4182C40.1262 77.0419 39.8212 76.7363 39.4443 76.7363Z" fill="white"/>
<path d="M45.5824 58.3214C45.2055 58.3214 44.9005 58.627 44.9005 59.0034C44.9005 59.3803 45.206 59.6853 45.5824 59.6853C45.9593 59.6853 46.2644 59.3797 46.2644 59.0034C46.2649 58.627 45.9593 58.3214 45.5824 58.3214Z" fill="white"/>
<path d="M63.9978 70.5982C63.6209 70.5982 63.3159 70.9038 63.3159 71.2802C63.3159 71.4563 63.3845 71.6154 63.4942 71.7366L64.6178 70.9993C64.5108 70.7633 64.2738 70.5982 63.9978 70.5982Z" fill="white"/>
<path d="M57.8592 53.5472C58.2361 53.5472 58.5411 53.2417 58.5411 52.8653C58.5411 52.4884 58.2355 52.1833 57.8592 52.1833C57.4828 52.1833 57.1772 52.4889 57.1772 52.8653C57.1772 53.2417 57.4828 53.5472 57.8592 53.5472Z" fill="white"/>
<path d="M57.8592 41.2705C58.2361 41.2705 58.5411 40.9649 58.5411 40.5885C58.5411 40.2116 58.2355 39.9066 57.8592 39.9066C57.4828 39.9066 57.1772 40.2121 57.1772 40.5885C57.1772 40.9649 57.4828 41.2705 57.8592 41.2705Z" fill="white"/>
<path d="M57.8592 47.4091C58.2361 47.4091 58.5411 47.1035 58.5411 46.7271C58.5411 46.3502 58.2355 46.0452 57.8592 46.0452C57.4828 46.0452 57.1772 46.3508 57.1772 46.7271C57.1772 47.1035 57.4828 47.4091 57.8592 47.4091Z" fill="white"/>
<path d="M57.8592 59.6853C58.2361 59.6853 58.5411 59.3797 58.5411 59.0034C58.5411 58.627 58.2355 58.3214 57.8592 58.3214C57.4828 58.3214 57.1772 58.627 57.1772 59.0034C57.1772 59.3803 57.4828 59.6853 57.8592 59.6853Z" fill="white"/>
<path d="M63.9978 28.9937C64.3747 28.9937 64.6798 28.6881 64.6798 28.3117C64.6798 27.9348 64.3742 27.6298 63.9978 27.6298C63.6209 27.6298 63.3159 27.9353 63.3159 28.3117C63.3159 28.6881 63.6209 28.9937 63.9978 28.9937Z" fill="white"/>
<path d="M63.9978 22.8555C64.3747 22.8555 64.6798 22.55 64.6798 22.1736C64.6798 21.7967 64.3742 21.4916 63.9978 21.4916C63.6209 21.4916 63.3159 21.7972 63.3159 22.1736C63.3159 22.55 63.6209 22.8555 63.9978 22.8555Z" fill="white"/>
<path d="M63.9978 35.1323C64.3747 35.1323 64.6798 34.8267 64.6798 34.4503C64.6798 34.074 64.3742 33.7684 63.9978 33.7684C63.6209 33.7684 63.3159 34.074 63.3159 34.4503C63.3159 34.8267 63.6209 35.1323 63.9978 35.1323Z" fill="white"/>
<path d="M57.8592 28.9937C58.2361 28.9937 58.5411 28.6881 58.5411 28.3117C58.5411 27.9348 58.2355 27.6298 57.8592 27.6298C57.4828 27.6298 57.1772 27.9353 57.1772 28.3117C57.1772 28.6881 57.4828 28.9937 57.8592 28.9937Z" fill="white"/>
<path d="M57.8592 35.1317C58.2358 35.1317 58.5411 34.8264 58.5411 34.4498C58.5411 34.0731 58.2358 33.7678 57.8592 33.7678C57.4825 33.7678 57.1772 34.0731 57.1772 34.4498C57.1772 34.8264 57.4825 35.1317 57.8592 35.1317Z" fill="white"/>
<path d="M57.8592 65.824C58.2358 65.824 58.5411 65.5187 58.5411 65.142C58.5411 64.7654 58.2358 64.4601 57.8592 64.4601C57.4825 64.4601 57.1772 64.7654 57.1772 65.142C57.1772 65.5187 57.4825 65.824 57.8592 65.824Z" fill="white"/>
<path d="M82.4127 9.21436C82.0358 9.21436 81.7308 9.51994 81.7308 9.89631C81.7308 10.2732 82.0364 10.5783 82.4127 10.5783C82.7897 10.5783 83.0947 10.2727 83.0947 9.89631C83.0947 9.51994 82.7897 9.21436 82.4127 9.21436Z" fill="white"/>
<path d="M75.5927 22.173C75.5927 22.2471 75.6075 22.3173 75.6294 22.3842L76.1978 21.4987C75.8577 21.5377 75.5927 21.823 75.5927 22.173Z" fill="white"/>
<path d="M76.2746 16.7168C76.6515 16.7168 76.9566 16.4112 76.9566 16.0349C76.9566 15.6585 76.6515 15.3529 76.2746 15.3529C75.8977 15.3529 75.5927 15.6585 75.5927 16.0349C75.5927 16.4112 75.8977 16.7168 76.2746 16.7168Z" fill="white"/>
<path d="M52.2971 28.6732L51.8275 28.9826C52.0255 28.9514 52.1945 28.8362 52.2971 28.6732Z" fill="white"/>
<path d="M63.3159 52.8653C63.3159 53.2422 63.6215 53.5473 63.9978 53.5473C64.225 53.5473 64.4247 53.4353 64.5487 53.2647L63.4064 52.5317C63.3504 52.6305 63.3159 52.7435 63.3159 52.8653Z" fill="white"/>
<path d="M70.8179 65.142C70.8179 64.7651 70.5123 64.4601 70.136 64.4601C69.7596 64.4601 69.454 64.7657 69.454 65.142C69.454 65.5184 69.7596 65.824 70.136 65.824C70.5123 65.824 70.8179 65.5184 70.8179 65.142Z" fill="white"/>
<path d="M70.136 58.3214C69.759 58.3214 69.454 58.627 69.454 59.0034C69.454 59.3803 69.7596 59.6853 70.136 59.6853C70.5123 59.6853 70.8179 59.3797 70.8179 59.0034C70.8179 58.627 70.5129 58.3214 70.136 58.3214Z" fill="white"/>
<path d="M57.8592 71.9621C58.2361 71.9621 58.5411 71.6565 58.5411 71.2802C58.5411 70.9032 58.2355 70.5982 57.8592 70.5982C57.4828 70.5982 57.1772 70.9038 57.1772 71.2802C57.1772 71.6571 57.4828 71.9621 57.8592 71.9621Z" fill="white"/>
<path d="M27.1675 64.4595C27.1653 64.4595 27.1631 64.46 27.1609 64.46L27.7886 64.8627C27.6821 64.6257 27.4446 64.4595 27.1675 64.4595Z" fill="white"/>
<path d="M21.0294 58.3214C20.6525 58.3214 20.3474 58.627 20.3474 59.0034C20.3474 59.3803 20.653 59.6853 21.0294 59.6853C21.4063 59.6853 21.7113 59.3797 21.7113 59.0034C21.7113 58.627 21.4057 58.3214 21.0294 58.3214Z" fill="white"/>
<path d="M21.0294 52.1833C20.6525 52.1833 20.3474 52.4889 20.3474 52.8653C20.3474 53.2422 20.653 53.5472 21.0294 53.5472C21.4063 53.5472 21.7113 53.2417 21.7113 52.8653C21.7113 52.4884 21.4057 52.1833 21.0294 52.1833Z" fill="white"/>
<path d="M15.5694 52.8992L14.6548 53.5027C14.7289 53.5302 14.8073 53.5472 14.8907 53.5472C15.2556 53.5472 15.5513 53.2597 15.5694 52.8992Z" fill="white"/>
<path d="M63.9978 64.4595C63.6209 64.4595 63.3159 64.7651 63.3159 65.1414C63.3159 65.5178 63.6215 65.8234 63.9978 65.8234C64.3747 65.8234 64.6798 65.5178 64.6798 65.1414C64.6798 64.7651 64.3742 64.4595 63.9978 64.4595Z" fill="white"/>
<path d="M27.1675 47.4091C27.5444 47.4091 27.8495 47.1035 27.8495 46.7271C27.8495 46.3502 27.5439 46.0452 27.1675 46.0452C26.7911 46.0452 26.4855 46.3508 26.4855 46.7271C26.4855 47.1035 26.7906 47.4091 27.1675 47.4091Z" fill="white"/>
<path d="M21.0294 95.1517C20.6525 95.1517 20.3474 95.4573 20.3474 95.8337C20.3474 96.2106 20.653 96.5156 21.0294 96.5156C21.4063 96.5156 21.7113 96.21 21.7113 95.8337C21.7113 95.4573 21.4057 95.1517 21.0294 95.1517Z" fill="white"/>
<path d="M27.1675 53.5472C27.5444 53.5472 27.8495 53.2417 27.8495 52.8653C27.8495 52.4884 27.5439 52.1833 27.1675 52.1833C26.7911 52.1833 26.4855 52.4889 26.4855 52.8653C26.4855 53.2417 26.7906 53.5472 27.1675 53.5472Z" fill="white"/>
<path d="M21.0294 89.0131C20.6525 89.0131 20.3474 89.3186 20.3474 89.695C20.3474 90.0719 20.653 90.377 21.0294 90.377C21.4063 90.377 21.7113 90.0714 21.7113 89.695C21.7113 89.3186 21.4057 89.0131 21.0294 89.0131Z" fill="white"/>
<path d="M27.1675 59.6853C27.5444 59.6853 27.8495 59.3797 27.8495 59.0034C27.8495 58.627 27.5439 58.3214 27.1675 58.3214C26.7911 58.3214 26.4855 58.627 26.4855 59.0034C26.4855 59.3803 26.7906 59.6853 27.1675 59.6853Z" fill="white"/>
<path d="M70.136 28.9937C70.5129 28.9937 70.8179 28.6881 70.8179 28.3117C70.8179 27.9348 70.5123 27.6298 70.136 27.6298C69.7596 27.6298 69.454 27.9353 69.454 28.3117C69.454 28.6881 69.7596 28.9937 70.136 28.9937Z" fill="white"/>
<path d="M14.8907 96.5156C15.2676 96.5156 15.5727 96.21 15.5727 95.8337C15.5727 95.4573 15.2671 95.1517 14.8907 95.1517C14.8178 95.1517 14.7486 95.166 14.6828 95.1874L14.2165 95.9138C14.2571 96.2523 14.5413 96.5156 14.8907 96.5156Z" fill="white"/>
<path d="M63.9978 39.9066C63.6209 39.9066 63.3159 40.2121 63.3159 40.5885C63.3159 40.814 63.4267 41.0121 63.5946 41.136L64.327 39.9949C64.2294 39.94 64.118 39.9066 63.9978 39.9066Z" fill="white"/>
<path d="M63.9978 58.3214C63.6209 58.3214 63.3159 58.627 63.3159 59.0034C63.3159 59.3803 63.6215 59.6853 63.9978 59.6853C64.3747 59.6853 64.6798 59.3797 64.6798 59.0034C64.6798 58.627 64.3742 58.3214 63.9978 58.3214Z" fill="white"/>
<path d="M70.136 22.8555C70.5129 22.8555 70.8179 22.55 70.8179 22.1736C70.8179 21.7967 70.5123 21.4916 70.136 21.4916C69.7596 21.4916 69.454 21.7972 69.454 22.1736C69.454 22.55 69.7596 22.8555 70.136 22.8555Z" fill="white"/>
<path d="M14.8907 101.29C14.5138 101.29 14.2088 101.596 14.2088 101.972C14.2088 102.348 14.5144 102.654 14.8907 102.654C15.2676 102.654 15.5727 102.348 15.5727 101.972C15.5727 101.596 15.2676 101.29 14.8907 101.29Z" fill="white"/>
<path d="M45.5824 82.875C45.2055 82.875 44.9005 83.1806 44.9005 83.5569C44.9005 83.6749 44.9328 83.7835 44.9855 83.8806L46.1168 83.1383C45.9922 82.9792 45.8008 82.875 45.5824 82.875Z" fill="white"/>
<path d="M26.4855 95.8337C26.4855 95.8924 26.4954 95.9489 26.5091 96.0032L27.5845 95.2977C27.4687 95.2077 27.3255 95.1517 27.1675 95.1517C26.7906 95.1517 26.4855 95.4573 26.4855 95.8337Z" fill="white"/>
<path d="M72.4144 94.241L70.4026 92.2292L68.3902 94.241L66.3778 92.2292L64.3654 94.241L62.353 92.2292L60.3406 94.241L58.3288 92.2292L56.5562 94.0012L56.0761 93.5212L58.3288 91.269L60.3406 93.2814L62.353 91.269L64.3654 93.2814L66.3778 91.269L68.3902 93.2814L70.4026 91.269L72.4144 93.2814L74.4268 91.269L76.6795 93.5212L76.1995 94.0012L74.4268 92.2292L72.4144 94.241Z" fill="black"/>
<path d="M95.2239 35.2541L93.2115 33.2417L91.1991 35.2541L89.1867 33.2417L87.1743 35.2541L85.1619 33.2417L83.1501 35.2541L81.1377 33.2417L79.3651 35.0144L78.885 34.5343L81.1377 32.2816L83.1501 34.294L85.1619 32.2816L87.1743 34.294L89.1867 32.2816L91.1991 34.294L93.2115 32.2816L95.2239 34.294L97.2357 32.2816L99.4884 34.5343L99.0084 35.0144L97.2357 33.2417L95.2239 35.2541Z" fill="black"/>
<path d="M13.286 67.7623L11.2736 65.7499L9.26119 67.7623L7.2488 65.7499L5.23641 67.7623L3.22402 65.7499L1.45193 67.522L0.971878 67.0419L3.22402 64.7898L5.23641 66.8022L7.2488 64.7898L9.26119 66.8022L11.2736 64.7898L13.286 66.8022L15.2978 64.7898L17.3107 66.8022L19.0828 65.0301L19.5629 65.5102L17.3107 67.7623L15.2978 65.7499L13.286 67.7623Z" fill="black"/>
<path d="M18.4075 71.0453L16.3951 69.0329L14.3827 71.0453L12.3703 69.0329L10.3579 71.0453L8.34606 69.0329L6.33312 71.0453L4.32128 69.0329L2.54864 70.8056L2.06859 70.3255L4.32128 68.0728L6.33312 70.0852L8.34606 68.0728L10.3579 70.0852L12.3703 68.0728L14.3827 70.0852L16.3951 68.0728L18.4075 70.0852L20.1795 68.3131L20.6596 68.7932L18.4075 71.0453Z" fill="black"/>
<path d="M2.3475 30.3493C2.24985 30.3493 2.15548 30.3071 2.09019 30.2308C2.00406 30.1304 1.98376 29.9894 2.03862 29.8693L4.03016 25.4885C4.06308 25.416 4.12014 25.3579 4.19146 25.3233L8.48727 23.2467C8.60412 23.1902 8.74238 23.205 8.84443 23.2851C8.94647 23.3652 8.9942 23.4958 8.96732 23.6225L7.91504 28.6009C7.88926 28.7243 7.79653 28.823 7.67529 28.8571L2.44077 30.3362C2.40895 30.345 2.37823 30.3493 2.3475 30.3493ZM4.5969 25.8813L2.95923 29.4842L7.29234 28.2596L8.15918 24.1591L4.5969 25.8813Z" fill="black"/>
<path d="M12.1229 33.4107C12.0888 33.4107 12.0548 33.4058 12.0214 33.3954L2.2458 30.334C2.10261 30.289 2.0055 30.1551 2.0077 30.0053C2.00989 29.855 2.11029 29.7244 2.25458 29.6833L7.4891 28.2036C7.6076 28.1702 7.73433 28.2036 7.82157 28.2903L12.3626 32.8308C12.4729 32.9411 12.4937 33.1128 12.4131 33.2467C12.35 33.3504 12.2386 33.4107 12.1229 33.4107ZM3.53619 30.0267L10.9054 32.3343L7.48251 28.9114L3.53619 30.0267Z" fill="black"/>
<path d="M12.1229 33.4107C12.0351 33.4107 11.9479 33.3767 11.8826 33.3114L7.34153 28.7709C7.26033 28.6897 7.22577 28.5729 7.24936 28.461L8.30164 23.4827C8.33291 23.3345 8.45855 23.2254 8.60942 23.2144C8.75646 23.204 8.9002 23.2939 8.95232 23.436L12.4411 32.9548C12.4959 33.1046 12.4394 33.2719 12.305 33.3575C12.2491 33.3932 12.186 33.4107 12.1229 33.4107ZM7.95216 28.4209L11.2741 31.7429L8.72189 24.7785L7.95216 28.4209Z" fill="black"/>
<path d="M83.8167 84.1769C83.7421 84.1769 83.668 84.1522 83.6077 84.1045C83.5056 84.0244 83.4579 83.8938 83.4848 83.7671L84.537 78.7888C84.5634 78.6653 84.6555 78.5666 84.7768 78.5325L90.0113 77.0529C90.1386 77.0172 90.2752 77.0578 90.3613 77.1582C90.4475 77.2586 90.4678 77.3996 90.4129 77.5198L88.4219 81.9006C88.389 81.973 88.3319 82.0312 88.2606 82.0658L83.9648 84.1423C83.9176 84.1659 83.8672 84.1769 83.8167 84.1769ZM85.1586 79.13L84.2918 83.2305L87.8541 81.5083L89.4918 77.9049L85.1586 79.13Z" fill="black"/>
<path d="M84.8691 79.1986C84.7802 79.1986 84.6935 79.1635 84.6288 79.0993L80.0883 74.5588C79.978 74.4485 79.9571 74.2768 80.0378 74.1429C80.119 74.0091 80.2808 73.9482 80.4295 73.9948L90.2051 77.0562C90.3483 77.1012 90.4454 77.235 90.4432 77.3848C90.441 77.5351 90.3406 77.6657 90.1963 77.7068L84.9618 79.1865C84.931 79.1947 84.8998 79.1986 84.8691 79.1986ZM81.5454 75.0553L84.9684 78.4782L88.9147 77.3629L81.5454 75.0553Z" fill="black"/>
<path d="M83.8167 84.177C83.6751 84.177 83.5473 84.0886 83.4979 83.9542L80.0092 74.4354C79.9543 74.2857 80.0108 74.1183 80.1452 74.0327C80.2796 73.9471 80.4557 73.9663 80.5682 74.0788L85.1093 78.6193C85.1905 78.7005 85.225 78.8174 85.2014 78.9293L84.1492 83.9076C84.1179 84.0557 83.9922 84.1649 83.8414 84.1759C83.8331 84.1764 83.8249 84.177 83.8167 84.177ZM81.1767 75.6474L83.7289 82.6117L84.4986 78.9693L81.1767 75.6474Z" fill="black"/>
<path d="M54.7731 10.2359C54.7117 10.2359 54.6502 10.2194 54.5964 10.1859L51.5098 8.30193C51.4089 8.24048 51.3474 8.13076 51.3474 8.01225V3.84209C51.3474 3.71919 51.4138 3.60618 51.5208 3.54583C51.6278 3.48548 51.7589 3.48822 51.8637 3.55241L54.9503 5.43642C55.0513 5.49786 55.1127 5.60759 55.1127 5.7261V9.89626C55.1127 10.0192 55.0463 10.1322 54.9393 10.1925C54.8878 10.2216 54.8302 10.2359 54.7731 10.2359ZM52.0261 7.82243L54.4335 9.29167V5.91702L52.0261 4.44723V7.82243Z" fill="black"/>
<path d="M54.7731 10.2358C54.7161 10.2358 54.6584 10.2216 54.6069 10.1925C54.4999 10.1321 54.4335 10.0191 54.4335 9.89623V5.72607C54.4335 5.60756 54.4949 5.49783 54.5964 5.43639L57.6831 3.55238C57.7873 3.48819 57.919 3.48599 58.026 3.5458C58.1329 3.60615 58.1993 3.71916 58.1993 3.84206V8.01222C58.1993 8.13073 58.1379 8.24045 58.0369 8.3019L54.9503 10.1859C54.896 10.2194 54.8346 10.2358 54.7731 10.2358ZM55.1127 5.91699V9.29164L57.5201 7.8224V4.44775L55.1127 5.91699Z" fill="black"/>
<path d="M54.7731 6.06625C54.7117 6.06625 54.6502 6.04979 54.5964 6.01632L51.5098 4.13232C51.4056 4.06867 51.3436 3.95401 51.3474 3.83166C51.3513 3.70932 51.4204 3.59904 51.5285 3.54199L54.6151 1.91967C54.7139 1.86755 54.8324 1.86755 54.9311 1.91967L58.0177 3.54199C58.1258 3.59904 58.1949 3.70932 58.1988 3.83166C58.2026 3.95401 58.1406 4.06867 58.0364 4.13232L54.9498 6.01632C54.896 6.04924 54.8346 6.06625 54.7731 6.06625ZM52.3745 3.86458L54.7731 5.32834L57.1717 3.86458L54.7731 2.60382L52.3745 3.86458Z" fill="black"/>
<path d="M19.7291 32.229C20.1106 32.229 20.4199 31.9197 20.4199 31.5383C20.4199 31.1568 20.1106 30.8475 19.7291 30.8475C19.3476 30.8475 19.0384 31.1568 19.0384 31.5383C19.0384 31.9197 19.3476 32.229 19.7291 32.229Z" fill="black"/>
<path d="M25.8672 32.229C26.2487 32.229 26.558 31.9197 26.558 31.5383C26.558 31.1568 26.2487 30.8475 25.8672 30.8475C25.4858 30.8475 25.1765 31.1568 25.1765 31.5383C25.1765 31.9197 25.4858 32.229 25.8672 32.229Z" fill="black"/>
<path d="M32.0059 32.229C32.3874 32.229 32.6966 31.9197 32.6966 31.5383C32.6966 31.1568 32.3874 30.8475 32.0059 30.8475C31.6244 30.8475 31.3152 31.1568 31.3152 31.5383C31.3152 31.9197 31.6244 32.229 32.0059 32.229Z" fill="black"/>
<path d="M38.144 32.229C38.5255 32.229 38.8347 31.9197 38.8347 31.5383C38.8347 31.1568 38.5255 30.8475 38.144 30.8475C37.7625 30.8475 37.4533 31.1568 37.4533 31.5383C37.4533 31.9197 37.7625 32.229 38.144 32.229Z" fill="black"/>
<path d="M44.2827 32.229C44.6642 32.229 44.9734 31.9197 44.9734 31.5383C44.9734 31.1568 44.6642 30.8475 44.2827 30.8475C43.9012 30.8475 43.5919 31.1568 43.5919 31.5383C43.5919 31.9197 43.9012 32.229 44.2827 32.229Z" fill="black"/>
<path d="M19.7291 26.0908C20.1106 26.0908 20.4199 25.7816 20.4199 25.4001C20.4199 25.0186 20.1106 24.7094 19.7291 24.7094C19.3476 24.7094 19.0384 25.0186 19.0384 25.4001C19.0384 25.7816 19.3476 26.0908 19.7291 26.0908Z" fill="black"/>
<path d="M25.8672 26.0908C26.2487 26.0908 26.558 25.7816 26.558 25.4001C26.558 25.0186 26.2487 24.7094 25.8672 24.7094C25.4858 24.7094 25.1765 25.0186 25.1765 25.4001C25.1765 25.7816 25.4858 26.0908 25.8672 26.0908Z" fill="black"/>
<path d="M32.0059 26.0908C32.3874 26.0908 32.6966 25.7816 32.6966 25.4001C32.6966 25.0186 32.3874 24.7094 32.0059 24.7094C31.6244 24.7094 31.3152 25.0186 31.3152 25.4001C31.3152 25.7816 31.6244 26.0908 32.0059 26.0908Z" fill="black"/>
<path d="M38.144 26.0908C38.5255 26.0908 38.8347 25.7816 38.8347 25.4001C38.8347 25.0186 38.5255 24.7094 38.144 24.7094C37.7625 24.7094 37.4533 25.0186 37.4533 25.4001C37.4533 25.7816 37.7625 26.0908 38.144 26.0908Z" fill="black"/>
<path d="M44.2827 26.0908C44.6642 26.0908 44.9734 25.7816 44.9734 25.4001C44.9734 25.0186 44.6642 24.7094 44.2827 24.7094C43.9012 24.7094 43.5919 25.0186 43.5919 25.4001C43.5919 25.7816 43.9012 26.0908 44.2827 26.0908Z" fill="black"/>
<path d="M19.7291 19.9521C20.1106 19.9521 20.4199 19.6429 20.4199 19.2614C20.4199 18.8799 20.1106 18.5707 19.7291 18.5707C19.3476 18.5707 19.0384 18.8799 19.0384 19.2614C19.0384 19.6429 19.3476 19.9521 19.7291 19.9521Z" fill="black"/>
<path d="M25.8672 19.9521C26.2487 19.9521 26.558 19.6429 26.558 19.2614C26.558 18.8799 26.2487 18.5707 25.8672 18.5707C25.4858 18.5707 25.1765 18.8799 25.1765 19.2614C25.1765 19.6429 25.4858 19.9521 25.8672 19.9521Z" fill="black"/>
<path d="M32.0059 19.9521C32.3874 19.9521 32.6966 19.6429 32.6966 19.2614C32.6966 18.8799 32.3874 18.5707 32.0059 18.5707C31.6244 18.5707 31.3152 18.8799 31.3152 19.2614C31.3152 19.6429 31.6244 19.9521 32.0059 19.9521Z" fill="black"/>
<path d="M38.144 19.9521C38.5255 19.9521 38.8347 19.6429 38.8347 19.2614C38.8347 18.8799 38.5255 18.5707 38.144 18.5707C37.7625 18.5707 37.4533 18.8799 37.4533 19.2614C37.4533 19.6429 37.7625 19.9521 38.144 19.9521Z" fill="black"/>
<path d="M44.2827 19.9521C44.6642 19.9521 44.9734 19.6429 44.9734 19.2614C44.9734 18.8799 44.6642 18.5707 44.2827 18.5707C43.9012 18.5707 43.5919 18.8799 43.5919 19.2614C43.5919 19.6429 43.9012 19.9521 44.2827 19.9521Z" fill="black"/>
<path d="M15.4514 10.3977V9.17146H16.6771C16.8647 9.17146 17.0167 9.01949 17.0167 8.83186C17.0167 8.64422 16.8647 8.49225 16.6771 8.49225H15.4514V7.26606C15.4514 7.07843 15.2995 6.92645 15.1118 6.92645C14.9242 6.92645 14.7722 7.07843 14.7722 7.26606V8.49225H13.546C13.3584 8.49225 13.2064 8.64422 13.2064 8.83186C13.2064 9.01949 13.3584 9.17146 13.546 9.17146H14.7722V10.3977C14.7722 10.5853 14.9242 10.7373 15.1118 10.7373C15.2995 10.7373 15.4514 10.5847 15.4514 10.3977Z" fill="black"/>
<path d="M87.4607 57.6548V56.4292H88.6864C88.874 56.4292 89.026 56.2772 89.026 56.0895C89.026 55.9019 88.874 55.75 88.6864 55.75H87.4607V54.5243C87.4607 54.3367 87.3087 54.1847 87.1211 54.1847C86.9335 54.1847 86.7815 54.3367 86.7815 54.5243V55.75H85.5559C85.3682 55.75 85.2162 55.9019 85.2162 56.0895C85.2162 56.2772 85.3682 56.4292 85.5559 56.4292H86.7815V57.6548C86.7815 57.8424 86.9335 57.9944 87.1211 57.9944C87.3087 57.9944 87.4607 57.8424 87.4607 57.6548Z" fill="black"/>
<path d="M6.73198 82.1738V80.9482H7.95763C8.14526 80.9482 8.29723 80.7962 8.29723 80.6086C8.29723 80.421 8.14526 80.269 7.95763 80.269H6.73198V79.0433C6.73198 78.8557 6.58001 78.7037 6.39237 78.7037C6.20474 78.7037 6.05277 78.8557 6.05277 79.0433V80.269H4.82712C4.63949 80.269 4.48752 80.421 4.48752 80.6086C4.48752 80.7962 4.63949 80.9482 4.82712 80.9482H6.05332V82.1738C6.05332 82.3615 6.20529 82.5134 6.39292 82.5134C6.58001 82.5134 6.73198 82.3615 6.73198 82.1738Z" fill="black"/>
</svg>
