<svg width="68" height="68" viewBox="0 0 68 68" fill="none" xmlns="http://www.w3.org/2000/svg">
<path d="M37.9807 47.4634C44.9419 40.4899 44.932 29.199 37.9585 22.2377C30.9851 15.2764 19.6942 15.2864 12.7329 22.2598C5.77164 29.2333 5.78154 40.5242 12.755 47.4855C19.7285 54.4467 31.0194 54.4368 37.9807 47.4634ZM16.8704 40.7478C16.4424 40.3205 16.4417 39.6207 16.869 39.1926L20.4118 35.6436C20.8391 35.2155 20.8385 34.5157 20.4105 34.0884L16.8615 30.5456C16.4334 30.1183 16.4328 29.4184 16.8601 28.9904L19.4706 26.3753C19.8979 25.9472 20.5977 25.9466 21.0258 26.3739L24.5748 29.9167C25.0029 30.344 25.7027 30.3434 26.13 29.9154L30.0613 25.9772C30.275 25.7631 30.6249 25.7628 30.8389 25.9765L33.8431 28.9754C34.2711 29.4027 34.2718 30.1025 33.8444 30.5306L30.3016 34.0797C29.8743 34.5077 29.8749 35.2076 30.303 35.6349L33.852 39.1777C34.2801 39.605 34.2807 40.3048 33.8534 40.7329L31.2429 43.3479C30.8156 43.776 30.1157 43.7766 29.6877 43.3493L26.1387 39.8065C25.7106 39.3792 25.0107 39.3798 24.5834 39.8079L21.0406 43.3569C20.6133 43.7849 19.9135 43.7856 19.4854 43.3582L16.8704 40.7478Z" fill="black"/>
<path d="M45.8564 23.6732C45.635 23.8873 45.5692 24.2178 45.686 24.4976L49.0018 32.5236C49.1148 32.7917 49.1151 33.095 49.0026 33.3634L45.7009 41.3951C45.5845 41.6829 45.6509 42.0056 45.8727 42.2192C46.0945 42.4328 46.425 42.4908 46.7048 42.3662L66.3124 33.6281C66.5844 33.5035 66.7592 33.2351 66.7589 32.9396L66.7589 32.9162C66.7586 32.6207 66.5795 32.3487 66.3111 32.2284L46.6883 23.5248C46.4044 23.3967 46.0739 23.4553 45.8564 23.6732Z" fill="black"/>
</svg>
