<svg width="36" height="40" viewBox="0 0 36 40" fill="none" xmlns="http://www.w3.org/2000/svg">
<path fill-rule="evenodd" clip-rule="evenodd" d="M0 14.5946V25.4053C0 30.5018 1.26222e-07 33.0498 1.52812 34.6331C2.9164 36.0713 5.07342 36.2029 9.14497 36.2151C8.92982 34.7164 8.88486 32.9262 8.87356 30.8198C8.86875 29.9242 9.5656 29.1942 10.43 29.1891C11.2944 29.1842 11.9991 29.9062 12.0039 30.8018C12.0166 33.166 12.0759 34.842 12.3014 36.1138C12.5186 37.3393 12.8675 38.0487 13.3756 38.5751C13.9532 39.1736 14.764 39.5638 16.2955 39.7769C17.8719 39.9967 19.9612 40 22.9568 40H25.0437C28.0391 40 30.1284 39.9967 31.7048 39.7769C33.2363 39.5638 34.0471 39.1736 34.6246 38.5751C35.2023 37.9767 35.5788 37.1364 35.7846 35.55C35.9966 33.9169 36 31.7522 36 28.6487V11.3514C36 8.24776 35.9966 6.08318 35.7846 4.45C35.5788 2.86344 35.2023 2.02329 34.6246 1.42489C34.0471 0.826489 33.2363 0.436333 31.7048 0.223022C30.1284 0.00344425 28.0391 0 25.0437 0H22.9568C19.9612 0 17.8719 0.00344425 16.2955 0.223022C14.764 0.436333 13.9532 0.826489 13.3756 1.42489C12.8675 1.95127 12.5186 2.66062 12.3014 3.88616C12.0759 5.15805 12.0166 6.83389 12.0039 9.19822C11.9991 10.0938 11.2944 10.8158 10.43 10.8108C9.5656 10.8058 8.86875 10.0758 8.87356 9.18016C8.88486 7.07382 8.92982 5.28351 9.14497 3.785C5.07342 3.79704 2.9164 3.92864 1.52812 5.367C1.26222e-07 6.9502 0 9.49833 0 14.5946ZM5.15404 21.1467C4.54278 20.5133 4.54278 19.4867 5.15404 18.8533L9.3279 14.529C9.93913 13.8957 10.9302 13.8957 11.5414 14.529C12.1527 15.1623 12.1527 16.1891 11.5414 16.8224L10.0395 18.3784H25.0431C25.9075 18.3784 26.6084 19.1044 26.6084 20C26.6084 20.8956 25.9075 21.6216 25.0431 21.6216H10.0395L11.5414 23.1776C12.1527 23.8109 12.1527 24.8378 11.5414 25.4709C10.9302 26.1042 9.93913 26.1042 9.3279 25.4709L5.15404 21.1467Z" fill="black" fill-opacity="0.71"/>
</svg>
