<svg width="119" height="132" viewBox="0 0 119 132" fill="none" xmlns="http://www.w3.org/2000/svg">
<path d="M2.61972 37.6642L8.89095 35.8922L14.3307 41.3319L2.61972 37.6642Z" fill="#D7F9CC"/>
<path d="M98.551 91.5096L103.991 96.9494L102.731 102.914L98.551 91.5096Z" fill="#D7F9CC"/>
<path d="M102.551 7.90921L14.6666 65.8792L38.4934 81.1711L6.00937 131.786L93.5529 74.3471L69.726 59.0551L102.551 7.90921Z" fill="#79CB60"/>
<path d="M3.98557 126.662L37.2814 74.7815L13.2711 59.372L103.282 0L69.638 52.4211L93.6502 67.8313L3.98557 126.662ZM14.7625 59.3621L38.4054 74.5357L38.1858 74.8782L6.73305 123.885L92.1555 67.8379L68.514 52.6649L68.7335 52.3225L100.52 2.79349L14.7625 59.3621Z" fill="black"/>
<path d="M35.4153 79.1953L38.1858 74.8782L38.4054 74.5364L19.7212 62.5447L18.9791 63.0344L37.2814 74.7816L34.7304 78.7562L35.4153 79.1953Z" fill="#79CB60"/>
<path d="M87.8318 70.6754L14.2407 118.96L13.162 120.641L88.5818 71.1565L87.8318 70.6754Z" fill="#79CB60"/>
<path d="M95.0147 12.8803L93.338 13.9859L68.7342 52.3231L68.5146 52.6656L72.277 55.0805L72.7161 54.3956L69.638 52.4204L95.0147 12.8803Z" fill="#79CB60"/>
<path d="M47.0639 47.8102C46.6123 47.8102 46.2469 48.1763 46.2469 48.6272C46.2469 49.0788 46.6123 49.4442 47.0639 49.4442C47.5154 49.4442 47.8809 49.0781 47.8809 48.6272C47.8809 48.1756 47.5154 47.8102 47.0639 47.8102Z" fill="white"/>
<path d="M39.7094 106.642C39.2585 106.642 38.8924 107.009 38.8924 107.459C38.8924 107.911 39.2585 108.276 39.7094 108.276C40.161 108.276 40.5265 107.91 40.5265 107.459C40.5271 107.009 40.161 106.642 39.7094 106.642Z" fill="white"/>
<path d="M39.7094 99.2887C39.2585 99.2887 38.8924 99.6548 38.8924 100.106C38.8924 100.557 39.2585 100.923 39.7094 100.923C40.161 100.923 40.5265 100.557 40.5265 100.106C40.5265 99.6541 40.161 99.2887 39.7094 99.2887Z" fill="white"/>
<path d="M39.7094 91.9342C39.2585 91.9342 38.8924 92.3003 38.8924 92.7512C38.8924 93.2028 39.2585 93.5682 39.7094 93.5682C40.161 93.5682 40.5265 93.2021 40.5265 92.7512C40.5271 92.3003 40.161 91.9342 39.7094 91.9342Z" fill="white"/>
<path d="M47.0639 55.1639C46.6123 55.1639 46.2469 55.5301 46.2469 55.981C46.2469 56.4325 46.6123 56.798 47.0639 56.798C47.5154 56.798 47.8809 56.4319 47.8809 55.981C47.8809 55.5301 47.5154 55.1639 47.0639 55.1639Z" fill="white"/>
<path d="M47.0639 84.5804C46.6123 84.5804 46.2469 84.9466 46.2469 85.3975C46.2469 85.849 46.6123 86.2145 47.0639 86.2145C47.5154 86.2145 47.8809 85.8484 47.8809 85.3975C47.8809 84.9466 47.5154 84.5804 47.0639 84.5804Z" fill="white"/>
<path d="M47.0639 77.226C46.6123 77.226 46.2469 77.5921 46.2469 78.043C46.2469 78.4939 46.6123 78.86 47.0639 78.86C47.5154 78.86 47.8809 78.4939 47.8809 78.043C47.8809 77.5921 47.5154 77.226 47.0639 77.226Z" fill="white"/>
<path d="M47.0639 99.2887C46.6123 99.2887 46.2469 99.6548 46.2469 100.106C46.2469 100.557 46.6123 100.923 47.0639 100.923C47.5154 100.923 47.8809 100.557 47.8809 100.106C47.8809 99.6541 47.5154 99.2887 47.0639 99.2887Z" fill="white"/>
<path d="M47.0639 62.5184C46.6123 62.5184 46.2469 62.8845 46.2469 63.3354C46.2469 63.787 46.6123 64.1525 47.0639 64.1525C47.5154 64.1525 47.8809 63.7863 47.8809 63.3354C47.8809 62.8839 47.5154 62.5184 47.0639 62.5184Z" fill="white"/>
<path d="M47.0639 69.8722C46.6123 69.8722 46.2469 70.2383 46.2469 70.6892C46.2469 71.1408 46.6123 71.5062 47.0639 71.5062C47.5154 71.5062 47.8809 71.1401 47.8809 70.6892C47.8809 70.2383 47.5154 69.8722 47.0639 69.8722Z" fill="white"/>
<path d="M39.7094 55.1639C39.2585 55.1639 38.8924 55.5301 38.8924 55.981C38.8924 56.4325 39.2585 56.798 39.7094 56.798C40.161 56.798 40.5265 56.4319 40.5265 55.981C40.5271 55.5301 40.161 55.1639 39.7094 55.1639Z" fill="white"/>
<path d="M40.4942 48.8421L39.599 49.433C39.6358 49.4383 39.672 49.4442 39.7094 49.4442C40.0861 49.4442 40.3996 49.1885 40.4942 48.8421Z" fill="white"/>
<path d="M32.3556 99.2887C31.9041 99.2887 31.5386 99.6548 31.5386 100.106C31.5386 100.557 31.9047 100.923 32.3556 100.923C32.8066 100.923 33.1727 100.557 33.1727 100.106C33.1727 99.6541 32.8072 99.2887 32.3556 99.2887Z" fill="white"/>
<path d="M32.3556 106.642C31.9041 106.642 31.5386 107.009 31.5386 107.459C31.5386 107.911 31.9047 108.276 32.3556 108.276C32.8066 108.276 33.1727 107.91 33.1727 107.459C33.1727 107.009 32.8072 106.642 32.3556 106.642Z" fill="white"/>
<path d="M39.7094 84.5804C39.2585 84.5804 38.8924 84.9466 38.8924 85.3975C38.8924 85.849 39.2585 86.2145 39.7094 86.2145C40.161 86.2145 40.5265 85.8484 40.5265 85.3975C40.5271 84.9466 40.161 84.5804 39.7094 84.5804Z" fill="white"/>
<path d="M39.7094 77.226C39.2585 77.226 38.8924 77.5921 38.8924 78.043C38.8924 78.4939 39.2585 78.86 39.7094 78.86C40.161 78.86 40.5265 78.4939 40.5265 78.043C40.5265 77.5921 40.161 77.226 39.7094 77.226Z" fill="white"/>
<path d="M39.7094 69.8722C39.2585 69.8722 38.8924 70.2383 38.8924 70.6892C38.8924 71.1408 39.2585 71.5062 39.7094 71.5062C40.161 71.5062 40.5265 71.1401 40.5265 70.6892C40.5271 70.2383 40.161 69.8722 39.7094 69.8722Z" fill="white"/>
<path d="M39.7094 62.5184C39.2585 62.5184 38.8924 62.8845 38.8924 63.3354C38.8924 63.787 39.2585 64.1525 39.7094 64.1525C40.161 64.1525 40.5265 63.7863 40.5265 63.3354C40.5271 62.8839 40.161 62.5184 39.7094 62.5184Z" fill="white"/>
<path d="M32.3556 91.9342C31.9041 91.9342 31.5386 92.3003 31.5386 92.7512C31.5386 93.2028 31.9047 93.5682 32.3556 93.5682C32.8066 93.5682 33.1727 93.2021 33.1727 92.7512C33.1727 92.3003 32.8072 91.9342 32.3556 91.9342Z" fill="white"/>
<path d="M61.7721 55.1639C61.3212 55.1639 60.9551 55.5301 60.9551 55.981C60.9551 56.4325 61.3212 56.798 61.7721 56.798C62.2237 56.798 62.5891 56.4319 62.5891 55.981C62.5891 55.5301 62.223 55.1639 61.7721 55.1639Z" fill="white"/>
<path d="M61.7721 62.5184C61.3212 62.5184 60.9551 62.8845 60.9551 63.3354C60.9551 63.787 61.3212 64.1525 61.7721 64.1525C62.2237 64.1525 62.5891 63.7863 62.5891 63.3354C62.5891 62.8839 62.223 62.5184 61.7721 62.5184Z" fill="white"/>
<path d="M61.7721 40.4557C61.3212 40.4557 60.9551 40.8218 60.9551 41.2727C60.9551 41.7236 61.3212 42.0897 61.7721 42.0897C62.2237 42.0897 62.5891 41.7236 62.5891 41.2727C62.5891 40.8218 62.223 40.4557 61.7721 40.4557Z" fill="white"/>
<path d="M61.7721 47.8102C61.3212 47.8102 60.9551 48.1763 60.9551 48.6272C60.9551 49.0788 61.3212 49.4442 61.7721 49.4442C62.2237 49.4442 62.5891 49.0781 62.5891 48.6272C62.5891 48.1756 62.223 47.8102 61.7721 47.8102Z" fill="white"/>
<path d="M61.7721 69.8722C61.3212 69.8722 60.9551 70.2383 60.9551 70.6892C60.9551 71.1408 61.3212 71.5062 61.7721 71.5062C62.2237 71.5062 62.5891 71.1401 62.5891 70.6892C62.5891 70.2383 62.223 69.8722 61.7721 69.8722Z" fill="white"/>
<path d="M9.47725 129.51L10.6078 128.768C10.5112 128.728 10.4047 128.705 10.2929 128.705C9.84599 128.705 9.48382 129.065 9.47725 129.51Z" fill="white"/>
<path d="M61.7721 84.5804C61.3212 84.5804 60.9551 84.9466 60.9551 85.3975C60.9551 85.849 61.3212 86.2145 61.7721 86.2145C62.2237 86.2145 62.5891 85.8484 62.5891 85.3975C62.5891 84.9466 62.223 84.5804 61.7721 84.5804Z" fill="white"/>
<path d="M61.7721 77.226C61.3212 77.226 60.9551 77.5921 60.9551 78.043C60.9551 78.4939 61.3212 78.86 61.7721 78.86C62.2237 78.86 62.5891 78.4939 62.5891 78.043C62.5891 77.5921 62.223 77.226 61.7721 77.226Z" fill="white"/>
<path d="M61.7721 91.9342C61.3212 91.9342 60.9551 92.3003 60.9551 92.7512C60.9551 93.2028 61.3212 93.5682 61.7721 93.5682C62.2237 93.5682 62.5891 93.2021 62.5891 92.7512C62.5891 92.3003 62.223 91.9342 61.7721 91.9342Z" fill="white"/>
<path d="M54.4177 77.226C53.9661 77.226 53.6007 77.5921 53.6007 78.043C53.6007 78.4939 53.9668 78.86 54.4177 78.86C54.8693 78.86 55.2347 78.4939 55.2347 78.043C55.2347 77.5921 54.8693 77.226 54.4177 77.226Z" fill="white"/>
<path d="M54.4177 47.8102C53.9661 47.8102 53.6007 48.1763 53.6007 48.6272C53.6007 49.0788 53.9668 49.4442 54.4177 49.4442C54.8693 49.4442 55.2347 49.0781 55.2347 48.6272C55.2354 48.1756 54.8693 47.8102 54.4177 47.8102Z" fill="white"/>
<path d="M54.4177 55.1639C53.9661 55.1639 53.6007 55.5301 53.6007 55.981C53.6007 56.4325 53.9668 56.798 54.4177 56.798C54.8693 56.798 55.2347 56.4319 55.2347 55.981C55.2354 55.5301 54.8693 55.1639 54.4177 55.1639Z" fill="white"/>
<path d="M54.4177 40.4557C53.9661 40.4557 53.6007 40.8218 53.6007 41.2727C53.6007 41.7236 53.9668 42.0897 54.4177 42.0897C54.8693 42.0897 55.2347 41.7236 55.2347 41.2727C55.2347 40.8218 54.8693 40.4557 54.4177 40.4557Z" fill="white"/>
<path d="M54.4177 62.5184C53.9661 62.5184 53.6007 62.8845 53.6007 63.3354C53.6007 63.787 53.9668 64.1525 54.4177 64.1525C54.8693 64.1525 55.2347 63.7863 55.2347 63.3354C55.2354 62.8839 54.8693 62.5184 54.4177 62.5184Z" fill="white"/>
<path d="M54.4177 91.9342C53.9661 91.9342 53.6007 92.3003 53.6007 92.7512C53.6007 93.2028 53.9668 93.5682 54.4177 93.5682C54.8693 93.5682 55.2347 93.2021 55.2347 92.7512C55.2354 92.3003 54.8693 91.9342 54.4177 91.9342Z" fill="white"/>
<path d="M54.4177 84.5804C53.9661 84.5804 53.6007 84.9466 53.6007 85.3975C53.6007 85.849 53.9668 86.2145 54.4177 86.2145C54.8693 86.2145 55.2347 85.8484 55.2347 85.3975C55.2354 84.9466 54.8693 84.5804 54.4177 84.5804Z" fill="white"/>
<path d="M47.0639 91.9342C46.6123 91.9342 46.2469 92.3003 46.2469 92.7512C46.2469 93.2028 46.6123 93.5682 47.0639 93.5682C47.5154 93.5682 47.8809 93.2021 47.8809 92.7512C47.8809 92.3003 47.5154 91.9342 47.0639 91.9342Z" fill="white"/>
<path d="M54.4177 69.8722C53.9661 69.8722 53.6007 70.2383 53.6007 70.6892C53.6007 71.1408 53.9668 71.5062 54.4177 71.5062C54.8693 71.5062 55.2347 71.1401 55.2347 70.6892C55.2354 70.2383 54.8693 69.8722 54.4177 69.8722Z" fill="white"/>
<path d="M76.4804 84.5804C76.0288 84.5804 75.6634 84.9466 75.6634 85.3975C75.6634 85.6084 75.7455 85.7991 75.877 85.9443L77.2231 85.0609C77.0949 84.7783 76.811 84.5804 76.4804 84.5804Z" fill="white"/>
<path d="M69.1259 64.1525C69.5775 64.1525 69.9429 63.7863 69.9429 63.3354C69.9429 62.8839 69.5768 62.5184 69.1259 62.5184C68.675 62.5184 68.3089 62.8845 68.3089 63.3354C68.3089 63.7863 68.675 64.1525 69.1259 64.1525Z" fill="white"/>
<path d="M69.1259 49.4442C69.5775 49.4442 69.9429 49.0781 69.9429 48.6272C69.9429 48.1756 69.5768 47.8102 69.1259 47.8102C68.675 47.8102 68.3089 48.1763 68.3089 48.6272C68.3089 49.0781 68.675 49.4442 69.1259 49.4442Z" fill="white"/>
<path d="M69.1259 56.7986C69.5775 56.7986 69.9429 56.4325 69.9429 55.9816C69.9429 55.5301 69.5768 55.1646 69.1259 55.1646C68.675 55.1646 68.3089 55.5307 68.3089 55.9816C68.3089 56.4325 68.675 56.7986 69.1259 56.7986Z" fill="white"/>
<path d="M69.1259 71.5062C69.5775 71.5062 69.9429 71.1401 69.9429 70.6892C69.9429 70.2383 69.5768 69.8722 69.1259 69.8722C68.675 69.8722 68.3089 70.2383 68.3089 70.6892C68.3089 71.1408 68.675 71.5062 69.1259 71.5062Z" fill="white"/>
<path d="M76.4804 34.736C76.9319 34.736 77.2974 34.3698 77.2974 33.9189C77.2974 33.4674 76.9313 33.1019 76.4804 33.1019C76.0288 33.1019 75.6634 33.468 75.6634 33.9189C75.6634 34.3698 76.0288 34.736 76.4804 34.736Z" fill="white"/>
<path d="M76.4804 27.3821C76.9319 27.3821 77.2974 27.016 77.2974 26.5651C77.2974 26.1136 76.9313 25.7481 76.4804 25.7481C76.0288 25.7481 75.6634 26.1142 75.6634 26.5651C75.6634 27.016 76.0288 27.3821 76.4804 27.3821Z" fill="white"/>
<path d="M76.4804 42.0904C76.9319 42.0904 77.2974 41.7243 77.2974 41.2734C77.2974 40.8225 76.9313 40.4564 76.4804 40.4564C76.0288 40.4564 75.6634 40.8225 75.6634 41.2734C75.6634 41.7243 76.0288 42.0904 76.4804 42.0904Z" fill="white"/>
<path d="M69.1259 34.736C69.5775 34.736 69.9429 34.3698 69.9429 33.9189C69.9429 33.4674 69.5768 33.1019 69.1259 33.1019C68.675 33.1019 68.3089 33.468 68.3089 33.9189C68.3089 34.3698 68.675 34.736 69.1259 34.736Z" fill="white"/>
<path d="M69.1259 42.0897C69.5772 42.0897 69.9429 41.7239 69.9429 41.2727C69.9429 40.8215 69.5772 40.4557 69.1259 40.4557C68.6747 40.4557 68.3089 40.8215 68.3089 41.2727C68.3089 41.7239 68.6747 42.0897 69.1259 42.0897Z" fill="white"/>
<path d="M69.1259 78.8607C69.5772 78.8607 69.9429 78.4949 69.9429 78.0437C69.9429 77.5925 69.5772 77.2267 69.1259 77.2267C68.6747 77.2267 68.3089 77.5925 68.3089 78.0437C68.3089 78.4949 68.6747 78.8607 69.1259 78.8607Z" fill="white"/>
<path d="M98.5424 11.0392C98.0909 11.0392 97.7254 11.4054 97.7254 11.8563C97.7254 12.3078 98.0915 12.6733 98.5424 12.6733C98.994 12.6733 99.3594 12.3072 99.3594 11.8563C99.3594 11.4054 98.994 11.0392 98.5424 11.0392Z" fill="white"/>
<path d="M90.3716 26.5645C90.3716 26.6532 90.3894 26.7373 90.4156 26.8175L91.0966 25.7567C90.6891 25.8033 90.3716 26.1451 90.3716 26.5645Z" fill="white"/>
<path d="M91.1886 20.0277C91.6402 20.0277 92.0056 19.6616 92.0056 19.2107C92.0056 18.7598 91.6402 18.3937 91.1886 18.3937C90.7371 18.3937 90.3716 18.7598 90.3716 19.2107C90.3716 19.6616 90.7371 20.0277 91.1886 20.0277Z" fill="white"/>
<path d="M62.4623 34.3521L61.8996 34.7228C62.1369 34.6854 62.3394 34.5473 62.4623 34.3521Z" fill="white"/>
<path d="M75.6634 63.3354C75.6634 63.787 76.0295 64.1524 76.4804 64.1524C76.7525 64.1524 76.9917 64.0184 77.1403 63.8139L75.7718 62.9358C75.7048 63.0541 75.6634 63.1895 75.6634 63.3354Z" fill="white"/>
<path d="M84.6512 78.0437C84.6512 77.5921 84.2851 77.2267 83.8342 77.2267C83.3833 77.2267 83.0172 77.5928 83.0172 78.0437C83.0172 78.4946 83.3833 78.8607 83.8342 78.8607C84.2851 78.8607 84.6512 78.4946 84.6512 78.0437Z" fill="white"/>
<path d="M83.8342 69.8722C83.3826 69.8722 83.0172 70.2383 83.0172 70.6892C83.0172 71.1408 83.3833 71.5062 83.8342 71.5062C84.2851 71.5062 84.6512 71.1401 84.6512 70.6892C84.6512 70.2383 84.2857 69.8722 83.8342 69.8722Z" fill="white"/>
<path d="M69.1259 86.2145C69.5775 86.2145 69.9429 85.8484 69.9429 85.3975C69.9429 84.9459 69.5768 84.5804 69.1259 84.5804C68.675 84.5804 68.3089 84.9466 68.3089 85.3975C68.3089 85.849 68.675 86.2145 69.1259 86.2145Z" fill="white"/>
<path d="M32.3557 77.226C32.353 77.226 32.3504 77.2266 32.3478 77.2266L33.0997 77.7091C32.9722 77.4251 32.6876 77.226 32.3557 77.226Z" fill="white"/>
<path d="M25.0019 69.8722C24.5503 69.8722 24.1848 70.2383 24.1848 70.6892C24.1848 71.1408 24.551 71.5062 25.0019 71.5062C25.4534 71.5062 25.8189 71.1401 25.8189 70.6892C25.8189 70.2383 25.4528 69.8722 25.0019 69.8722Z" fill="white"/>
<path d="M25.0019 62.5184C24.5503 62.5184 24.1848 62.8845 24.1848 63.3354C24.1848 63.787 24.551 64.1525 25.0019 64.1525C25.4534 64.1525 25.8189 63.7863 25.8189 63.3354C25.8189 62.8839 25.4528 62.5184 25.0019 62.5184Z" fill="white"/>
<path d="M18.4605 63.3762L17.3648 64.0992C17.4535 64.1321 17.5475 64.1524 17.6474 64.1524C18.0845 64.1524 18.4388 63.808 18.4605 63.3762Z" fill="white"/>
<path d="M76.4804 77.226C76.0288 77.226 75.6634 77.5921 75.6634 78.043C75.6634 78.4939 76.0295 78.86 76.4804 78.86C76.9319 78.86 77.2974 78.4939 77.2974 78.043C77.2974 77.5921 76.9313 77.226 76.4804 77.226Z" fill="white"/>
<path d="M32.3556 56.7986C32.8072 56.7986 33.1727 56.4325 33.1727 55.9816C33.1727 55.5301 32.8066 55.1646 32.3556 55.1646C31.9047 55.1646 31.5386 55.5307 31.5386 55.9816C31.5386 56.4325 31.9041 56.7986 32.3556 56.7986Z" fill="white"/>
<path d="M25.0019 113.997C24.5503 113.997 24.1848 114.363 24.1848 114.814C24.1848 115.266 24.551 115.631 25.0019 115.631C25.4534 115.631 25.8189 115.265 25.8189 114.814C25.8189 114.363 25.4528 113.997 25.0019 113.997Z" fill="white"/>
<path d="M32.3556 64.1525C32.8072 64.1525 33.1727 63.7863 33.1727 63.3354C33.1727 62.8839 32.8066 62.5184 32.3556 62.5184C31.9047 62.5184 31.5386 62.8845 31.5386 63.3354C31.5386 63.7863 31.9041 64.1525 32.3556 64.1525Z" fill="white"/>
<path d="M25.0019 106.642C24.5503 106.642 24.1848 107.009 24.1848 107.459C24.1848 107.911 24.551 108.276 25.0019 108.276C25.4534 108.276 25.8189 107.91 25.8189 107.459C25.8189 107.009 25.4528 106.642 25.0019 106.642Z" fill="white"/>
<path d="M32.3556 71.5062C32.8072 71.5062 33.1727 71.1401 33.1727 70.6892C33.1727 70.2383 32.8066 69.8722 32.3556 69.8722C31.9047 69.8722 31.5386 70.2383 31.5386 70.6892C31.5386 71.1408 31.9041 71.5062 32.3556 71.5062Z" fill="white"/>
<path d="M83.8342 34.736C84.2857 34.736 84.6512 34.3698 84.6512 33.9189C84.6512 33.4674 84.2851 33.1019 83.8342 33.1019C83.3833 33.1019 83.0172 33.468 83.0172 33.9189C83.0172 34.3698 83.3833 34.736 83.8342 34.736Z" fill="white"/>
<path d="M17.6474 115.631C18.099 115.631 18.4644 115.265 18.4644 114.814C18.4644 114.363 18.0983 113.997 17.6474 113.997C17.56 113.997 17.4772 114.014 17.3983 114.04L16.8396 114.91C16.8882 115.315 17.2287 115.631 17.6474 115.631Z" fill="white"/>
<path d="M76.4804 47.8102C76.0288 47.8102 75.6634 48.1763 75.6634 48.6272C75.6634 48.8973 75.7961 49.1346 75.9973 49.2832L76.8748 47.916C76.7578 47.8503 76.6243 47.8102 76.4804 47.8102Z" fill="white"/>
<path d="M76.4804 69.8722C76.0288 69.8722 75.6634 70.2383 75.6634 70.6892C75.6634 71.1408 76.0295 71.5062 76.4804 71.5062C76.9319 71.5062 77.2974 71.1401 77.2974 70.6892C77.2974 70.2383 76.9313 69.8722 76.4804 69.8722Z" fill="white"/>
<path d="M83.8342 27.3821C84.2857 27.3821 84.6512 27.016 84.6512 26.5651C84.6512 26.1136 84.2851 25.7481 83.8342 25.7481C83.3833 25.7481 83.0172 26.1142 83.0172 26.5651C83.0172 27.016 83.3833 27.3821 83.8342 27.3821Z" fill="white"/>
<path d="M17.6474 121.351C17.1959 121.351 16.8304 121.717 16.8304 122.168C16.8304 122.619 17.1965 122.985 17.6474 122.985C18.099 122.985 18.4644 122.619 18.4644 122.168C18.4644 121.717 18.099 121.351 17.6474 121.351Z" fill="white"/>
<path d="M54.4177 99.2887C53.9661 99.2887 53.6007 99.6548 53.6007 100.106C53.6007 100.247 53.6395 100.377 53.7026 100.494L55.0579 99.6042C54.9087 99.4136 54.6793 99.2887 54.4177 99.2887Z" fill="white"/>
<path d="M31.5386 114.814C31.5386 114.884 31.5505 114.952 31.5669 115.017L32.8552 114.172C32.7165 114.064 32.5449 113.997 32.3556 113.997C31.9041 113.997 31.5386 114.363 31.5386 114.814Z" fill="white"/>
<path d="M6.54102 71.9512H6.39453C5.44401 71.9512 4.38607 71.821 3.2207 71.5605C2.83659 69.4902 2.64453 67.3776 2.64453 65.2227C2.64453 62.8268 2.84961 60.5026 3.25977 58.25C3.97591 58.0938 4.68229 58.0156 5.37891 58.0156C6.17969 58.0156 6.99023 58.1068 7.81055 58.2891C9.10612 58.569 10.1868 59.0508 11.0527 59.7344C12.0098 60.4961 12.4883 61.4564 12.4883 62.6152C12.4883 63.4811 12.1595 64.2982 11.502 65.0664C12.2702 65.6849 12.6543 66.4792 12.6543 67.4492C12.6543 68.4453 12.3223 69.2949 11.6582 69.998C11.0527 70.6426 10.2682 71.1309 9.30469 71.4629C8.42578 71.7754 7.50456 71.9382 6.54102 71.9512ZM5.00781 60.125C5.14453 60.125 5.26172 60.0794 5.35938 59.9883C5.45703 59.8906 5.50586 59.7734 5.50586 59.6367C5.50586 59.5 5.45703 59.3828 5.35938 59.2852C5.26172 59.1875 5.14453 59.1387 5.00781 59.1387C4.87109 59.1387 4.75391 59.1875 4.65625 59.2852C4.5651 59.3828 4.51953 59.5 4.51953 59.6367C4.51953 59.7734 4.5651 59.8906 4.65625 59.9883C4.75391 60.0794 4.87109 60.125 5.00781 60.125ZM4.92969 62.6641C5.06641 62.6641 5.18359 62.6185 5.28125 62.5273C5.37891 62.4297 5.42773 62.3125 5.42773 62.1758C5.42773 62.0391 5.37891 61.9219 5.28125 61.8242C5.18359 61.7266 5.06641 61.6777 4.92969 61.6777C4.79297 61.6777 4.67578 61.7266 4.57812 61.8242C4.48047 61.9219 4.43164 62.0391 4.43164 62.1758C4.43164 62.3125 4.48047 62.4297 4.57812 62.5273C4.67578 62.6185 4.79297 62.6641 4.92969 62.6641ZM4.88086 65.2812C5.01758 65.2812 5.13477 65.2324 5.23242 65.1348C5.33008 65.0371 5.37891 64.9199 5.37891 64.7832C5.37891 64.6465 5.33008 64.5326 5.23242 64.4414C5.13477 64.3438 5.01758 64.2949 4.88086 64.2949C4.74414 64.2949 4.62695 64.3438 4.5293 64.4414C4.43815 64.5326 4.39258 64.6465 4.39258 64.7832C4.39258 64.9199 4.43815 65.0371 4.5293 65.1348C4.62695 65.2324 4.74414 65.2812 4.88086 65.2812ZM4.82227 68.0254C4.95898 68.0254 5.07292 67.9766 5.16406 67.8789C5.26172 67.7812 5.31055 67.6673 5.31055 67.5371C5.31055 67.4004 5.26172 67.2832 5.16406 67.1855C5.07292 67.0879 4.95898 67.0391 4.82227 67.0391C4.68555 67.0391 4.56836 67.0879 4.4707 67.1855C4.37305 67.2832 4.32422 67.4004 4.32422 67.5371C4.32422 67.6673 4.37305 67.7812 4.4707 67.8789C4.56836 67.9766 4.68555 68.0254 4.82227 68.0254ZM5.00781 70.5938C5.14453 70.5938 5.25846 70.5449 5.34961 70.4473C5.44727 70.3496 5.49609 70.2357 5.49609 70.1055C5.49609 69.9688 5.44727 69.8516 5.34961 69.7539C5.25846 69.6562 5.14453 69.6074 5.00781 69.6074C4.87109 69.6074 4.75391 69.6562 4.65625 69.7539C4.55859 69.8516 4.50977 69.9688 4.50977 70.1055C4.50977 70.2357 4.55859 70.3496 4.65625 70.4473C4.75391 70.5449 4.87109 70.5938 5.00781 70.5938ZM7.5957 60.6328C7.73242 60.6328 7.84635 60.584 7.9375 60.4863C8.03516 60.3887 8.08398 60.2715 8.08398 60.1348C8.08398 59.998 8.03516 59.8841 7.9375 59.793C7.84635 59.6953 7.73242 59.6465 7.5957 59.6465C7.45898 59.6465 7.3418 59.6953 7.24414 59.793C7.14648 59.8841 7.09766 59.998 7.09766 60.1348C7.09766 60.2715 7.14648 60.3887 7.24414 60.4863C7.3418 60.584 7.45898 60.6328 7.5957 60.6328ZM9.82227 61.9707C9.95898 61.9707 10.0762 61.9219 10.1738 61.8242C10.2715 61.7266 10.3203 61.6094 10.3203 61.4727C10.3203 61.3359 10.2715 61.2188 10.1738 61.1211C10.0762 61.0234 9.95898 60.9746 9.82227 60.9746C9.68555 60.9746 9.56836 61.0234 9.4707 61.1211C9.37305 61.2188 9.32422 61.3359 9.32422 61.4727C9.32422 61.6094 9.37305 61.7266 9.4707 61.8242C9.56836 61.9219 9.68555 61.9707 9.82227 61.9707ZM9.85156 64.4023C9.98828 64.4023 10.1055 64.3535 10.2031 64.2559C10.3008 64.1582 10.3496 64.041 10.3496 63.9043C10.3496 63.7676 10.3008 63.6536 10.2031 63.5625C10.1055 63.4648 9.98828 63.416 9.85156 63.416C9.71484 63.416 9.59766 63.4648 9.5 63.5625C9.40234 63.6536 9.35352 63.7676 9.35352 63.9043C9.35352 64.041 9.40234 64.1582 9.5 64.2559C9.59766 64.3535 9.71484 64.4023 9.85156 64.4023ZM7.56641 66.1113C7.70312 66.1113 7.81706 66.0658 7.9082 65.9746C8.00586 65.877 8.05469 65.7598 8.05469 65.623C8.05469 65.4863 8.00586 65.3691 7.9082 65.2715C7.81706 65.1738 7.70312 65.125 7.56641 65.125C7.42969 65.125 7.3125 65.1738 7.21484 65.2715C7.11719 65.3691 7.06836 65.4863 7.06836 65.623C7.06836 65.7598 7.11719 65.877 7.21484 65.9746C7.3125 66.0658 7.42969 66.1113 7.56641 66.1113ZM10.2324 67.2832C10.3691 67.2832 10.4863 67.2344 10.584 67.1367C10.6816 67.0391 10.7305 66.9219 10.7305 66.7852C10.7305 66.6484 10.6816 66.5345 10.584 66.4434C10.4863 66.3457 10.3691 66.2969 10.2324 66.2969C10.0957 66.2969 9.97852 66.3457 9.88086 66.4434C9.78971 66.5345 9.74414 66.6484 9.74414 66.7852C9.74414 66.9219 9.78971 67.0391 9.88086 67.1367C9.97852 67.2344 10.0957 67.2832 10.2324 67.2832ZM9.8125 69.7051C9.94922 69.7051 10.0632 69.6562 10.1543 69.5586C10.252 69.4609 10.3008 69.3438 10.3008 69.207C10.3008 69.0703 10.252 68.9531 10.1543 68.8555C10.0632 68.7578 9.94922 68.709 9.8125 68.709C9.67578 68.709 9.55859 68.7578 9.46094 68.8555C9.36328 68.9531 9.31445 69.0703 9.31445 69.207C9.31445 69.3438 9.36328 69.4609 9.46094 69.5586C9.55859 69.6562 9.67578 69.7051 9.8125 69.7051ZM7.39062 70.6426C7.52734 70.6426 7.64128 70.597 7.73242 70.5059C7.83008 70.4082 7.87891 70.291 7.87891 70.1543C7.87891 70.0176 7.83008 69.9004 7.73242 69.8027C7.64128 69.7051 7.52734 69.6562 7.39062 69.6562C7.25391 69.6562 7.13672 69.7051 7.03906 69.8027C6.94141 69.9004 6.89258 70.0176 6.89258 70.1543C6.89258 70.291 6.94141 70.4082 7.03906 70.5059C7.13672 70.597 7.25391 70.6426 7.39062 70.6426ZM6.38477 64.6855C7.27018 64.5098 7.91471 64.2689 8.31836 63.9629C8.72852 63.6504 8.93359 63.3184 8.93359 62.9668C8.93359 62.6022 8.72852 62.2572 8.31836 61.9316C7.91471 61.5996 7.33854 61.3392 6.58984 61.1504C6.47266 62.2572 6.4043 63.4355 6.38477 64.6855ZM6.53125 68.9922C7.54688 68.9661 8.30534 68.8197 8.80664 68.5527C9.24284 68.3249 9.46094 68.0579 9.46094 67.752C9.46094 67.4264 9.23958 67.179 8.79688 67.0098C8.49089 66.8991 8.08073 66.8438 7.56641 66.8438C7.24089 66.8438 6.86328 66.8698 6.43359 66.9219C6.40755 66.9284 6.39453 67.013 6.39453 67.1758C6.39453 67.4948 6.42383 67.9082 6.48242 68.416C6.51497 68.7546 6.53125 68.9466 6.53125 68.9922ZM6.33594 71.2188C5.67188 71.2188 4.84505 71.1276 3.85547 70.9453C3.64714 69.819 3.52018 68.7383 3.47461 67.7031C3.43555 66.668 3.41602 65.8411 3.41602 65.2227C3.41602 62.7617 3.57552 60.6426 3.89453 58.8652C4.30469 58.7741 4.77018 58.7285 5.29102 58.7285C6.09831 58.7285 6.92839 58.8294 7.78125 59.0312C9.39583 59.4219 10.5449 60.0762 11.2285 60.9941C11.5801 61.4694 11.7559 62.0228 11.7559 62.6543C11.7559 63.5397 11.2741 64.3861 10.3105 65.1934C10.6816 65.3626 10.9844 65.5645 11.2188 65.7988C11.4596 66.0332 11.6354 66.2936 11.7461 66.5801C11.8568 66.86 11.9121 67.1497 11.9121 67.4492C11.9121 68.0807 11.7201 68.6634 11.3359 69.1973C10.9583 69.7246 10.4212 70.1608 9.72461 70.5059C9.02799 70.8509 8.36719 71.056 7.74219 71.1211C7.11719 71.1862 6.64844 71.2188 6.33594 71.2188ZM6.49219 71.502C7.3776 71.4954 8.23698 71.3522 9.07031 71.0723C9.98177 70.7728 10.7174 70.3366 11.2773 69.7637C11.9023 69.1126 12.2148 68.3411 12.2148 67.4492C12.2148 67.1107 12.1562 66.7982 12.0391 66.5117C11.9284 66.2188 11.7689 65.9583 11.5605 65.7305C11.3522 65.4961 11.1081 65.2975 10.8281 65.1348C11.6419 64.3535 12.0488 63.5202 12.0488 62.6348C12.0488 61.3132 11.3555 60.278 9.96875 59.5293C8.6276 58.8197 7.06836 58.4648 5.29102 58.4648C4.67253 58.4648 4.1224 58.5169 3.64062 58.6211C3.28255 60.6263 3.10352 62.8398 3.10352 65.2617C3.10352 67.3971 3.26953 69.373 3.60156 71.1895C4.54557 71.3978 5.50911 71.502 6.49219 71.502ZM6.80469 68.6797C6.73958 68.1849 6.70052 67.6868 6.6875 67.1855C6.99349 67.1595 7.27344 67.1465 7.52734 67.1465C7.95703 67.1465 8.33789 67.1953 8.66992 67.293C9.00195 67.3906 9.16797 67.5436 9.16797 67.752C9.16146 67.9603 8.95638 68.1556 8.55273 68.3379C8.1556 68.5202 7.57292 68.6341 6.80469 68.6797ZM6.6875 64.3242C6.70703 63.3867 6.76237 62.4557 6.85352 61.5312C8.03841 61.9089 8.63086 62.3776 8.63086 62.9375C8.63086 63.5365 7.98307 63.9987 6.6875 64.3242ZM7.19531 68.2109C7.86589 68.1523 8.35742 68.0059 8.66992 67.7715C8.42253 67.6543 8.06445 67.5957 7.5957 67.5957H7.14648C7.15951 67.804 7.17578 68.0091 7.19531 68.2109ZM7.14648 63.7285C7.25065 63.696 7.38086 63.6406 7.53711 63.5625C7.69987 63.4844 7.84635 63.3932 7.97656 63.2891C8.10677 63.1784 8.17513 63.0612 8.18164 62.9375C8.18164 62.8203 8.12305 62.7096 8.00586 62.6055C7.88867 62.4948 7.75521 62.4004 7.60547 62.3223C7.45573 62.2376 7.33529 62.1758 7.24414 62.1367C7.19857 62.6641 7.16602 63.1947 7.14648 63.7285ZM18.9727 71.9512C17.931 71.9512 16.9935 71.5703 16.1602 70.8086C15.5547 70.2682 15.0501 69.5098 14.6465 68.5332C14.1908 67.446 13.9303 66.4759 13.8652 65.623C13.8001 64.7702 13.7676 64.0866 13.7676 63.5723C13.7676 61.9967 13.9759 60.1348 14.3926 57.9863L18.7383 58.8066C18.5951 59.5358 18.4648 60.304 18.3477 61.1113C18.2305 61.9186 18.1686 62.5371 18.1621 62.9668C18.1621 63.3965 18.1621 63.6406 18.1621 63.6992C18.1621 64.4414 18.2467 65.151 18.416 65.8281C18.6504 66.7396 18.9401 67.1953 19.2852 67.1953C19.513 67.1953 19.7409 66.9805 19.9688 66.5508C20.125 66.2448 20.2552 65.8704 20.3594 65.4277C20.5091 64.7767 20.584 64.1257 20.584 63.4746C20.584 62.2376 20.3366 60.7174 19.8418 58.9141L24.1387 57.8496C24.3665 58.6829 24.5521 59.5618 24.6953 60.4863C24.8451 61.4043 24.9199 62.1172 24.9199 62.625C24.9264 63.1328 24.9297 63.4193 24.9297 63.4844C24.9297 65.4505 24.5423 67.1562 23.7676 68.6016C23.3249 69.4349 22.7943 70.1185 22.1758 70.6523C21.1732 71.5182 20.1055 71.9512 18.9727 71.9512ZM16.1797 60.5645C16.3164 60.5645 16.4336 60.5189 16.5312 60.4277C16.6289 60.3301 16.6777 60.2129 16.6777 60.0762C16.6777 59.9395 16.6289 59.8223 16.5312 59.7246C16.4336 59.627 16.3164 59.5781 16.1797 59.5781C16.043 59.5781 15.9258 59.627 15.8281 59.7246C15.7305 59.8223 15.6816 59.9395 15.6816 60.0762C15.6816 60.2129 15.7305 60.3301 15.8281 60.4277C15.9258 60.5189 16.043 60.5645 16.1797 60.5645ZM22.3906 60.3594C22.5273 60.3594 22.6445 60.3105 22.7422 60.2129C22.8398 60.1152 22.8887 60.0013 22.8887 59.8711C22.8887 59.7344 22.8398 59.6172 22.7422 59.5195C22.6445 59.4219 22.5273 59.373 22.3906 59.373C22.2539 59.373 22.1367 59.4219 22.0391 59.5195C21.9479 59.6172 21.9023 59.7344 21.9023 59.8711C21.9023 60.0013 21.9479 60.1152 22.0391 60.2129C22.1367 60.3105 22.2539 60.3594 22.3906 60.3594ZM22.8105 62.957C22.9473 62.957 23.0612 62.9082 23.1523 62.8105C23.25 62.7129 23.2988 62.5957 23.2988 62.459C23.2988 62.3223 23.25 62.2051 23.1523 62.1074C23.0612 62.0098 22.9473 61.9609 22.8105 61.9609C22.6738 61.9609 22.5566 62.0098 22.459 62.1074C22.3613 62.2051 22.3125 62.3223 22.3125 62.459C22.3125 62.5957 22.3613 62.7129 22.459 62.8105C22.5566 62.9082 22.6738 62.957 22.8105 62.957ZM22.5469 65.7305C22.6836 65.7305 22.8008 65.6849 22.8984 65.5938C22.9961 65.4961 23.0449 65.3789 23.0449 65.2422C23.0449 65.1055 22.9961 64.9883 22.8984 64.8906C22.8008 64.793 22.6836 64.7441 22.5469 64.7441C22.4102 64.7441 22.293 64.793 22.1953 64.8906C22.1042 64.9883 22.0586 65.1055 22.0586 65.2422C22.0586 65.3789 22.1042 65.4961 22.1953 65.5938C22.293 65.6849 22.4102 65.7305 22.5469 65.7305ZM21.4629 68.4844C21.5996 68.4844 21.7168 68.4388 21.8145 68.3477C21.9121 68.25 21.9609 68.1328 21.9609 67.9961C21.9609 67.8594 21.9121 67.7422 21.8145 67.6445C21.7168 67.5469 21.5996 67.498 21.4629 67.498C21.3262 67.498 21.209 67.5469 21.1113 67.6445C21.0137 67.7422 20.9648 67.8594 20.9648 67.9961C20.9648 68.1328 21.0137 68.25 21.1113 68.3477C21.209 68.4388 21.3262 68.4844 21.4629 68.4844ZM19.1875 70.2031C19.3242 70.2031 19.4414 70.1543 19.5391 70.0566C19.6367 69.959 19.6855 69.8418 19.6855 69.7051C19.6855 69.5684 19.6367 69.4512 19.5391 69.3535C19.4414 69.2559 19.3242 69.207 19.1875 69.207C19.0508 69.207 18.9336 69.2559 18.8359 69.3535C18.7448 69.4512 18.6992 69.5684 18.6992 69.7051C18.6992 69.8418 18.7448 69.959 18.8359 70.0566C18.9336 70.1543 19.0508 70.2031 19.1875 70.2031ZM17.0098 68.8359C17.1465 68.8359 17.2637 68.7871 17.3613 68.6895C17.459 68.5918 17.5078 68.4746 17.5078 68.3379C17.5078 68.2012 17.459 68.0872 17.3613 67.9961C17.2637 67.8984 17.1465 67.8496 17.0098 67.8496C16.873 67.8496 16.7559 67.8984 16.6582 67.9961C16.5671 68.0872 16.5215 68.2012 16.5215 68.3379C16.5215 68.4746 16.5671 68.5918 16.6582 68.6895C16.7559 68.7871 16.873 68.8359 17.0098 68.8359ZM16.0723 66.3652C16.209 66.3652 16.3262 66.3164 16.4238 66.2188C16.5215 66.1211 16.5703 66.0039 16.5703 65.8672C16.5703 65.7305 16.5215 65.6133 16.4238 65.5156C16.3262 65.418 16.209 65.3691 16.0723 65.3691C15.9355 65.3691 15.8184 65.418 15.7207 65.5156C15.6296 65.6133 15.584 65.7305 15.584 65.8672C15.584 66.0039 15.6296 66.1211 15.7207 66.2188C15.8184 66.3164 15.9355 66.3652 16.0723 66.3652ZM15.9551 63.1719C16.0918 63.1719 16.2057 63.123 16.2969 63.0254C16.3945 62.9277 16.4434 62.8105 16.4434 62.6738C16.4434 62.5371 16.3945 62.4232 16.2969 62.332C16.2057 62.2344 16.0918 62.1855 15.9551 62.1855C15.8184 62.1855 15.7012 62.2344 15.6035 62.332C15.5059 62.4232 15.457 62.5371 15.457 62.6738C15.457 62.8105 15.5059 62.9277 15.6035 63.0254C15.7012 63.123 15.8184 63.1719 15.9551 63.1719ZM18.9922 71.1699C18.0938 71.1699 17.2897 70.8379 16.5801 70.1738C16.0007 69.6335 15.5221 68.862 15.1445 67.8594C14.7734 66.8568 14.5716 65.9388 14.5391 65.1055C14.513 64.2656 14.5 63.748 14.5 63.5527C14.5 62.1855 14.6628 60.6198 14.9883 58.8555L17.8789 59.3926C17.5924 60.9355 17.446 61.9967 17.4395 62.5762C17.4395 63.1556 17.4395 63.4811 17.4395 63.5527C17.4395 64.5488 17.5241 65.3659 17.6934 66.0039C17.8757 66.694 18.1068 67.1921 18.3867 67.498C18.6732 67.804 18.9694 67.957 19.2754 67.957C19.653 67.957 20.0013 67.752 20.3203 67.3418C20.6458 66.9251 20.8932 66.3717 21.0625 65.6816C21.2318 64.9915 21.3164 64.2266 21.3164 63.3867C21.3164 62.1823 21.1276 60.8704 20.75 59.4512L23.6113 58.7383C24.0345 60.3529 24.2461 61.8275 24.2461 63.1621C24.2461 64.5358 24.0736 65.7435 23.7285 66.7852C23.3835 67.8203 22.931 68.6764 22.3711 69.3535C21.375 70.5645 20.2487 71.1699 18.9922 71.1699ZM18.9629 71.5117C20.0176 71.5117 21.0169 71.0885 21.9609 70.2422C22.5208 69.7409 23.0026 69.1061 23.4062 68.3379C24.1224 66.9642 24.487 65.3138 24.5 63.3867C24.5 62.5078 24.4382 61.6452 24.3145 60.7988C24.1908 59.946 24.028 59.1419 23.8262 58.3867L20.3887 59.2363C20.8118 60.7923 21.0234 62.2181 21.0234 63.5137C21.0234 64.1973 20.9453 64.8678 20.7891 65.5254C20.6523 66.1113 20.4635 66.5866 20.2227 66.9512C19.9167 67.4264 19.5944 67.6641 19.2559 67.6641C18.7155 67.6641 18.2956 67.0879 17.9961 65.9355C17.8138 65.2324 17.7227 64.4935 17.7227 63.7188C17.7227 62.3841 17.8887 60.8639 18.2207 59.1582L14.7539 58.5039C14.3893 60.3333 14.207 62.0098 14.207 63.5332C14.207 64.0801 14.2428 64.7734 14.3145 65.6133C14.3861 66.4531 14.6302 67.3711 15.0469 68.3672C15.431 69.2786 15.8997 69.985 16.4531 70.4863C17.2083 71.1699 18.0449 71.5117 18.9629 71.5117ZM30.3301 71.9512H30.1836C29.2331 71.9512 28.1751 71.821 27.0098 71.5605C26.6257 69.4902 26.4336 67.3776 26.4336 65.2227C26.4336 62.8268 26.6387 60.5026 27.0488 58.25C27.765 58.0938 28.4714 58.0156 29.168 58.0156C29.9688 58.0156 30.7793 58.1068 31.5996 58.2891C32.8952 58.569 33.9759 59.0508 34.8418 59.7344C35.7988 60.4961 36.2773 61.4564 36.2773 62.6152C36.2773 63.4811 35.9486 64.2982 35.291 65.0664C36.0592 65.6849 36.4434 66.4792 36.4434 67.4492C36.4434 68.4453 36.1113 69.2949 35.4473 69.998C34.8418 70.6426 34.0573 71.1309 33.0938 71.4629C32.2148 71.7754 31.2936 71.9382 30.3301 71.9512ZM28.7969 60.125C28.9336 60.125 29.0508 60.0794 29.1484 59.9883C29.2461 59.8906 29.2949 59.7734 29.2949 59.6367C29.2949 59.5 29.2461 59.3828 29.1484 59.2852C29.0508 59.1875 28.9336 59.1387 28.7969 59.1387C28.6602 59.1387 28.543 59.1875 28.4453 59.2852C28.3542 59.3828 28.3086 59.5 28.3086 59.6367C28.3086 59.7734 28.3542 59.8906 28.4453 59.9883C28.543 60.0794 28.6602 60.125 28.7969 60.125ZM28.7188 62.6641C28.8555 62.6641 28.9727 62.6185 29.0703 62.5273C29.168 62.4297 29.2168 62.3125 29.2168 62.1758C29.2168 62.0391 29.168 61.9219 29.0703 61.8242C28.9727 61.7266 28.8555 61.6777 28.7188 61.6777C28.582 61.6777 28.4648 61.7266 28.3672 61.8242C28.2695 61.9219 28.2207 62.0391 28.2207 62.1758C28.2207 62.3125 28.2695 62.4297 28.3672 62.5273C28.4648 62.6185 28.582 62.6641 28.7188 62.6641ZM28.6699 65.2812C28.8066 65.2812 28.9238 65.2324 29.0215 65.1348C29.1191 65.0371 29.168 64.9199 29.168 64.7832C29.168 64.6465 29.1191 64.5326 29.0215 64.4414C28.9238 64.3438 28.8066 64.2949 28.6699 64.2949C28.5332 64.2949 28.416 64.3438 28.3184 64.4414C28.2272 64.5326 28.1816 64.6465 28.1816 64.7832C28.1816 64.9199 28.2272 65.0371 28.3184 65.1348C28.416 65.2324 28.5332 65.2812 28.6699 65.2812ZM28.6113 68.0254C28.748 68.0254 28.862 67.9766 28.9531 67.8789C29.0508 67.7812 29.0996 67.6673 29.0996 67.5371C29.0996 67.4004 29.0508 67.2832 28.9531 67.1855C28.862 67.0879 28.748 67.0391 28.6113 67.0391C28.4746 67.0391 28.3574 67.0879 28.2598 67.1855C28.1621 67.2832 28.1133 67.4004 28.1133 67.5371C28.1133 67.6673 28.1621 67.7812 28.2598 67.8789C28.3574 67.9766 28.4746 68.0254 28.6113 68.0254ZM28.7969 70.5938C28.9336 70.5938 29.0475 70.5449 29.1387 70.4473C29.2363 70.3496 29.2852 70.2357 29.2852 70.1055C29.2852 69.9688 29.2363 69.8516 29.1387 69.7539C29.0475 69.6562 28.9336 69.6074 28.7969 69.6074C28.6602 69.6074 28.543 69.6562 28.4453 69.7539C28.3477 69.8516 28.2988 69.9688 28.2988 70.1055C28.2988 70.2357 28.3477 70.3496 28.4453 70.4473C28.543 70.5449 28.6602 70.5938 28.7969 70.5938ZM31.3848 60.6328C31.5215 60.6328 31.6354 60.584 31.7266 60.4863C31.8242 60.3887 31.873 60.2715 31.873 60.1348C31.873 59.998 31.8242 59.8841 31.7266 59.793C31.6354 59.6953 31.5215 59.6465 31.3848 59.6465C31.248 59.6465 31.1309 59.6953 31.0332 59.793C30.9355 59.8841 30.8867 59.998 30.8867 60.1348C30.8867 60.2715 30.9355 60.3887 31.0332 60.4863C31.1309 60.584 31.248 60.6328 31.3848 60.6328ZM33.6113 61.9707C33.748 61.9707 33.8652 61.9219 33.9629 61.8242C34.0605 61.7266 34.1094 61.6094 34.1094 61.4727C34.1094 61.3359 34.0605 61.2188 33.9629 61.1211C33.8652 61.0234 33.748 60.9746 33.6113 60.9746C33.4746 60.9746 33.3574 61.0234 33.2598 61.1211C33.1621 61.2188 33.1133 61.3359 33.1133 61.4727C33.1133 61.6094 33.1621 61.7266 33.2598 61.8242C33.3574 61.9219 33.4746 61.9707 33.6113 61.9707ZM33.6406 64.4023C33.7773 64.4023 33.8945 64.3535 33.9922 64.2559C34.0898 64.1582 34.1387 64.041 34.1387 63.9043C34.1387 63.7676 34.0898 63.6536 33.9922 63.5625C33.8945 63.4648 33.7773 63.416 33.6406 63.416C33.5039 63.416 33.3867 63.4648 33.2891 63.5625C33.1914 63.6536 33.1426 63.7676 33.1426 63.9043C33.1426 64.041 33.1914 64.1582 33.2891 64.2559C33.3867 64.3535 33.5039 64.4023 33.6406 64.4023ZM31.3555 66.1113C31.4922 66.1113 31.6061 66.0658 31.6973 65.9746C31.7949 65.877 31.8438 65.7598 31.8438 65.623C31.8438 65.4863 31.7949 65.3691 31.6973 65.2715C31.6061 65.1738 31.4922 65.125 31.3555 65.125C31.2188 65.125 31.1016 65.1738 31.0039 65.2715C30.9062 65.3691 30.8574 65.4863 30.8574 65.623C30.8574 65.7598 30.9062 65.877 31.0039 65.9746C31.1016 66.0658 31.2188 66.1113 31.3555 66.1113ZM34.0215 67.2832C34.1582 67.2832 34.2754 67.2344 34.373 67.1367C34.4707 67.0391 34.5195 66.9219 34.5195 66.7852C34.5195 66.6484 34.4707 66.5345 34.373 66.4434C34.2754 66.3457 34.1582 66.2969 34.0215 66.2969C33.8848 66.2969 33.7676 66.3457 33.6699 66.4434C33.5788 66.5345 33.5332 66.6484 33.5332 66.7852C33.5332 66.9219 33.5788 67.0391 33.6699 67.1367C33.7676 67.2344 33.8848 67.2832 34.0215 67.2832ZM33.6016 69.7051C33.7383 69.7051 33.8522 69.6562 33.9434 69.5586C34.041 69.4609 34.0898 69.3438 34.0898 69.207C34.0898 69.0703 34.041 68.9531 33.9434 68.8555C33.8522 68.7578 33.7383 68.709 33.6016 68.709C33.4648 68.709 33.3477 68.7578 33.25 68.8555C33.1523 68.9531 33.1035 69.0703 33.1035 69.207C33.1035 69.3438 33.1523 69.4609 33.25 69.5586C33.3477 69.6562 33.4648 69.7051 33.6016 69.7051ZM31.1797 70.6426C31.3164 70.6426 31.4303 70.597 31.5215 70.5059C31.6191 70.4082 31.668 70.291 31.668 70.1543C31.668 70.0176 31.6191 69.9004 31.5215 69.8027C31.4303 69.7051 31.3164 69.6562 31.1797 69.6562C31.043 69.6562 30.9258 69.7051 30.8281 69.8027C30.7305 69.9004 30.6816 70.0176 30.6816 70.1543C30.6816 70.291 30.7305 70.4082 30.8281 70.5059C30.9258 70.597 31.043 70.6426 31.1797 70.6426ZM30.1738 64.6855C31.0592 64.5098 31.7038 64.2689 32.1074 63.9629C32.5176 63.6504 32.7227 63.3184 32.7227 62.9668C32.7227 62.6022 32.5176 62.2572 32.1074 61.9316C31.7038 61.5996 31.1276 61.3392 30.3789 61.1504C30.2617 62.2572 30.1934 63.4355 30.1738 64.6855ZM30.3203 68.9922C31.3359 68.9661 32.0944 68.8197 32.5957 68.5527C33.0319 68.3249 33.25 68.0579 33.25 67.752C33.25 67.4264 33.0286 67.179 32.5859 67.0098C32.2799 66.8991 31.8698 66.8438 31.3555 66.8438C31.0299 66.8438 30.6523 66.8698 30.2227 66.9219C30.1966 66.9284 30.1836 67.013 30.1836 67.1758C30.1836 67.4948 30.2129 67.9082 30.2715 68.416C30.304 68.7546 30.3203 68.9466 30.3203 68.9922ZM30.125 71.2188C29.4609 71.2188 28.6341 71.1276 27.6445 70.9453C27.4362 69.819 27.3092 68.7383 27.2637 67.7031C27.2246 66.668 27.2051 65.8411 27.2051 65.2227C27.2051 62.7617 27.3646 60.6426 27.6836 58.8652C28.0938 58.7741 28.5592 58.7285 29.0801 58.7285C29.8874 58.7285 30.7174 58.8294 31.5703 59.0312C33.1849 59.4219 34.334 60.0762 35.0176 60.9941C35.3691 61.4694 35.5449 62.0228 35.5449 62.6543C35.5449 63.5397 35.0632 64.3861 34.0996 65.1934C34.4707 65.3626 34.7734 65.5645 35.0078 65.7988C35.2487 66.0332 35.4245 66.2936 35.5352 66.5801C35.6458 66.86 35.7012 67.1497 35.7012 67.4492C35.7012 68.0807 35.5091 68.6634 35.125 69.1973C34.7474 69.7246 34.2103 70.1608 33.5137 70.5059C32.8171 70.8509 32.1562 71.056 31.5312 71.1211C30.9062 71.1862 30.4375 71.2188 30.125 71.2188ZM30.2812 71.502C31.1667 71.4954 32.026 71.3522 32.8594 71.0723C33.7708 70.7728 34.5065 70.3366 35.0664 69.7637C35.6914 69.1126 36.0039 68.3411 36.0039 67.4492C36.0039 67.1107 35.9453 66.7982 35.8281 66.5117C35.7174 66.2188 35.5579 65.9583 35.3496 65.7305C35.1413 65.4961 34.8971 65.2975 34.6172 65.1348C35.431 64.3535 35.8379 63.5202 35.8379 62.6348C35.8379 61.3132 35.1445 60.278 33.7578 59.5293C32.4167 58.8197 30.8574 58.4648 29.0801 58.4648C28.4616 58.4648 27.9115 58.5169 27.4297 58.6211C27.0716 60.6263 26.8926 62.8398 26.8926 65.2617C26.8926 67.3971 27.0586 69.373 27.3906 71.1895C28.3346 71.3978 29.2982 71.502 30.2812 71.502ZM30.5938 68.6797C30.5286 68.1849 30.4896 67.6868 30.4766 67.1855C30.7826 67.1595 31.0625 67.1465 31.3164 67.1465C31.7461 67.1465 32.127 67.1953 32.459 67.293C32.791 67.3906 32.957 67.5436 32.957 67.752C32.9505 67.9603 32.7454 68.1556 32.3418 68.3379C31.9447 68.5202 31.362 68.6341 30.5938 68.6797ZM30.4766 64.3242C30.4961 63.3867 30.5514 62.4557 30.6426 61.5312C31.8275 61.9089 32.4199 62.3776 32.4199 62.9375C32.4199 63.5365 31.7721 63.9987 30.4766 64.3242ZM30.9844 68.2109C31.6549 68.1523 32.1465 68.0059 32.459 67.7715C32.2116 67.6543 31.8535 67.5957 31.3848 67.5957H30.9355C30.9486 67.804 30.9648 68.0091 30.9844 68.2109ZM30.9355 63.7285C31.0397 63.696 31.1699 63.6406 31.3262 63.5625C31.4889 63.4844 31.6354 63.3932 31.7656 63.2891C31.8958 63.1784 31.9642 63.0612 31.9707 62.9375C31.9707 62.8203 31.9121 62.7096 31.7949 62.6055C31.6777 62.4948 31.5443 62.4004 31.3945 62.3223C31.2448 62.2376 31.1243 62.1758 31.0332 62.1367C30.9876 62.6641 30.9551 63.1947 30.9355 63.7285ZM41.6777 71.9512H41.5312C40.5807 71.9512 39.5228 71.821 38.3574 71.5605C37.9733 69.4902 37.7812 67.3776 37.7812 65.2227C37.7812 62.8268 37.9863 60.5026 38.3965 58.25C39.1126 58.0938 39.819 58.0156 40.5156 58.0156C41.3164 58.0156 42.127 58.1068 42.9473 58.2891C44.2428 58.569 45.3236 59.0508 46.1895 59.7344C47.1465 60.4961 47.625 61.4564 47.625 62.6152C47.625 63.4811 47.2962 64.2982 46.6387 65.0664C47.4069 65.6849 47.791 66.4792 47.791 67.4492C47.791 68.4453 47.459 69.2949 46.7949 69.998C46.1895 70.6426 45.4049 71.1309 44.4414 71.4629C43.5625 71.7754 42.6413 71.9382 41.6777 71.9512ZM40.1445 60.125C40.2812 60.125 40.3984 60.0794 40.4961 59.9883C40.5938 59.8906 40.6426 59.7734 40.6426 59.6367C40.6426 59.5 40.5938 59.3828 40.4961 59.2852C40.3984 59.1875 40.2812 59.1387 40.1445 59.1387C40.0078 59.1387 39.8906 59.1875 39.793 59.2852C39.7018 59.3828 39.6562 59.5 39.6562 59.6367C39.6562 59.7734 39.7018 59.8906 39.793 59.9883C39.8906 60.0794 40.0078 60.125 40.1445 60.125ZM40.0664 62.6641C40.2031 62.6641 40.3203 62.6185 40.418 62.5273C40.5156 62.4297 40.5645 62.3125 40.5645 62.1758C40.5645 62.0391 40.5156 61.9219 40.418 61.8242C40.3203 61.7266 40.2031 61.6777 40.0664 61.6777C39.9297 61.6777 39.8125 61.7266 39.7148 61.8242C39.6172 61.9219 39.5684 62.0391 39.5684 62.1758C39.5684 62.3125 39.6172 62.4297 39.7148 62.5273C39.8125 62.6185 39.9297 62.6641 40.0664 62.6641ZM40.0176 65.2812C40.1543 65.2812 40.2715 65.2324 40.3691 65.1348C40.4668 65.0371 40.5156 64.9199 40.5156 64.7832C40.5156 64.6465 40.4668 64.5326 40.3691 64.4414C40.2715 64.3438 40.1543 64.2949 40.0176 64.2949C39.8809 64.2949 39.7637 64.3438 39.666 64.4414C39.5749 64.5326 39.5293 64.6465 39.5293 64.7832C39.5293 64.9199 39.5749 65.0371 39.666 65.1348C39.7637 65.2324 39.8809 65.2812 40.0176 65.2812ZM39.959 68.0254C40.0957 68.0254 40.2096 67.9766 40.3008 67.8789C40.3984 67.7812 40.4473 67.6673 40.4473 67.5371C40.4473 67.4004 40.3984 67.2832 40.3008 67.1855C40.2096 67.0879 40.0957 67.0391 39.959 67.0391C39.8223 67.0391 39.7051 67.0879 39.6074 67.1855C39.5098 67.2832 39.4609 67.4004 39.4609 67.5371C39.4609 67.6673 39.5098 67.7812 39.6074 67.8789C39.7051 67.9766 39.8223 68.0254 39.959 68.0254ZM40.1445 70.5938C40.2812 70.5938 40.3952 70.5449 40.4863 70.4473C40.584 70.3496 40.6328 70.2357 40.6328 70.1055C40.6328 69.9688 40.584 69.8516 40.4863 69.7539C40.3952 69.6562 40.2812 69.6074 40.1445 69.6074C40.0078 69.6074 39.8906 69.6562 39.793 69.7539C39.6953 69.8516 39.6465 69.9688 39.6465 70.1055C39.6465 70.2357 39.6953 70.3496 39.793 70.4473C39.8906 70.5449 40.0078 70.5938 40.1445 70.5938ZM42.7324 60.6328C42.8691 60.6328 42.9831 60.584 43.0742 60.4863C43.1719 60.3887 43.2207 60.2715 43.2207 60.1348C43.2207 59.998 43.1719 59.8841 43.0742 59.793C42.9831 59.6953 42.8691 59.6465 42.7324 59.6465C42.5957 59.6465 42.4785 59.6953 42.3809 59.793C42.2832 59.8841 42.2344 59.998 42.2344 60.1348C42.2344 60.2715 42.2832 60.3887 42.3809 60.4863C42.4785 60.584 42.5957 60.6328 42.7324 60.6328ZM44.959 61.9707C45.0957 61.9707 45.2129 61.9219 45.3105 61.8242C45.4082 61.7266 45.457 61.6094 45.457 61.4727C45.457 61.3359 45.4082 61.2188 45.3105 61.1211C45.2129 61.0234 45.0957 60.9746 44.959 60.9746C44.8223 60.9746 44.7051 61.0234 44.6074 61.1211C44.5098 61.2188 44.4609 61.3359 44.4609 61.4727C44.4609 61.6094 44.5098 61.7266 44.6074 61.8242C44.7051 61.9219 44.8223 61.9707 44.959 61.9707ZM44.9883 64.4023C45.125 64.4023 45.2422 64.3535 45.3398 64.2559C45.4375 64.1582 45.4863 64.041 45.4863 63.9043C45.4863 63.7676 45.4375 63.6536 45.3398 63.5625C45.2422 63.4648 45.125 63.416 44.9883 63.416C44.8516 63.416 44.7344 63.4648 44.6367 63.5625C44.5391 63.6536 44.4902 63.7676 44.4902 63.9043C44.4902 64.041 44.5391 64.1582 44.6367 64.2559C44.7344 64.3535 44.8516 64.4023 44.9883 64.4023ZM42.7031 66.1113C42.8398 66.1113 42.9538 66.0658 43.0449 65.9746C43.1426 65.877 43.1914 65.7598 43.1914 65.623C43.1914 65.4863 43.1426 65.3691 43.0449 65.2715C42.9538 65.1738 42.8398 65.125 42.7031 65.125C42.5664 65.125 42.4492 65.1738 42.3516 65.2715C42.2539 65.3691 42.2051 65.4863 42.2051 65.623C42.2051 65.7598 42.2539 65.877 42.3516 65.9746C42.4492 66.0658 42.5664 66.1113 42.7031 66.1113ZM45.3691 67.2832C45.5059 67.2832 45.623 67.2344 45.7207 67.1367C45.8184 67.0391 45.8672 66.9219 45.8672 66.7852C45.8672 66.6484 45.8184 66.5345 45.7207 66.4434C45.623 66.3457 45.5059 66.2969 45.3691 66.2969C45.2324 66.2969 45.1152 66.3457 45.0176 66.4434C44.9264 66.5345 44.8809 66.6484 44.8809 66.7852C44.8809 66.9219 44.9264 67.0391 45.0176 67.1367C45.1152 67.2344 45.2324 67.2832 45.3691 67.2832ZM44.9492 69.7051C45.0859 69.7051 45.1999 69.6562 45.291 69.5586C45.3887 69.4609 45.4375 69.3438 45.4375 69.207C45.4375 69.0703 45.3887 68.9531 45.291 68.8555C45.1999 68.7578 45.0859 68.709 44.9492 68.709C44.8125 68.709 44.6953 68.7578 44.5977 68.8555C44.5 68.9531 44.4512 69.0703 44.4512 69.207C44.4512 69.3438 44.5 69.4609 44.5977 69.5586C44.6953 69.6562 44.8125 69.7051 44.9492 69.7051ZM42.5273 70.6426C42.6641 70.6426 42.778 70.597 42.8691 70.5059C42.9668 70.4082 43.0156 70.291 43.0156 70.1543C43.0156 70.0176 42.9668 69.9004 42.8691 69.8027C42.778 69.7051 42.6641 69.6562 42.5273 69.6562C42.3906 69.6562 42.2734 69.7051 42.1758 69.8027C42.0781 69.9004 42.0293 70.0176 42.0293 70.1543C42.0293 70.291 42.0781 70.4082 42.1758 70.5059C42.2734 70.597 42.3906 70.6426 42.5273 70.6426ZM41.5215 64.6855C42.4069 64.5098 43.0514 64.2689 43.4551 63.9629C43.8652 63.6504 44.0703 63.3184 44.0703 62.9668C44.0703 62.6022 43.8652 62.2572 43.4551 61.9316C43.0514 61.5996 42.4753 61.3392 41.7266 61.1504C41.6094 62.2572 41.541 63.4355 41.5215 64.6855ZM41.668 68.9922C42.6836 68.9661 43.4421 68.8197 43.9434 68.5527C44.3796 68.3249 44.5977 68.0579 44.5977 67.752C44.5977 67.4264 44.3763 67.179 43.9336 67.0098C43.6276 66.8991 43.2174 66.8438 42.7031 66.8438C42.3776 66.8438 42 66.8698 41.5703 66.9219C41.5443 66.9284 41.5312 67.013 41.5312 67.1758C41.5312 67.4948 41.5605 67.9082 41.6191 68.416C41.6517 68.7546 41.668 68.9466 41.668 68.9922ZM41.4727 71.2188C40.8086 71.2188 39.9818 71.1276 38.9922 70.9453C38.7839 69.819 38.6569 68.7383 38.6113 67.7031C38.5723 66.668 38.5527 65.8411 38.5527 65.2227C38.5527 62.7617 38.7122 60.6426 39.0312 58.8652C39.4414 58.7741 39.9069 58.7285 40.4277 58.7285C41.235 58.7285 42.0651 58.8294 42.918 59.0312C44.5326 59.4219 45.6816 60.0762 46.3652 60.9941C46.7168 61.4694 46.8926 62.0228 46.8926 62.6543C46.8926 63.5397 46.4108 64.3861 45.4473 65.1934C45.8184 65.3626 46.1211 65.5645 46.3555 65.7988C46.5964 66.0332 46.7721 66.2936 46.8828 66.5801C46.9935 66.86 47.0488 67.1497 47.0488 67.4492C47.0488 68.0807 46.8568 68.6634 46.4727 69.1973C46.0951 69.7246 45.5579 70.1608 44.8613 70.5059C44.1647 70.8509 43.5039 71.056 42.8789 71.1211C42.2539 71.1862 41.7852 71.2188 41.4727 71.2188ZM41.6289 71.502C42.5143 71.4954 43.3737 71.3522 44.207 71.0723C45.1185 70.7728 45.8542 70.3366 46.4141 69.7637C47.0391 69.1126 47.3516 68.3411 47.3516 67.4492C47.3516 67.1107 47.293 66.7982 47.1758 66.5117C47.0651 66.2188 46.9056 65.9583 46.6973 65.7305C46.4889 65.4961 46.2448 65.2975 45.9648 65.1348C46.7786 64.3535 47.1855 63.5202 47.1855 62.6348C47.1855 61.3132 46.4922 60.278 45.1055 59.5293C43.7643 58.8197 42.2051 58.4648 40.4277 58.4648C39.8092 58.4648 39.2591 58.5169 38.7773 58.6211C38.4193 60.6263 38.2402 62.8398 38.2402 65.2617C38.2402 67.3971 38.4062 69.373 38.7383 71.1895C39.6823 71.3978 40.6458 71.502 41.6289 71.502ZM41.9414 68.6797C41.8763 68.1849 41.8372 67.6868 41.8242 67.1855C42.1302 67.1595 42.4102 67.1465 42.6641 67.1465C43.0938 67.1465 43.4746 67.1953 43.8066 67.293C44.1387 67.3906 44.3047 67.5436 44.3047 67.752C44.2982 67.9603 44.0931 68.1556 43.6895 68.3379C43.2923 68.5202 42.7096 68.6341 41.9414 68.6797ZM41.8242 64.3242C41.8438 63.3867 41.8991 62.4557 41.9902 61.5312C43.1751 61.9089 43.7676 62.3776 43.7676 62.9375C43.7676 63.5365 43.1198 63.9987 41.8242 64.3242ZM42.332 68.2109C43.0026 68.1523 43.4941 68.0059 43.8066 67.7715C43.5592 67.6543 43.2012 67.5957 42.7324 67.5957H42.2832C42.2962 67.804 42.3125 68.0091 42.332 68.2109ZM42.2832 63.7285C42.3874 63.696 42.5176 63.6406 42.6738 63.5625C42.8366 63.4844 42.9831 63.3932 43.1133 63.2891C43.2435 63.1784 43.3118 63.0612 43.3184 62.9375C43.3184 62.8203 43.2598 62.7096 43.1426 62.6055C43.0254 62.4948 42.8919 62.4004 42.7422 62.3223C42.5924 62.2376 42.472 62.1758 42.3809 62.1367C42.3353 62.6641 42.3027 63.1947 42.2832 63.7285ZM50.0566 71.9609C49.4837 69.1484 49.1973 66.1797 49.1973 63.0547C49.1973 61.3685 49.2493 59.666 49.3535 57.9473L53.7871 58.3184C53.6895 59.8678 53.6374 61.0625 53.6309 61.9023C53.6309 62.7422 53.6309 63.2272 53.6309 63.3574C53.6309 64.7637 53.6927 66.1732 53.8164 67.5859C54.9297 67.4622 56.0462 67.3451 57.166 67.2344L57.7031 71.3848C55.0013 71.6517 53.4388 71.8014 53.0156 71.834C52.0456 71.9186 51.0592 71.9609 50.0566 71.9609ZM51.4727 60.2617C51.6094 60.2617 51.7266 60.2129 51.8242 60.1152C51.9219 60.0176 51.9707 59.9004 51.9707 59.7637C51.9707 59.627 51.9219 59.513 51.8242 59.4219C51.7266 59.3242 51.6094 59.2754 51.4727 59.2754C51.3359 59.2754 51.2188 59.3242 51.1211 59.4219C51.0234 59.513 50.9746 59.627 50.9746 59.7637C50.9746 59.9004 51.0234 60.0176 51.1211 60.1152C51.2188 60.2129 51.3359 60.2617 51.4727 60.2617ZM51.3457 62.8594C51.4824 62.8594 51.5996 62.8105 51.6973 62.7129C51.7949 62.6152 51.8438 62.498 51.8438 62.3613C51.8438 62.2246 51.7949 62.1107 51.6973 62.0195C51.5996 61.9219 51.4824 61.873 51.3457 61.873C51.209 61.873 51.0918 61.9219 50.9941 62.0195C50.903 62.1107 50.8574 62.2246 50.8574 62.3613C50.8574 62.498 50.903 62.6152 50.9941 62.7129C51.0918 62.8105 51.209 62.8594 51.3457 62.8594ZM51.4336 65.2129C51.5703 65.2129 51.6842 65.1641 51.7754 65.0664C51.873 64.9688 51.9219 64.8516 51.9219 64.7148C51.9219 64.5781 51.873 64.4642 51.7754 64.373C51.6842 64.2754 51.5703 64.2266 51.4336 64.2266C51.2969 64.2266 51.1797 64.2754 51.082 64.373C50.9844 64.4642 50.9355 64.5781 50.9355 64.7148C50.9355 64.8516 50.9844 64.9688 51.082 65.0664C51.1797 65.1641 51.2969 65.2129 51.4336 65.2129ZM51.5801 67.957C51.7168 67.957 51.834 67.9082 51.9316 67.8105C52.0293 67.7129 52.0781 67.5957 52.0781 67.459C52.0781 67.3223 52.0293 67.2051 51.9316 67.1074C51.834 67.0098 51.7168 66.9609 51.5801 66.9609C51.4434 66.9609 51.3262 67.0098 51.2285 67.1074C51.1374 67.2051 51.0918 67.3223 51.0918 67.459C51.0918 67.5957 51.1374 67.7129 51.2285 67.8105C51.3262 67.9082 51.4434 67.957 51.5801 67.957ZM51.7168 70.3594C51.8535 70.3594 51.9707 70.3105 52.0684 70.2129C52.166 70.1152 52.2148 69.998 52.2148 69.8613C52.2148 69.7246 52.166 69.6074 52.0684 69.5098C51.9707 69.4121 51.8535 69.3633 51.7168 69.3633C51.5801 69.3633 51.4629 69.4121 51.3652 69.5098C51.2741 69.6074 51.2285 69.7246 51.2285 69.8613C51.2285 69.998 51.2741 70.1152 51.3652 70.2129C51.4629 70.3105 51.5801 70.3594 51.7168 70.3594ZM55.8281 69.9785C55.9518 69.9785 56.056 69.9362 56.1406 69.8516C56.2318 69.7604 56.2773 69.653 56.2773 69.5293C56.2773 69.4056 56.2318 69.3014 56.1406 69.2168C56.056 69.1257 55.9518 69.0801 55.8281 69.0801C55.7044 69.0801 55.597 69.1257 55.5059 69.2168C55.4212 69.3014 55.3789 69.4056 55.3789 69.5293C55.3789 69.653 55.4212 69.7604 55.5059 69.8516C55.597 69.9362 55.7044 69.9785 55.8281 69.9785ZM53.8359 70.2812C53.9596 70.2812 54.0638 70.2389 54.1484 70.1543C54.2396 70.0632 54.2852 69.9525 54.2852 69.8223C54.2852 69.6986 54.2396 69.5944 54.1484 69.5098C54.0638 69.4186 53.9596 69.373 53.8359 69.373C53.7122 69.373 53.6048 69.4186 53.5137 69.5098C53.429 69.5944 53.3867 69.6986 53.3867 69.8223C53.3867 69.9525 53.429 70.0632 53.5137 70.1543C53.6048 70.2389 53.7122 70.2812 53.8359 70.2812ZM50.6621 71.2188C50.1868 68.9141 49.9492 65.9811 49.9492 62.4199C49.9492 61.0853 49.9818 59.8581 50.0469 58.7383L53.0059 58.9922C52.9408 60.1771 52.9082 61.4499 52.9082 62.8105C52.9082 65.0046 52.9928 66.8698 53.1621 68.4062C54.2689 68.2695 55.3919 68.1491 56.5312 68.0449L56.873 70.7207C53.4811 71.0527 51.4108 71.2188 50.6621 71.2188ZM50.418 71.5215C51.2643 71.5215 52.1139 71.4824 52.9668 71.4043C53.6243 71.3457 55.0371 71.2057 57.2051 70.9844L56.7852 67.7227C55.6589 67.8333 54.5358 67.9538 53.416 68.084C53.2663 66.5345 53.1882 64.9753 53.1816 63.4062C53.1816 61.7331 53.2272 60.1706 53.3184 58.7188L49.7734 58.4258C49.6823 59.8581 49.6367 61.3848 49.6367 63.0059C49.6367 66.1243 49.8971 68.9629 50.418 71.5215ZM63.0352 71.9707C60.1771 71.9707 58.5625 70.3464 58.1914 67.0977C58.1068 66.3555 58.0645 65.6458 58.0645 64.9688C58.0645 63.6406 58.2305 61.7103 58.5625 59.1777L58.7188 58.0059C60.0729 58.0059 61.4206 58.0124 62.7617 58.0254C64.0443 58.0384 65.3301 58.0742 66.6191 58.1328L66.6094 62.0781L62.7227 62.0879C62.6706 62.498 62.625 62.9082 62.5859 63.3184L64.7148 63.3086L64.7246 66.9902L62.625 67C62.651 67.2865 62.6836 67.4557 62.7227 67.5078C62.7617 67.5534 62.8431 67.5762 62.9668 67.5762C63.6374 67.5762 64.6204 67.3939 65.916 67.0293L66.4043 66.8926L67.5469 71.1699L65.584 71.6387C64.666 71.86 63.8164 71.9707 63.0352 71.9707ZM60.5938 60.4668C60.7305 60.4668 60.8444 60.4212 60.9355 60.3301C61.0332 60.2324 61.082 60.1152 61.082 59.9785C61.082 59.8418 61.0332 59.7246 60.9355 59.627C60.8444 59.5293 60.7305 59.4805 60.5938 59.4805C60.457 59.4805 60.3398 59.5293 60.2422 59.627C60.1445 59.7246 60.0957 59.8418 60.0957 59.9785C60.0957 60.1152 60.1445 60.2324 60.2422 60.3301C60.3398 60.4212 60.457 60.4668 60.5938 60.4668ZM60.2812 63.0938C60.418 63.0938 60.5352 63.0482 60.6328 62.957C60.7305 62.8594 60.7793 62.7422 60.7793 62.6055C60.7793 62.4688 60.7305 62.3516 60.6328 62.2539C60.5352 62.1562 60.418 62.1074 60.2812 62.1074C60.1445 62.1074 60.0273 62.1562 59.9297 62.2539C59.832 62.3516 59.7832 62.4688 59.7832 62.6055C59.7832 62.7422 59.832 62.8594 59.9297 62.957C60.0273 63.0482 60.1445 63.0938 60.2812 63.0938ZM60.291 65.5352C60.4277 65.5352 60.5449 65.4896 60.6426 65.3984C60.7402 65.3008 60.7891 65.1836 60.7891 65.0469C60.7891 64.9102 60.7402 64.793 60.6426 64.6953C60.5449 64.5977 60.4277 64.5488 60.291 64.5488C60.1543 64.5488 60.0371 64.5977 59.9395 64.6953C59.8483 64.793 59.8027 64.9102 59.8027 65.0469C59.8027 65.1836 59.8483 65.3008 59.9395 65.3984C60.0371 65.4896 60.1543 65.5352 60.291 65.5352ZM60.5059 68.1914C60.6426 68.1914 60.7565 68.1426 60.8477 68.0449C60.9453 67.9473 60.9941 67.8301 60.9941 67.6934C60.9941 67.5566 60.9453 67.4395 60.8477 67.3418C60.7565 67.2441 60.6426 67.1953 60.5059 67.1953C60.3691 67.1953 60.252 67.2441 60.1543 67.3418C60.0566 67.4395 60.0078 67.5566 60.0078 67.6934C60.0078 67.8301 60.0566 67.9473 60.1543 68.0449C60.252 68.1426 60.3691 68.1914 60.5059 68.1914ZM62.2246 70.1738C62.3613 70.1738 62.4785 70.125 62.5762 70.0273C62.6738 69.9297 62.7227 69.8125 62.7227 69.6758C62.7227 69.5391 62.6738 69.4251 62.5762 69.334C62.4785 69.2363 62.3613 69.1875 62.2246 69.1875C62.0879 69.1875 61.9707 69.2363 61.873 69.334C61.7819 69.4251 61.7363 69.5391 61.7363 69.6758C61.7363 69.8125 61.7819 69.9297 61.873 70.0273C61.9707 70.125 62.0879 70.1738 62.2246 70.1738ZM64.8809 70.0371C65.0176 70.0371 65.1348 69.9883 65.2324 69.8906C65.3301 69.793 65.3789 69.6758 65.3789 69.5391C65.3789 69.4023 65.3301 69.2852 65.2324 69.1875C65.1348 69.0898 65.0176 69.041 64.8809 69.041C64.7441 69.041 64.627 69.0898 64.5293 69.1875C64.4382 69.2852 64.3926 69.4023 64.3926 69.5391C64.3926 69.6758 64.4382 69.793 64.5293 69.8906C64.627 69.9883 64.7441 70.0371 64.8809 70.0371ZM62.6934 65.6621C62.8301 65.6621 62.9473 65.6165 63.0449 65.5254C63.1426 65.4277 63.1914 65.3105 63.1914 65.1738C63.1914 65.0371 63.1426 64.9199 63.0449 64.8223C62.9473 64.7246 62.8301 64.6758 62.6934 64.6758C62.5566 64.6758 62.4395 64.7246 62.3418 64.8223C62.2441 64.9199 62.1953 65.0371 62.1953 65.1738C62.1953 65.3105 62.2441 65.4277 62.3418 65.5254C62.4395 65.6165 62.5566 65.6621 62.6934 65.6621ZM62.8398 60.4668C62.9766 60.4668 63.0938 60.4212 63.1914 60.3301C63.2891 60.2324 63.3379 60.1152 63.3379 59.9785C63.3379 59.8418 63.2891 59.7246 63.1914 59.627C63.0938 59.5293 62.9766 59.4805 62.8398 59.4805C62.7031 59.4805 62.5859 59.5293 62.4883 59.627C62.3906 59.7246 62.3418 59.8418 62.3418 59.9785C62.3418 60.1152 62.3906 60.2324 62.4883 60.3301C62.5859 60.4212 62.7031 60.4668 62.8398 60.4668ZM65.0371 60.4668C65.1738 60.4668 65.291 60.4212 65.3887 60.3301C65.4863 60.2324 65.5352 60.1152 65.5352 59.9785C65.5352 59.8418 65.4863 59.7246 65.3887 59.627C65.291 59.5293 65.1738 59.4805 65.0371 59.4805C64.9004 59.4805 64.7832 59.5293 64.6855 59.627C64.5944 59.7246 64.5488 59.8418 64.5488 59.9785C64.5488 60.1152 64.5944 60.2324 64.6855 60.3301C64.7832 60.4212 64.9004 60.4668 65.0371 60.4668ZM63.0254 71.2383C61.3848 71.2383 60.2487 70.6328 59.6172 69.4219C59.0768 68.3802 58.8066 66.9121 58.8066 65.0176C58.8066 63.5983 58.9531 61.8112 59.2461 59.6562L59.373 58.7383C62.127 58.7383 64.2949 58.7708 65.877 58.8359V61.3359L62.0684 61.3555C61.9121 62.5599 61.821 63.4616 61.7949 64.0605L63.9727 64.0508L63.9824 66.2578L61.7949 66.2676C61.8796 67.4069 62.0488 68.0449 62.3027 68.1816C62.4785 68.2728 62.7292 68.3184 63.0547 68.3184C63.6732 68.3184 64.6139 68.1426 65.877 67.791L66.6387 70.6426C65.3822 70.9876 64.4935 71.1732 63.9727 71.1992C63.4518 71.2253 63.1361 71.2383 63.0254 71.2383ZM63.0352 71.5312C63.1979 71.5312 63.4746 71.5182 63.8652 71.4922C64.2624 71.4661 64.7572 71.388 65.3496 71.2578C65.9486 71.1276 66.4987 70.9909 67 70.8477L66.0918 67.4297C64.7246 67.8203 63.7383 68.0189 63.1328 68.0254H62.918C62.7617 68.0254 62.6315 68.0026 62.5273 67.957C62.3385 67.8854 62.2018 67.4199 62.1172 66.5605L64.2754 66.5508L64.2656 63.748L62.1074 63.7578C62.166 62.9115 62.2409 62.2083 62.332 61.6484L66.1699 61.6289L66.1797 58.5527C64.4609 58.4811 62.1042 58.4453 59.1094 58.4453L58.7188 61.7461C58.5755 62.9245 58.5039 63.9792 58.5039 64.9102C58.5039 65.5612 58.543 66.248 58.6211 66.9707C58.9336 70.0111 60.4049 71.5312 63.0352 71.5312Z" fill="black"/>
<path d="M64.541 91.9512H64.3945C63.444 91.9512 62.3861 91.821 61.2207 91.5605C60.8366 89.4902 60.6445 87.3776 60.6445 85.2227C60.6445 82.8268 60.8496 80.5026 61.2598 78.25C61.9759 78.0938 62.6823 78.0156 63.3789 78.0156C64.1797 78.0156 64.9902 78.1068 65.8105 78.2891C67.1061 78.569 68.1868 79.0508 69.0527 79.7344C70.0098 80.4961 70.4883 81.4564 70.4883 82.6152C70.4883 83.4811 70.1595 84.2982 69.502 85.0664C70.2702 85.6849 70.6543 86.4792 70.6543 87.4492C70.6543 88.4453 70.3223 89.2949 69.6582 89.998C69.0527 90.6426 68.2682 91.1309 67.3047 91.4629C66.4258 91.7754 65.5046 91.9382 64.541 91.9512ZM63.0078 80.125C63.1445 80.125 63.2617 80.0794 63.3594 79.9883C63.457 79.8906 63.5059 79.7734 63.5059 79.6367C63.5059 79.5 63.457 79.3828 63.3594 79.2852C63.2617 79.1875 63.1445 79.1387 63.0078 79.1387C62.8711 79.1387 62.7539 79.1875 62.6562 79.2852C62.5651 79.3828 62.5195 79.5 62.5195 79.6367C62.5195 79.7734 62.5651 79.8906 62.6562 79.9883C62.7539 80.0794 62.8711 80.125 63.0078 80.125ZM62.9297 82.6641C63.0664 82.6641 63.1836 82.6185 63.2812 82.5273C63.3789 82.4297 63.4277 82.3125 63.4277 82.1758C63.4277 82.0391 63.3789 81.9219 63.2812 81.8242C63.1836 81.7266 63.0664 81.6777 62.9297 81.6777C62.793 81.6777 62.6758 81.7266 62.5781 81.8242C62.4805 81.9219 62.4316 82.0391 62.4316 82.1758C62.4316 82.3125 62.4805 82.4297 62.5781 82.5273C62.6758 82.6185 62.793 82.6641 62.9297 82.6641ZM62.8809 85.2812C63.0176 85.2812 63.1348 85.2324 63.2324 85.1348C63.3301 85.0371 63.3789 84.9199 63.3789 84.7832C63.3789 84.6465 63.3301 84.5326 63.2324 84.4414C63.1348 84.3438 63.0176 84.2949 62.8809 84.2949C62.7441 84.2949 62.627 84.3438 62.5293 84.4414C62.4382 84.5326 62.3926 84.6465 62.3926 84.7832C62.3926 84.9199 62.4382 85.0371 62.5293 85.1348C62.627 85.2324 62.7441 85.2812 62.8809 85.2812ZM62.8223 88.0254C62.959 88.0254 63.0729 87.9766 63.1641 87.8789C63.2617 87.7812 63.3105 87.6673 63.3105 87.5371C63.3105 87.4004 63.2617 87.2832 63.1641 87.1855C63.0729 87.0879 62.959 87.0391 62.8223 87.0391C62.6855 87.0391 62.5684 87.0879 62.4707 87.1855C62.373 87.2832 62.3242 87.4004 62.3242 87.5371C62.3242 87.6673 62.373 87.7812 62.4707 87.8789C62.5684 87.9766 62.6855 88.0254 62.8223 88.0254ZM63.0078 90.5938C63.1445 90.5938 63.2585 90.5449 63.3496 90.4473C63.4473 90.3496 63.4961 90.2357 63.4961 90.1055C63.4961 89.9688 63.4473 89.8516 63.3496 89.7539C63.2585 89.6562 63.1445 89.6074 63.0078 89.6074C62.8711 89.6074 62.7539 89.6562 62.6562 89.7539C62.5586 89.8516 62.5098 89.9688 62.5098 90.1055C62.5098 90.2357 62.5586 90.3496 62.6562 90.4473C62.7539 90.5449 62.8711 90.5938 63.0078 90.5938ZM65.5957 80.6328C65.7324 80.6328 65.8464 80.584 65.9375 80.4863C66.0352 80.3887 66.084 80.2715 66.084 80.1348C66.084 79.998 66.0352 79.8841 65.9375 79.793C65.8464 79.6953 65.7324 79.6465 65.5957 79.6465C65.459 79.6465 65.3418 79.6953 65.2441 79.793C65.1465 79.8841 65.0977 79.998 65.0977 80.1348C65.0977 80.2715 65.1465 80.3887 65.2441 80.4863C65.3418 80.584 65.459 80.6328 65.5957 80.6328ZM67.8223 81.9707C67.959 81.9707 68.0762 81.9219 68.1738 81.8242C68.2715 81.7266 68.3203 81.6094 68.3203 81.4727C68.3203 81.3359 68.2715 81.2188 68.1738 81.1211C68.0762 81.0234 67.959 80.9746 67.8223 80.9746C67.6855 80.9746 67.5684 81.0234 67.4707 81.1211C67.373 81.2188 67.3242 81.3359 67.3242 81.4727C67.3242 81.6094 67.373 81.7266 67.4707 81.8242C67.5684 81.9219 67.6855 81.9707 67.8223 81.9707ZM67.8516 84.4023C67.9883 84.4023 68.1055 84.3535 68.2031 84.2559C68.3008 84.1582 68.3496 84.041 68.3496 83.9043C68.3496 83.7676 68.3008 83.6536 68.2031 83.5625C68.1055 83.4648 67.9883 83.416 67.8516 83.416C67.7148 83.416 67.5977 83.4648 67.5 83.5625C67.4023 83.6536 67.3535 83.7676 67.3535 83.9043C67.3535 84.041 67.4023 84.1582 67.5 84.2559C67.5977 84.3535 67.7148 84.4023 67.8516 84.4023ZM65.5664 86.1113C65.7031 86.1113 65.8171 86.0658 65.9082 85.9746C66.0059 85.877 66.0547 85.7598 66.0547 85.623C66.0547 85.4863 66.0059 85.3691 65.9082 85.2715C65.8171 85.1738 65.7031 85.125 65.5664 85.125C65.4297 85.125 65.3125 85.1738 65.2148 85.2715C65.1172 85.3691 65.0684 85.4863 65.0684 85.623C65.0684 85.7598 65.1172 85.877 65.2148 85.9746C65.3125 86.0658 65.4297 86.1113 65.5664 86.1113ZM68.2324 87.2832C68.3691 87.2832 68.4863 87.2344 68.584 87.1367C68.6816 87.0391 68.7305 86.9219 68.7305 86.7852C68.7305 86.6484 68.6816 86.5345 68.584 86.4434C68.4863 86.3457 68.3691 86.2969 68.2324 86.2969C68.0957 86.2969 67.9785 86.3457 67.8809 86.4434C67.7897 86.5345 67.7441 86.6484 67.7441 86.7852C67.7441 86.9219 67.7897 87.0391 67.8809 87.1367C67.9785 87.2344 68.0957 87.2832 68.2324 87.2832ZM67.8125 89.7051C67.9492 89.7051 68.0632 89.6562 68.1543 89.5586C68.252 89.4609 68.3008 89.3438 68.3008 89.207C68.3008 89.0703 68.252 88.9531 68.1543 88.8555C68.0632 88.7578 67.9492 88.709 67.8125 88.709C67.6758 88.709 67.5586 88.7578 67.4609 88.8555C67.3633 88.9531 67.3145 89.0703 67.3145 89.207C67.3145 89.3438 67.3633 89.4609 67.4609 89.5586C67.5586 89.6562 67.6758 89.7051 67.8125 89.7051ZM65.3906 90.6426C65.5273 90.6426 65.6413 90.597 65.7324 90.5059C65.8301 90.4082 65.8789 90.291 65.8789 90.1543C65.8789 90.0176 65.8301 89.9004 65.7324 89.8027C65.6413 89.7051 65.5273 89.6562 65.3906 89.6562C65.2539 89.6562 65.1367 89.7051 65.0391 89.8027C64.9414 89.9004 64.8926 90.0176 64.8926 90.1543C64.8926 90.291 64.9414 90.4082 65.0391 90.5059C65.1367 90.597 65.2539 90.6426 65.3906 90.6426ZM64.3848 84.6855C65.2702 84.5098 65.9147 84.2689 66.3184 83.9629C66.7285 83.6504 66.9336 83.3184 66.9336 82.9668C66.9336 82.6022 66.7285 82.2572 66.3184 81.9316C65.9147 81.5996 65.3385 81.3392 64.5898 81.1504C64.4727 82.2572 64.4043 83.4355 64.3848 84.6855ZM64.5312 88.9922C65.5469 88.9661 66.3053 88.8197 66.8066 88.5527C67.2428 88.3249 67.4609 88.0579 67.4609 87.752C67.4609 87.4264 67.2396 87.179 66.7969 87.0098C66.4909 86.8991 66.0807 86.8438 65.5664 86.8438C65.2409 86.8438 64.8633 86.8698 64.4336 86.9219C64.4076 86.9284 64.3945 87.013 64.3945 87.1758C64.3945 87.4948 64.4238 87.9082 64.4824 88.416C64.515 88.7546 64.5312 88.9466 64.5312 88.9922ZM64.3359 91.2188C63.6719 91.2188 62.8451 91.1276 61.8555 90.9453C61.6471 89.819 61.5202 88.7383 61.4746 87.7031C61.4355 86.668 61.416 85.8411 61.416 85.2227C61.416 82.7617 61.5755 80.6426 61.8945 78.8652C62.3047 78.7741 62.7702 78.7285 63.291 78.7285C64.0983 78.7285 64.9284 78.8294 65.7812 79.0312C67.3958 79.4219 68.5449 80.0762 69.2285 80.9941C69.5801 81.4694 69.7559 82.0228 69.7559 82.6543C69.7559 83.5397 69.2741 84.3861 68.3105 85.1934C68.6816 85.3626 68.9844 85.5645 69.2188 85.7988C69.4596 86.0332 69.6354 86.2936 69.7461 86.5801C69.8568 86.86 69.9121 87.1497 69.9121 87.4492C69.9121 88.0807 69.7201 88.6634 69.3359 89.1973C68.9583 89.7246 68.4212 90.1608 67.7246 90.5059C67.028 90.8509 66.3672 91.056 65.7422 91.1211C65.1172 91.1862 64.6484 91.2188 64.3359 91.2188ZM64.4922 91.502C65.3776 91.4954 66.237 91.3522 67.0703 91.0723C67.9818 90.7728 68.7174 90.3366 69.2773 89.7637C69.9023 89.1126 70.2148 88.3411 70.2148 87.4492C70.2148 87.1107 70.1562 86.7982 70.0391 86.5117C69.9284 86.2188 69.7689 85.9583 69.5605 85.7305C69.3522 85.4961 69.1081 85.2975 68.8281 85.1348C69.6419 84.3535 70.0488 83.5202 70.0488 82.6348C70.0488 81.3132 69.3555 80.278 67.9688 79.5293C66.6276 78.8197 65.0684 78.4648 63.291 78.4648C62.6725 78.4648 62.1224 78.5169 61.6406 78.6211C61.2826 80.6263 61.1035 82.8398 61.1035 85.2617C61.1035 87.3971 61.2695 89.373 61.6016 91.1895C62.5456 91.3978 63.5091 91.502 64.4922 91.502ZM64.8047 88.6797C64.7396 88.1849 64.7005 87.6868 64.6875 87.1855C64.9935 87.1595 65.2734 87.1465 65.5273 87.1465C65.957 87.1465 66.3379 87.1953 66.6699 87.293C67.002 87.3906 67.168 87.5436 67.168 87.752C67.1615 87.9603 66.9564 88.1556 66.5527 88.3379C66.1556 88.5202 65.5729 88.6341 64.8047 88.6797ZM64.6875 84.3242C64.707 83.3867 64.7624 82.4557 64.8535 81.5312C66.0384 81.9089 66.6309 82.3776 66.6309 82.9375C66.6309 83.5365 65.9831 83.9987 64.6875 84.3242ZM65.1953 88.2109C65.8659 88.1523 66.3574 88.0059 66.6699 87.7715C66.4225 87.6543 66.0645 87.5957 65.5957 87.5957H65.1465C65.1595 87.804 65.1758 88.0091 65.1953 88.2109ZM65.1465 83.7285C65.2507 83.696 65.3809 83.6406 65.5371 83.5625C65.6999 83.4844 65.8464 83.3932 65.9766 83.2891C66.1068 83.1784 66.1751 83.0612 66.1816 82.9375C66.1816 82.8203 66.123 82.7096 66.0059 82.6055C65.8887 82.4948 65.7552 82.4004 65.6055 82.3223C65.4557 82.2376 65.3353 82.1758 65.2441 82.1367C65.1986 82.6641 65.166 83.1947 65.1465 83.7285ZM79.1699 92C78.9876 91.2188 78.7988 90.4408 78.6035 89.666L76.123 89.6758C75.9342 90.4375 75.765 91.1992 75.6152 91.9609L71.0742 91.502C71.3672 89.7572 71.7676 88.0417 72.2754 86.3555C72.7832 84.6693 73.3236 82.9928 73.8965 81.3262C74.2741 80.2194 74.6419 79.1126 75 78.0059H79.6777L80.5273 80.584C81.1393 82.3743 81.7155 84.181 82.2559 86.0039C82.8027 87.8203 83.2357 89.6628 83.5547 91.5312L79.1699 92ZM78.5352 88.4453C78.6719 88.4453 78.7858 88.3965 78.877 88.2988C78.9746 88.2012 79.0234 88.084 79.0234 87.9473C79.0234 87.8105 78.9746 87.6934 78.877 87.5957C78.7858 87.498 78.6719 87.4492 78.5352 87.4492C78.3984 87.4492 78.2812 87.498 78.1836 87.5957C78.0859 87.6934 78.0371 87.8105 78.0371 87.9473C78.0371 88.084 78.0859 88.2012 78.1836 88.2988C78.2812 88.3965 78.3984 88.4453 78.5352 88.4453ZM76.1816 88.4355C76.3184 88.4355 76.4323 88.3867 76.5234 88.2891C76.6211 88.1914 76.6699 88.0742 76.6699 87.9375C76.6699 87.8008 76.6211 87.6868 76.5234 87.5957C76.4323 87.498 76.3184 87.4492 76.1816 87.4492C76.0449 87.4492 75.9277 87.498 75.8301 87.5957C75.7324 87.6868 75.6836 87.8008 75.6836 87.9375C75.6836 88.0742 75.7324 88.1914 75.8301 88.2891C75.9277 88.3867 76.0449 88.4355 76.1816 88.4355ZM73.6328 90.4082C73.7695 90.4082 73.8867 90.3626 73.9844 90.2715C74.082 90.1738 74.1309 90.0566 74.1309 89.9199C74.1309 89.7832 74.082 89.666 73.9844 89.5684C73.8867 89.4707 73.7695 89.4219 73.6328 89.4219C73.4961 89.4219 73.3789 89.4707 73.2812 89.5684C73.1836 89.666 73.1348 89.7832 73.1348 89.9199C73.1348 90.0566 73.1836 90.1738 73.2812 90.2715C73.3789 90.3626 73.4961 90.4082 73.6328 90.4082ZM74.2383 87.9863C74.375 87.9863 74.4922 87.9375 74.5898 87.8398C74.6875 87.7422 74.7363 87.625 74.7363 87.4883C74.7363 87.3516 74.6875 87.2344 74.5898 87.1367C74.4922 87.0391 74.375 86.9902 74.2383 86.9902C74.1016 86.9902 73.9844 87.0391 73.8867 87.1367C73.7891 87.2344 73.7402 87.3516 73.7402 87.4883C73.7402 87.625 73.7891 87.7422 73.8867 87.8398C73.9844 87.9375 74.1016 87.9863 74.2383 87.9863ZM74.9707 85.125C75.1074 85.125 75.2246 85.0762 75.3223 84.9785C75.4199 84.8809 75.4688 84.7637 75.4688 84.627C75.4688 84.4967 75.4199 84.3828 75.3223 84.2852C75.2246 84.1875 75.1074 84.1387 74.9707 84.1387C74.834 84.1387 74.7168 84.1875 74.6191 84.2852C74.5215 84.3828 74.4727 84.4967 74.4727 84.627C74.4727 84.7637 74.5215 84.8809 74.6191 84.9785C74.7168 85.0762 74.834 85.125 74.9707 85.125ZM75.7422 82.6348C75.8789 82.6348 75.9961 82.5892 76.0938 82.498C76.1914 82.4004 76.2402 82.2832 76.2402 82.1465C76.2402 82.0098 76.1914 81.8926 76.0938 81.7949C75.9961 81.6973 75.8789 81.6484 75.7422 81.6484C75.6055 81.6484 75.4883 81.6973 75.3906 81.7949C75.293 81.8926 75.2441 82.0098 75.2441 82.1465C75.2441 82.2832 75.293 82.4004 75.3906 82.498C75.4883 82.5892 75.6055 82.6348 75.7422 82.6348ZM76.4355 80.4668C76.5658 80.4668 76.6797 80.418 76.7773 80.3203C76.875 80.2227 76.9238 80.1055 76.9238 79.9688C76.9238 79.832 76.875 79.7148 76.7773 79.6172C76.6797 79.5195 76.5658 79.4707 76.4355 79.4707C76.2988 79.4707 76.1816 79.5195 76.084 79.6172C75.9863 79.7148 75.9375 79.832 75.9375 79.9688C75.9375 80.1055 75.9863 80.2227 76.084 80.3203C76.1816 80.418 76.2988 80.4668 76.4355 80.4668ZM78.2715 80.4668C78.4082 80.4668 78.5254 80.418 78.623 80.3203C78.7207 80.2227 78.7695 80.1055 78.7695 79.9688C78.7695 79.832 78.7207 79.7148 78.623 79.6172C78.5254 79.5195 78.4082 79.4707 78.2715 79.4707C78.1348 79.4707 78.0176 79.5195 77.9199 79.6172C77.8288 79.7148 77.7832 79.832 77.7832 79.9688C77.7832 80.1055 77.8288 80.2227 77.9199 80.3203C78.0176 80.418 78.1348 80.4668 78.2715 80.4668ZM81.0938 90.4082C81.2305 90.4082 81.3477 90.3626 81.4453 90.2715C81.543 90.1738 81.5918 90.0566 81.5918 89.9199C81.5918 89.7832 81.543 89.666 81.4453 89.5684C81.3477 89.4707 81.2305 89.4219 81.0938 89.4219C80.957 89.4219 80.8398 89.4707 80.7422 89.5684C80.6445 89.666 80.5957 89.7832 80.5957 89.9199C80.5957 90.0566 80.6445 90.1738 80.7422 90.2715C80.8398 90.3626 80.957 90.4082 81.0938 90.4082ZM80.4883 87.9082C80.625 87.9082 80.7422 87.8594 80.8398 87.7617C80.9375 87.6641 80.9863 87.5469 80.9863 87.4102C80.9863 87.2734 80.9375 87.1595 80.8398 87.0684C80.7422 86.9707 80.625 86.9219 80.4883 86.9219C80.3516 86.9219 80.2344 86.9707 80.1367 87.0684C80.0391 87.1595 79.9902 87.2734 79.9902 87.4102C79.9902 87.5469 80.0391 87.6641 80.1367 87.7617C80.2344 87.8594 80.3516 87.9082 80.4883 87.9082ZM79.7559 85.125C79.8926 85.125 80.0098 85.0762 80.1074 84.9785C80.2051 84.8809 80.2539 84.7637 80.2539 84.627C80.2539 84.4967 80.2051 84.3828 80.1074 84.2852C80.0098 84.1875 79.8926 84.1387 79.7559 84.1387C79.6191 84.1387 79.502 84.1875 79.4043 84.2852C79.3132 84.3828 79.2676 84.4967 79.2676 84.627C79.2676 84.7637 79.3132 84.8809 79.4043 84.9785C79.502 85.0762 79.6191 85.125 79.7559 85.125ZM78.9844 82.6348C79.1211 82.6348 79.2383 82.5892 79.3359 82.498C79.4336 82.4004 79.4824 82.2832 79.4824 82.1465C79.4824 82.0098 79.4336 81.8926 79.3359 81.7949C79.2383 81.6973 79.1211 81.6484 78.9844 81.6484C78.8477 81.6484 78.7305 81.6973 78.6328 81.7949C78.5352 81.8926 78.4863 82.0098 78.4863 82.1465C78.4863 82.2832 78.5352 82.4004 78.6328 82.498C78.7305 82.5892 78.8477 82.6348 78.9844 82.6348ZM76.0352 86.9805L78.6914 86.9707C78.4245 86.0137 77.9818 84.5326 77.3633 82.5273C76.6992 84.7083 76.2565 86.1927 76.0352 86.9805ZM79.7461 91.1992C79.5638 90.444 79.375 89.6855 79.1797 88.9238L75.5469 88.9434C75.332 89.7767 75.1562 90.5156 75.0195 91.1602L71.9336 90.8477C72.1875 89.3372 72.7572 87.2051 73.6426 84.4512L75.5371 78.7383H79.1406C80.0326 81.4531 80.5924 83.1751 80.8203 83.9043C81.7904 86.9316 82.4186 89.2591 82.7051 90.8867L79.7461 91.1992ZM79.5117 91.5215L83.0469 91.1406C82.7474 89.4349 82.347 87.7552 81.8457 86.1016C81.3509 84.4414 80.8203 82.7943 80.2539 81.1602C79.9479 80.2552 79.6484 79.3503 79.3555 78.4453H75.3223C74.9512 79.5846 74.5736 80.7142 74.1895 81.834C73.6556 83.3444 73.1543 84.8646 72.6855 86.3945C72.2233 87.9245 71.8587 89.4967 71.5918 91.1113L75.2539 91.4824C75.4102 90.7272 75.5859 89.9785 75.7812 89.2363L78.9453 89.2168C79.1471 89.985 79.3359 90.7533 79.5117 91.5215ZM76.4258 86.6875C76.7253 85.6328 77.0378 84.5814 77.3633 83.5332C77.6888 84.5749 78.0046 85.623 78.3105 86.6777L76.4258 86.6875ZM77.7246 86.2383L77.3633 85.0469L77.0117 86.2383H77.7246ZM86.582 91.2188C86.5755 90.4115 86.5365 88.8815 86.4648 86.6289C85.4948 85.5807 84.5052 84.0378 83.4961 82C83.0664 81.1341 82.7344 80.3822 82.5 79.7441L85.2637 78.7383C85.4915 79.3568 85.8464 80.1413 86.3281 81.0918C86.8164 82.0358 87.3275 82.8984 87.8613 83.6797C88.3626 82.8659 88.8314 81.9902 89.2676 81.0527C89.7038 80.1087 90.0326 79.3372 90.2539 78.7383L93.0176 79.7441C92.8027 80.3366 92.5033 81.0397 92.1191 81.8535C91.735 82.6673 91.3053 83.4844 90.8301 84.3047C90.3613 85.1185 89.8861 85.8216 89.4043 86.4141C89.4173 87.0391 89.4336 87.6055 89.4531 88.1133C89.4922 88.8424 89.5182 89.8743 89.5312 91.209L86.582 91.2188ZM84.2871 80.5645C84.4238 80.5645 84.541 80.5156 84.6387 80.418C84.7363 80.3203 84.7852 80.2031 84.7852 80.0664C84.7852 79.9297 84.7363 79.8125 84.6387 79.7148C84.541 79.6172 84.4238 79.5684 84.2871 79.5684C84.1504 79.5684 84.0332 79.6172 83.9355 79.7148C83.8444 79.8125 83.7988 79.9297 83.7988 80.0664C83.7988 80.2031 83.8444 80.3203 83.9355 80.418C84.0332 80.5156 84.1504 80.5645 84.2871 80.5645ZM85.3418 82.7324C85.4785 82.7324 85.5957 82.6836 85.6934 82.5859C85.791 82.4883 85.8398 82.3711 85.8398 82.2344C85.8398 82.0977 85.791 81.9837 85.6934 81.8926C85.5957 81.7949 85.4785 81.7461 85.3418 81.7461C85.2051 81.7461 85.0879 81.7949 84.9902 81.8926C84.8991 81.9837 84.8535 82.0977 84.8535 82.2344C84.8535 82.3711 84.8991 82.4883 84.9902 82.5859C85.0879 82.6836 85.2051 82.7324 85.3418 82.7324ZM86.5234 84.8223C86.6602 84.8223 86.7773 84.7734 86.875 84.6758C86.9727 84.5781 87.0215 84.4609 87.0215 84.3242C87.0215 84.1875 86.9727 84.0703 86.875 83.9727C86.7773 83.875 86.6602 83.8262 86.5234 83.8262C86.3932 83.8262 86.2793 83.875 86.1816 83.9727C86.084 84.0703 86.0352 84.1875 86.0352 84.3242C86.0352 84.4609 86.084 84.5781 86.1816 84.6758C86.2793 84.7734 86.3932 84.8223 86.5234 84.8223ZM89.2676 84.7441C89.4043 84.7441 89.5215 84.6953 89.6191 84.5977C89.7168 84.5 89.7656 84.3861 89.7656 84.2559C89.7656 84.1191 89.7168 84.002 89.6191 83.9043C89.5215 83.8066 89.4043 83.7578 89.2676 83.7578C89.1309 83.7578 89.0137 83.8066 88.916 83.9043C88.8249 84.002 88.7793 84.1191 88.7793 84.2559C88.7793 84.3861 88.8249 84.5 88.916 84.5977C89.0137 84.6953 89.1309 84.7441 89.2676 84.7441ZM90.3125 82.5859C90.4492 82.5859 90.5664 82.5404 90.6641 82.4492C90.7617 82.3516 90.8105 82.2344 90.8105 82.0977C90.8105 81.9609 90.7617 81.8438 90.6641 81.7461C90.5664 81.6484 90.4492 81.5996 90.3125 81.5996C90.1758 81.5996 90.0586 81.6484 89.9609 81.7461C89.8633 81.8438 89.8145 81.9609 89.8145 82.0977C89.8145 82.2344 89.8633 82.3516 89.9609 82.4492C90.0586 82.5404 90.1758 82.5859 90.3125 82.5859ZM91.3574 80.4375C91.4941 80.4375 91.6113 80.3887 91.709 80.291C91.8066 80.1934 91.8555 80.0762 91.8555 79.9395C91.8555 79.8027 91.8066 79.6888 91.709 79.5977C91.6113 79.5 91.4941 79.4512 91.3574 79.4512C91.2207 79.4512 91.1035 79.5 91.0059 79.5977C90.9147 79.6888 90.8691 79.8027 90.8691 79.9395C90.8691 80.0762 90.9147 80.1934 91.0059 80.291C91.1035 80.3887 91.2207 80.4375 91.3574 80.4375ZM87.9492 86.6094C88.0859 86.6094 88.2031 86.5605 88.3008 86.4629C88.3984 86.3652 88.4473 86.248 88.4473 86.1113C88.4473 85.9746 88.3984 85.8607 88.3008 85.7695C88.2031 85.6719 88.0859 85.623 87.9492 85.623C87.8125 85.623 87.6953 85.6719 87.5977 85.7695C87.5 85.8607 87.4512 85.9746 87.4512 86.1113C87.4512 86.248 87.5 86.3652 87.5977 86.4629C87.6953 86.5605 87.8125 86.6094 87.9492 86.6094ZM88.0371 88.7578C88.1738 88.7578 88.291 88.709 88.3887 88.6113C88.4863 88.5137 88.5352 88.3965 88.5352 88.2598C88.5352 88.123 88.4863 88.0059 88.3887 87.9082C88.291 87.8105 88.1738 87.7617 88.0371 87.7617C87.9004 87.7617 87.7832 87.8105 87.6855 87.9082C87.5944 88.0059 87.5488 88.123 87.5488 88.2598C87.5488 88.3965 87.5944 88.5137 87.6855 88.6113C87.7832 88.709 87.9004 88.7578 88.0371 88.7578ZM88.0469 90.9551C88.1836 90.9551 88.3008 90.9095 88.3984 90.8184C88.4961 90.7207 88.5449 90.6035 88.5449 90.4668C88.5449 90.3301 88.4961 90.2129 88.3984 90.1152C88.3008 90.0176 88.1836 89.9688 88.0469 89.9688C87.9102 89.9688 87.793 90.0176 87.6953 90.1152C87.5977 90.2129 87.5488 90.3301 87.5488 90.4668C87.5488 90.6035 87.5977 90.7207 87.6953 90.8184C87.793 90.9095 87.9102 90.9551 88.0469 90.9551ZM85.8496 91.9609C85.8431 91.2057 85.804 89.526 85.7324 86.9219C84.1178 85.0729 82.7246 82.5339 81.5527 79.3047L85.7129 77.791C86.2728 79.3535 86.9792 80.8444 87.832 82.2637C88.6003 80.8249 89.2578 79.334 89.8047 77.791L93.9648 79.3047C92.8906 82.2995 91.6178 84.7539 90.1465 86.668C90.2181 89.3958 90.2604 91.1536 90.2734 91.9414L85.8496 91.9609ZM86.2891 91.5215L89.8242 91.502C89.8177 90.9421 89.7754 89.2786 89.6973 86.5117C90.4525 85.5612 91.1523 84.4577 91.7969 83.2012C92.4414 81.9447 92.9753 80.7337 93.3984 79.5684L90.0781 78.3672C89.4792 80.0208 88.737 81.6094 87.8516 83.1328C86.862 81.6354 86.0579 80.0469 85.4395 78.3672L82.1191 79.5684C82.7572 81.3197 83.5775 82.9961 84.5801 84.5977C85.0879 85.418 85.6185 86.1341 86.1719 86.7461C86.2435 89.2591 86.2826 90.8509 86.2891 91.5215Z" fill="black"/>
<path d="M86.5639 112.906L84.1536 110.496L81.7427 112.906L79.3317 110.496L76.9208 112.906L74.5098 110.496L72.0989 112.906L69.6886 110.496L67.5649 112.619L66.9897 112.043L69.6886 109.345L72.0989 111.756L74.5098 109.345L76.9208 111.756L79.3317 109.345L81.7427 111.756L84.1536 109.345L86.5639 111.756L88.9749 109.345L91.6737 112.043L91.0986 112.619L88.9749 110.496L86.5639 112.906Z" fill="black"/>
<path d="M113.891 42.2363L111.48 39.8254L109.069 42.2363L106.658 39.8254L104.247 42.2363L101.836 39.8254L99.4258 42.2363L97.0149 39.8254L94.8911 41.9491L94.316 41.374L97.0149 38.6751L99.4258 41.0861L101.836 38.6751L104.247 41.0861L106.658 38.6751L109.069 41.0861L111.48 38.6751L113.891 41.0861L116.301 38.6751L119 41.374L118.425 41.9491L116.301 39.8254L113.891 42.2363Z" fill="black"/>
<path d="M15.7248 81.1829L13.3139 78.772L10.9029 81.1829L8.49197 78.772L6.08102 81.1829L3.67007 78.772L1.54701 80.895L0.971878 80.3199L3.67007 77.6217L6.08102 80.0327L8.49197 77.6217L10.9029 80.0327L13.3139 77.6217L15.7248 80.0327L18.1351 77.6217L20.5467 80.0327L22.6698 77.9096L23.2449 78.4847L20.5467 81.1829L18.1351 78.772L15.7248 81.1829Z" fill="black"/>
<path d="M21.8606 85.1161L19.4497 82.7052L17.0387 85.1161L14.6278 82.7052L12.2168 85.1161L9.80654 82.7052L7.39493 85.1161L4.98464 82.7052L2.86093 84.8289L2.2858 84.2538L4.98464 81.5549L7.39493 83.9659L9.80654 81.5549L12.2168 83.9659L14.6278 81.5549L17.0387 83.9659L19.4497 81.5549L21.8606 83.9659L23.9837 81.8428L24.5588 82.4179L21.8606 85.1161Z" fill="black"/>
<path d="M2.61989 36.3601C2.50289 36.3601 2.38984 36.3095 2.31162 36.2182C2.20842 36.0979 2.1841 35.9289 2.24983 35.785L4.6358 30.5365C4.67524 30.4497 4.7436 30.3801 4.82905 30.3387L9.97566 27.8508C10.1157 27.7831 10.2813 27.8009 10.4036 27.8968C10.5258 27.9928 10.583 28.1492 10.5508 28.3011L9.2901 34.2653C9.25921 34.4132 9.14812 34.5315 9.00286 34.5723L2.73163 36.3444C2.6935 36.3549 2.6567 36.3601 2.61989 36.3601ZM5.31479 31.0071L3.35277 35.3236L8.54407 33.8565L9.58259 28.9439L5.31479 31.0071Z" fill="black"/>
<path d="M14.3314 40.0278C14.2906 40.0278 14.2499 40.0219 14.2098 40.0094L2.49812 36.3417C2.32657 36.2878 2.21023 36.1275 2.21286 35.948C2.21549 35.7679 2.33577 35.6115 2.50864 35.5622L8.77987 33.7895C8.92185 33.7494 9.07368 33.7895 9.17819 33.8933L14.6186 39.3331C14.7507 39.4652 14.7757 39.6709 14.6791 39.8313C14.6035 39.9555 14.4701 40.0278 14.3314 40.0278ZM4.04408 35.9737L12.8728 38.7382L8.77198 34.6374L4.04408 35.9737Z" fill="black"/>
<path d="M14.3314 40.0278C14.2262 40.0278 14.1217 39.9871 14.0435 39.9088L8.60306 34.4691C8.50578 34.3718 8.46437 34.2318 8.49264 34.0977L9.75332 28.1334C9.79079 27.956 9.94131 27.8252 10.1221 27.812C10.2982 27.7995 10.4704 27.9073 10.5329 28.0776L14.7126 39.4816C14.7783 39.661 14.7106 39.8615 14.5496 39.964C14.4825 40.0068 14.407 40.0278 14.3314 40.0278ZM9.33463 34.0497L13.3145 38.0296L10.2568 29.686L9.33463 34.0497Z" fill="black"/>
<path d="M100.224 100.848C100.135 100.848 100.046 100.819 99.974 100.762C99.8517 100.666 99.7946 100.509 99.8268 100.357L101.087 94.3931C101.119 94.2452 101.229 94.1269 101.375 94.0862L107.646 92.3135C107.798 92.2707 107.962 92.3194 108.065 92.4397C108.168 92.5599 108.193 92.7289 108.127 92.8728L105.742 98.1213C105.702 98.2081 105.634 98.2777 105.548 98.3191L100.402 100.807C100.345 100.835 100.285 100.848 100.224 100.848ZM101.832 94.802L100.794 99.7146L105.061 97.6513L107.023 93.3342L101.832 94.802Z" fill="black"/>
<path d="M101.485 94.8841C101.379 94.8841 101.275 94.8421 101.197 94.7652L95.7575 89.3254C95.6253 89.1933 95.6004 88.9876 95.697 88.8272C95.7943 88.6668 95.9882 88.5939 96.1663 88.6497L107.878 92.3174C108.049 92.3713 108.166 92.5317 108.163 92.7111C108.161 92.8912 108.04 93.0477 107.867 93.097L101.596 94.8697C101.559 94.8795 101.522 94.8841 101.485 94.8841ZM97.5032 89.9203L101.604 94.0211L106.332 92.6848L97.5032 89.9203Z" fill="black"/>
<path d="M100.224 100.848C100.055 100.848 99.9017 100.743 99.8425 100.582L95.6628 89.1776C95.5971 88.9981 95.6648 88.7977 95.8258 88.6951C95.9869 88.5926 96.1978 88.6156 96.3326 88.7503L101.773 94.1901C101.87 94.2874 101.912 94.4274 101.883 94.5615L100.623 100.526C100.585 100.703 100.435 100.834 100.254 100.847C100.244 100.848 100.234 100.848 100.224 100.848ZM97.0615 90.6296L100.119 98.9732L101.041 94.6095L97.0615 90.6296Z" fill="black"/>
<path d="M47.785 113.198C48.7793 108.936 46.1302 104.675 41.868 103.681C37.6059 102.686 33.3447 105.336 32.3504 109.598C31.3561 113.86 34.0052 118.121 38.2673 119.115C42.5295 120.11 46.7907 117.461 47.785 113.198Z" fill="#D7F9CC"/>
<path d="M65.4286 12.2631C65.355 12.2631 65.2814 12.2434 65.217 12.2033L61.5191 9.94614C61.3981 9.87253 61.3245 9.74107 61.3245 9.59909V4.60301C61.3245 4.45578 61.404 4.32037 61.5322 4.24807C61.6604 4.17577 61.8175 4.17906 61.943 4.25596L65.641 6.5131C65.7619 6.58672 65.8355 6.71818 65.8355 6.86015V11.8562C65.8355 12.0035 65.756 12.1389 65.6278 12.2112C65.566 12.246 65.497 12.2631 65.4286 12.2631ZM62.1376 9.37167L65.0218 11.1319V7.08889L62.1376 5.328V9.37167Z" fill="black"/>
<path d="M65.4286 12.2631C65.3603 12.2631 65.2913 12.246 65.2295 12.2112C65.1013 12.1389 65.0218 12.0035 65.0218 11.8562V6.86014C65.0218 6.71817 65.0954 6.58671 65.217 6.51309L68.9149 4.25595C69.0398 4.17904 69.1976 4.17641 69.3257 4.24806C69.4539 4.32036 69.5334 4.45576 69.5334 4.603V9.59908C69.5334 9.74106 69.4598 9.87251 69.3389 9.94613L65.641 12.2033C65.5759 12.2434 65.5023 12.2631 65.4286 12.2631ZM65.8355 7.08888V11.1319L68.7197 9.37166V5.32865L65.8355 7.08888Z" fill="black"/>
<path d="M65.4287 7.26767C65.355 7.26767 65.2814 7.24795 65.217 7.20786L61.5191 4.95072C61.3942 4.87447 61.3199 4.7371 61.3245 4.59052C61.3291 4.44394 61.4119 4.31183 61.5414 4.24347L65.2394 2.29985C65.3577 2.23741 65.4996 2.23741 65.6179 2.29985L69.3159 4.24347C69.4454 4.31183 69.5282 4.44394 69.5328 4.59052C69.5374 4.7371 69.4631 4.87447 69.3382 4.95072L65.6403 7.20786C65.5759 7.2473 65.5023 7.26767 65.4287 7.26767ZM62.555 4.62996L65.4287 6.38361L68.3023 4.62996L65.4287 3.1195L62.555 4.62996Z" fill="black"/>
<path d="M23.4441 38.612C23.9011 38.612 24.2716 38.2415 24.2716 37.7845C24.2716 37.3275 23.9011 36.957 23.4441 36.957C22.987 36.957 22.6165 37.3275 22.6165 37.7845C22.6165 38.2415 22.987 38.612 23.4441 38.612Z" fill="black"/>
<path d="M30.7979 38.612C31.2549 38.612 31.6254 38.2415 31.6254 37.7845C31.6254 37.3275 31.2549 36.957 30.7979 36.957C30.3408 36.957 29.9703 37.3275 29.9703 37.7845C29.9703 38.2415 30.3408 38.612 30.7979 38.612Z" fill="black"/>
<path d="M38.1523 38.612C38.6093 38.612 38.9798 38.2415 38.9798 37.7845C38.9798 37.3275 38.6093 36.957 38.1523 36.957C37.6953 36.957 37.3248 37.3275 37.3248 37.7845C37.3248 38.2415 37.6953 38.612 38.1523 38.612Z" fill="black"/>
<path d="M45.5061 38.612C45.9631 38.612 46.3336 38.2415 46.3336 37.7845C46.3336 37.3275 45.9631 36.957 45.5061 36.957C45.0491 36.957 44.6786 37.3275 44.6786 37.7845C44.6786 38.2415 45.0491 38.612 45.5061 38.612Z" fill="black"/>
<path d="M52.8606 38.612C53.3176 38.612 53.6881 38.2415 53.6881 37.7845C53.6881 37.3275 53.3176 36.957 52.8606 36.957C52.4035 36.957 52.033 37.3275 52.033 37.7845C52.033 38.2415 52.4035 38.612 52.8606 38.612Z" fill="black"/>
<path d="M23.4441 31.2582C23.9011 31.2582 24.2716 30.8877 24.2716 30.4307C24.2716 29.9736 23.9011 29.6031 23.4441 29.6031C22.987 29.6031 22.6165 29.9736 22.6165 30.4307C22.6165 30.8877 22.987 31.2582 23.4441 31.2582Z" fill="black"/>
<path d="M30.7979 31.2582C31.2549 31.2582 31.6254 30.8877 31.6254 30.4307C31.6254 29.9736 31.2549 29.6031 30.7979 29.6031C30.3408 29.6031 29.9703 29.9736 29.9703 30.4307C29.9703 30.8877 30.3408 31.2582 30.7979 31.2582Z" fill="black"/>
<path d="M38.1523 31.2582C38.6093 31.2582 38.9798 30.8877 38.9798 30.4307C38.9798 29.9736 38.6093 29.6031 38.1523 29.6031C37.6953 29.6031 37.3248 29.9736 37.3248 30.4307C37.3248 30.8877 37.6953 31.2582 38.1523 31.2582Z" fill="black"/>
<path d="M45.5061 31.2582C45.9631 31.2582 46.3336 30.8877 46.3336 30.4307C46.3336 29.9736 45.9631 29.6031 45.5061 29.6031C45.0491 29.6031 44.6786 29.9736 44.6786 30.4307C44.6786 30.8877 45.0491 31.2582 45.5061 31.2582Z" fill="black"/>
<path d="M52.8606 31.2582C53.3176 31.2582 53.6881 30.8877 53.6881 30.4307C53.6881 29.9736 53.3176 29.6031 52.8606 29.6031C52.4035 29.6031 52.033 29.9736 52.033 30.4307C52.033 30.8877 52.4035 31.2582 52.8606 31.2582Z" fill="black"/>
<path d="M23.4441 23.9038C23.9011 23.9038 24.2716 23.5333 24.2716 23.0762C24.2716 22.6192 23.9011 22.2487 23.4441 22.2487C22.987 22.2487 22.6165 22.6192 22.6165 23.0762C22.6165 23.5333 22.987 23.9038 23.4441 23.9038Z" fill="black"/>
<path d="M30.7979 23.9038C31.2549 23.9038 31.6254 23.5333 31.6254 23.0762C31.6254 22.6192 31.2549 22.2487 30.7979 22.2487C30.3408 22.2487 29.9703 22.6192 29.9703 23.0762C29.9703 23.5333 30.3408 23.9038 30.7979 23.9038Z" fill="black"/>
<path d="M38.1523 23.9038C38.6093 23.9038 38.9798 23.5333 38.9798 23.0762C38.9798 22.6192 38.6093 22.2487 38.1523 22.2487C37.6953 22.2487 37.3248 22.6192 37.3248 23.0762C37.3248 23.5333 37.6953 23.9038 38.1523 23.9038Z" fill="black"/>
<path d="M45.5061 23.9038C45.9631 23.9038 46.3336 23.5333 46.3336 23.0762C46.3336 22.6192 45.9631 22.2487 45.5061 22.2487C45.0491 22.2487 44.6786 22.6192 44.6786 23.0762C44.6786 23.5333 45.0491 23.9038 45.5061 23.9038Z" fill="black"/>
<path d="M52.8606 23.9038C53.3176 23.9038 53.6881 23.5333 53.6881 23.0762C53.6881 22.6192 53.3176 22.2487 52.8606 22.2487C52.4035 22.2487 52.033 22.6192 52.033 23.0762C52.033 23.5333 52.4035 23.9038 52.8606 23.9038Z" fill="black"/>
<path d="M18.3192 12.457V10.988H19.7875C20.0123 10.988 20.1944 10.8059 20.1944 10.5811C20.1944 10.3563 20.0123 10.1742 19.7875 10.1742H18.3192V8.70518C18.3192 8.48038 18.1371 8.29831 17.9123 8.29831C17.6875 8.29831 17.5054 8.48038 17.5054 8.70518V10.1742H16.0364C15.8116 10.1742 15.6295 10.3563 15.6295 10.5811C15.6295 10.8059 15.8116 10.988 16.0364 10.988H17.5054V12.457C17.5054 12.6818 17.6875 12.8639 17.9123 12.8639C18.1371 12.8639 18.3192 12.6811 18.3192 12.457Z" fill="black"/>
<path d="M104.59 69.0736V67.6052H106.059C106.283 67.6052 106.465 67.4231 106.465 67.1983C106.465 66.9735 106.283 66.7915 106.059 66.7915H104.59V65.3231C104.59 65.0983 104.408 64.9162 104.183 64.9162C103.959 64.9162 103.776 65.0983 103.776 65.3231V66.7915H102.308C102.083 66.7915 101.901 66.9735 101.901 67.1983C101.901 67.4231 102.083 67.6052 102.308 67.6052H103.776V69.0736C103.776 69.2984 103.959 69.4804 104.183 69.4804C104.408 69.4804 104.59 69.2984 104.59 69.0736Z" fill="black"/>
<path d="M7.87279 98.4486V96.9802H9.34118C9.56598 96.9802 9.74805 96.7982 9.74805 96.5734C9.74805 96.3486 9.56598 96.1665 9.34118 96.1665H7.87279V94.6981C7.87279 94.4733 7.69072 94.2913 7.46593 94.2913C7.24113 94.2913 7.05906 94.4733 7.05906 94.6981V96.1665H5.59067C5.36588 96.1665 5.18381 96.3486 5.18381 96.5734C5.18381 96.7982 5.36588 96.9802 5.59067 96.9802H7.05972V98.4486C7.05972 98.6734 7.24179 98.8555 7.46659 98.8555C7.69072 98.8555 7.87279 98.6734 7.87279 98.4486Z" fill="black"/>
</svg>
